<svg width="1001" height="1000" viewBox="0 0 1001 1000" fill="none" xmlns="http://www.w3.org/2000/svg">
<g clip-path="url(#clip0_42_11474)">
<path d="M936.588 499.75C936.588 740.954 741.052 936.501 499.837 936.501C258.623 936.501 63.0977 740.954 63.0977 499.75C63.0977 258.547 258.634 63 499.848 63C741.062 63 936.599 258.536 936.599 499.75" fill="#101820"/>
<path d="M555.973 399.461L476.134 475.119C470.711 480.251 474.557 489.034 482.216 489.034H563.233C565.816 489.034 568.3 488.04 570.169 486.269L661.774 399.461H555.973Z" fill="#FB91A3"/>
<path d="M370.334 499.75L279.183 586.126C273.77 591.257 277.605 600.041 285.265 600.041H370.312L474.189 501.597C474.892 500.928 474.416 499.75 473.455 499.75H370.344H370.334Z" fill="#FB91A3"/>
<path d="M370.333 399.461L279.183 485.837C273.77 490.968 277.605 499.752 285.265 499.752H370.312L476.145 399.461H370.344H370.333Z" fill="#FB91A3"/>
<path d="M555.973 600.042L476.134 524.384C470.711 519.252 474.557 510.469 482.216 510.469H563.233C565.816 510.469 568.3 511.463 570.169 513.234L661.774 600.042H555.973Z" fill="#FB91A3"/>
<path d="M697.016 399.461H695.698C695.698 414.532 683.436 426.794 668.365 426.794V428.112C683.436 428.112 695.698 440.375 695.698 455.446H697.016C697.016 440.375 709.278 428.112 724.36 428.112V426.794C709.289 426.794 697.016 414.532 697.016 399.461Z" fill="#FB91A3"/>
<path d="M794.162 205.428C715.544 126.809 611.018 83.5078 499.848 83.5078C388.678 83.5078 284.141 126.809 205.523 205.428C126.904 284.046 83.603 388.572 83.603 499.753C83.603 610.934 126.904 715.46 205.512 794.078C284.131 872.697 388.656 915.987 499.837 915.987C611.018 915.987 715.544 872.686 794.162 794.078C872.781 715.46 916.071 610.934 916.071 499.753C916.071 388.572 872.781 284.046 794.162 205.428ZM209.239 209.155C286.864 131.53 390.072 88.78 499.848 88.78C609.624 88.78 712.821 131.53 790.446 209.155C867.444 286.153 910.108 388.334 910.788 497.117H813.307C812.626 414.371 780.107 336.671 721.518 278.082C662.314 218.878 583.587 186.262 499.848 186.262C416.109 186.262 337.393 218.867 278.178 278.082C219.589 336.671 187.07 414.371 186.389 497.117H88.9076C89.5883 388.323 132.241 286.153 209.25 209.155M808.067 499.753C808.067 582.077 776.001 659.486 717.791 717.696C659.581 775.906 582.172 807.972 499.848 807.972C417.524 807.972 340.115 775.906 281.905 717.696C223.695 659.486 191.629 582.077 191.629 499.753C191.629 417.429 223.684 340.02 281.905 281.81C340.115 223.599 417.524 191.534 499.848 191.534C582.172 191.534 659.581 223.599 717.791 281.81C776.001 340.02 808.067 417.429 808.067 499.753ZM790.446 790.351C712.821 867.975 609.624 910.726 499.848 910.726C390.072 910.726 286.875 867.975 209.25 790.351C132.241 713.342 89.5883 611.171 88.9076 502.378H186.389C187.07 585.124 219.589 662.824 278.178 721.412C337.393 780.627 416.109 813.233 499.848 813.233C583.587 813.233 662.303 780.627 721.518 721.412C780.107 662.824 812.626 585.124 813.307 502.378H910.788C910.108 611.171 867.455 713.342 790.446 790.34" fill="#FB91A3"/>
<path d="M251.244 264.006L244.924 272.034L221.901 272.358L207.143 291.102L221.21 302.176L215.938 308.874L182.457 282.524L187.718 275.826L201.115 286.359L215.613 267.95L211.443 245.694L217.763 237.656L222.766 264.363L251.244 264.006Z" fill="#FB91A3"/>
<path d="M299.547 212.867C299.547 212.867 304.636 218.615 298.543 223.671L264.425 251.944C258.515 256.838 253.621 250.939 253.621 250.939L231.322 224.038L237.88 218.604L260.179 245.505L292.99 218.312L270.691 191.411L277.249 185.977L299.547 212.878V212.867Z" fill="#FB91A3"/>
<path d="M306.808 167.908L355.705 179.284L340.958 150.449L348.542 146.57L367.946 184.502L360.362 188.391L311.475 177.015L326.211 205.85L318.627 209.729L299.223 171.797L306.808 167.908Z" fill="#FB91A3"/>
<path d="M379.87 135.93L371.794 138.656L385.42 179.029L393.497 176.303L379.87 135.93Z" fill="#FB91A3"/>
<path d="M466.194 142.028L467.955 152.097C467.955 152.097 469.273 159.649 460.89 161.119L410.534 169.934L409.216 162.383L459.572 153.567L457.811 143.498L415.849 150.844C407.455 152.314 406.137 144.762 406.137 144.762L404.516 135.525C404.516 135.525 403.187 127.973 411.582 126.503L461.106 117.828L462.435 125.38L412.911 134.044L414.531 143.282L456.493 135.935C464.887 134.466 466.205 142.018 466.205 142.018" fill="#FB91A3"/>
<path d="M547.33 126.637L546.682 140.25C546.682 140.25 546.315 147.909 537.802 147.499L495.246 145.468L494.598 159.091L486.084 158.681L488.115 116.125L539.184 118.567C547.698 118.977 547.33 126.637 547.33 126.637ZM496.261 124.195L495.613 137.808L538.169 139.839L538.817 126.226L496.261 124.195Z" fill="#FB91A3"/>
<path d="M627.364 146.266L620.082 172.541C620.082 172.541 618.03 179.931 609.819 177.651L568.754 166.264C560.543 163.984 562.596 156.595 562.596 156.595L569.878 130.32C569.878 130.32 571.93 122.93 580.141 125.21L621.206 136.597C629.417 138.877 627.364 146.266 627.364 146.266ZM578.088 132.6L570.807 158.874L611.872 170.261L619.153 143.987L578.088 132.6Z" fill="#FB91A3"/>
<path d="M679.265 210.923L676.748 194.07L647.502 178.275L641.02 190.267L633.522 186.215L653.779 148.727L698.766 173.035C706.264 177.086 702.623 183.839 702.623 183.839L696.141 195.831C696.141 195.831 692.5 202.583 684.991 198.532L687.509 215.385L679.255 210.934L679.265 210.923ZM695.125 179.776L657.636 159.519L651.154 171.522L688.643 191.779L695.125 179.776Z" fill="#FB91A3"/>
<path d="M763.361 232.567L743.806 216.091L721.291 242.809L714.766 237.31L737.292 210.603L717.748 194.116L722.685 188.25L768.298 226.7L763.361 232.567Z" fill="#FB91A3"/>
<path d="M799.305 303.364L791.235 309.641C791.235 309.641 785.185 314.351 779.945 307.631L748.539 267.28L754.589 262.569L785.995 302.91L794.065 296.633L767.888 263.012C762.659 256.292 768.709 251.582 768.709 251.582L776.11 245.823C776.11 245.823 782.16 241.113 787.4 247.833L818.287 287.504L812.237 292.215L781.349 252.543L773.96 258.302L800.137 291.923C805.377 298.654 799.316 303.364 799.316 303.364" fill="#FB91A3"/>
<path d="M213.842 757.685L207.64 749.561L213.075 727.186L198.608 708.215L184.38 719.073L179.205 712.299L213.085 686.445L218.25 693.219L204.702 703.558L218.919 722.195L241.51 723.707L247.722 731.842L220.605 730.017L213.842 757.685Z" fill="#FB91A3"/>
<path d="M277.508 804.371C277.508 804.371 272.722 810.367 266.693 805.224L233.007 776.443C227.173 771.463 232.154 765.629 232.154 765.629L254.852 739.062L261.335 744.594L238.636 771.16L271.036 798.839L293.735 772.273L300.217 777.805L277.519 804.371H277.508Z" fill="#FB91A3"/>
<path d="M321.803 791.083L340.515 837.658L355.684 809.05L363.214 813.036L343.248 850.687L335.718 846.69L317.017 800.115L301.838 828.723L294.318 824.726L314.284 787.086L321.803 791.083Z" fill="#FB91A3"/>
<path d="M380.579 818.779L366.334 858.938L374.368 861.787L388.613 821.629L380.579 818.779Z" fill="#FB91A3"/>
<path d="M459.55 863.685L457.638 873.733C457.638 873.733 456.201 881.263 447.828 879.675L397.602 870.103L399.039 862.562L449.265 872.134L451.177 862.086L409.324 854.113C400.951 852.514 402.388 844.984 402.388 844.984L404.138 835.779C404.138 835.779 405.575 828.249 413.948 829.837L463.342 839.247L461.906 846.777L412.511 837.367L410.761 846.572L452.614 854.545C460.987 856.144 459.55 863.674 459.55 863.674" fill="#FB91A3"/>
<path d="M540.794 846.366L541.237 859.989C541.237 859.989 541.486 867.66 532.972 867.93L490.384 869.324L490.827 882.947L482.314 883.228L480.92 840.64L532.022 838.976C540.546 838.695 540.794 846.366 540.794 846.366ZM489.693 848.03L490.136 861.664L532.724 860.27L532.281 846.647L489.693 848.041V848.03Z" fill="#FB91A3"/>
<path d="M615.113 828.77L622.016 855.152C622.016 855.152 623.961 862.575 615.707 864.725L574.48 875.507C566.237 877.667 564.292 870.245 564.292 870.245L557.389 843.863C557.389 843.863 555.444 836.44 563.698 834.291L604.925 823.508C613.168 821.359 615.113 828.77 615.113 828.77ZM565.643 841.702L572.546 868.085L613.773 857.313L606.87 830.931L565.643 841.713V841.702Z" fill="#FB91A3"/>
<path d="M694.541 829.082L679.168 821.714L649.695 837.076L655.994 849.166L648.431 853.109L628.747 815.318L674.09 791.69C681.653 787.747 685.196 794.553 685.196 794.553L691.495 806.642C691.495 806.642 695.038 813.449 687.487 817.381L702.86 824.749L694.552 829.082H694.541ZM677.634 798.486L639.842 818.17L646.141 830.259L683.932 810.564L677.634 798.475V798.486Z" fill="#FB91A3"/>
<path d="M742.013 749.814L722.221 765.998L744.336 793.04L737.746 798.441L715.63 771.389L695.838 787.573L690.976 781.642L737.151 743.883L742.013 749.814Z" fill="#FB91A3"/>
<path d="M801.574 704.981L809.547 711.387C809.547 711.387 815.532 716.184 810.195 722.828L778.184 762.694L772.199 757.897L804.21 718.032L796.237 711.636L769.563 744.857C764.226 751.501 758.251 746.694 758.251 746.694L750.937 740.827C750.937 740.827 744.952 736.031 750.289 729.386L781.76 690.18L787.734 694.987L756.263 734.194L763.577 740.06L790.252 706.839C795.589 700.195 801.563 704.992 801.563 704.992" fill="#FB91A3"/>
</g>
<defs>
<clipPath id="clip0_42_11474">
<rect width="873.49" height="873.49" fill="white" transform="translate(63.0977 63)"/>
</clipPath>
</defs>
</svg>
