<svg width="1001" height="1000" viewBox="0 0 1001 1000" fill="none" xmlns="http://www.w3.org/2000/svg">
<g clip-path="url(#clip0_42_11510)">
<path d="M215.098 74V800.05L500.098 926.91L785.098 800.05V74H215.098Z" fill="#010101"/>
<path d="M775.358 793.728L500.098 916.248L224.838 793.728V83.7383H775.358V793.728Z" fill="white"/>
<path d="M233.358 92.2617V788.202L500.098 906.932L766.838 788.202V92.2617H233.358Z" fill="#010101"/>
<path d="M749.798 777.131L500.098 888.281L250.398 777.131V109.301H749.798V777.131Z" fill="white"/>
<path d="M279.798 293.93V758.32L328.048 780.02V611.79L426.298 655.7V293.93H279.798ZM377.738 565.31L328.738 543.43V342.47H377.738V565.31Z" fill="#010101"/>
<path d="M573.518 293.93V823.34L720.018 758.02V293.93H573.518ZM671.078 730.98L622.068 751.4V342.47H671.078V730.99V730.98Z" fill="#010101"/>
<path d="M524.538 337.199V845.599L500.098 856.009H500.088L475.598 845.629V337.199C483.068 340.609 491.348 342.469 500.088 342.469H500.098C508.808 342.469 517.078 340.609 524.538 337.199Z" fill="#010101"/>
<path d="M445.828 269.11H279.788V196.48H445.618V264.39C445.618 265.98 445.698 267.55 445.828 269.11Z" fill="#FDCF1F"/>
<path d="M720.388 196.48V269.11H554.318C554.458 267.55 554.528 265.98 554.528 264.39V196.48H720.388Z" fill="#FDCF1F"/>
<path d="M293.078 138.699V145.449H296.548V166.209H293.078V172.279H307.438V166.209H303.898V158.939H310.788V152.509H303.898V145.449H311.858V150.159H319.048V138.699H293.078Z" fill="#010101"/>
<path d="M347.678 138.701V144.801H351.248V158.721C351.248 160.081 351.098 161.211 350.838 162.121C350.568 163.021 350.168 163.741 349.668 164.271C349.158 164.811 348.538 165.201 347.828 165.411C347.108 165.631 346.318 165.741 345.438 165.741C344.558 165.741 343.818 165.611 343.118 165.351C342.408 165.091 341.788 164.681 341.278 164.121C340.758 163.561 340.358 162.841 340.068 161.951C339.778 161.061 339.628 159.991 339.628 158.711V144.791H342.708V138.691H329.248V144.791H332.278V158.251C332.278 160.511 332.618 162.531 333.298 164.321C333.978 166.101 334.908 167.621 336.078 168.861C337.258 170.111 338.638 171.061 340.218 171.721C341.788 172.381 343.488 172.711 345.308 172.711C347.128 172.711 348.858 172.381 350.458 171.711C352.068 171.051 353.448 170.081 354.648 168.811C355.838 167.541 356.768 165.991 357.448 164.151C358.128 162.311 358.468 160.211 358.468 157.851V144.791H361.148V138.691H347.688L347.678 138.701Z" fill="#010101"/>
<path d="M372.208 138.699V148.919H379.418V144.569H383.498V166.209H380.018V172.279H394.388V166.209H390.848V144.569H395.478V148.919H402.738V138.699H372.208Z" fill="#010101"/>
<path d="M441.058 158.088C440.408 157.058 439.548 156.178 438.438 155.468C439.488 154.808 440.288 153.958 440.858 152.898C441.428 151.828 441.708 150.488 441.708 148.858C441.708 147.478 441.448 146.168 440.938 144.938C440.428 143.698 439.718 142.628 438.808 141.698C437.888 140.778 436.798 140.048 435.538 139.508C434.268 138.958 432.888 138.688 431.368 138.688L415.008 138.648V144.788H418.438V166.198H415.008V172.268H431.858C433.298 172.268 434.628 172.008 435.878 171.498C437.108 170.988 438.188 170.268 439.088 169.358C439.998 168.438 440.718 167.338 441.238 166.058C441.758 164.788 442.018 163.388 442.018 161.868C442.018 160.348 441.698 159.118 441.058 158.068M425.798 144.778H431.068C431.478 144.778 431.868 144.888 432.238 145.118C432.598 145.348 432.928 145.638 433.198 146.018C433.478 146.378 433.698 146.798 433.858 147.258C434.018 147.708 434.098 148.168 434.098 148.618C434.098 149.088 434.008 149.558 433.858 149.978C433.698 150.418 433.478 150.808 433.198 151.158C432.928 151.498 432.598 151.778 432.238 151.988C431.868 152.198 431.478 152.288 431.068 152.288H425.798V144.768V144.778ZM434.208 163.718C434.048 164.208 433.828 164.618 433.548 164.988C433.278 165.348 432.948 165.648 432.578 165.868C432.198 166.088 431.798 166.198 431.368 166.198H425.798V158.388H431.368C431.778 158.388 432.188 158.488 432.558 158.678C432.918 158.888 433.248 159.148 433.548 159.508C433.828 159.848 434.048 160.268 434.208 160.728C434.368 161.188 434.448 161.698 434.448 162.238C434.448 162.778 434.358 163.258 434.208 163.738" fill="#010101"/>
<path d="M485.658 150.85C485.268 149.38 484.738 147.98 484.028 146.69C483.338 145.4 482.478 144.23 481.508 143.17C480.518 142.11 479.428 141.21 478.218 140.46C477.028 139.7 475.728 139.12 474.328 138.71C472.938 138.3 471.478 138.09 469.958 138.09C468.438 138.09 466.978 138.3 465.588 138.71C464.198 139.13 462.908 139.71 461.708 140.46C460.508 141.21 459.408 142.12 458.438 143.17C457.448 144.23 456.608 145.4 455.918 146.69C455.228 147.98 454.688 149.38 454.298 150.85C453.918 152.33 453.728 153.88 453.728 155.5C453.728 157.12 453.928 158.65 454.298 160.12C454.688 161.59 455.228 162.98 455.918 164.27C456.608 165.56 457.448 166.74 458.438 167.79C459.408 168.85 460.508 169.75 461.708 170.5C462.908 171.25 464.198 171.84 465.588 172.25C466.978 172.66 468.438 172.87 469.958 172.87C471.478 172.87 472.938 172.66 474.328 172.25C475.728 171.84 477.028 171.25 478.218 170.5C479.428 169.74 480.518 168.84 481.508 167.79C482.478 166.74 483.338 165.56 484.028 164.27C484.738 162.98 485.268 161.59 485.658 160.11C486.038 158.63 486.228 157.09 486.228 155.5C486.228 153.91 486.028 152.33 485.658 150.85ZM478.028 159.51C477.598 160.78 477.018 161.87 476.248 162.83C475.468 163.78 474.558 164.53 473.488 165.08C472.418 165.64 471.238 165.92 469.958 165.92C468.678 165.92 467.528 165.64 466.448 165.08C465.388 164.53 464.478 163.78 463.708 162.83C462.938 161.87 462.328 160.77 461.898 159.51C461.478 158.24 461.248 156.91 461.248 155.49C461.248 154.07 461.468 152.7 461.898 151.44C462.338 150.16 462.948 149.05 463.708 148.11C464.478 147.16 465.388 146.41 466.448 145.85C467.518 145.3 468.678 145.02 469.958 145.02C471.238 145.02 472.388 145.3 473.448 145.85C474.518 146.41 475.428 147.16 476.208 148.11C476.978 149.06 477.588 150.17 478.008 151.44C478.438 152.71 478.658 154.06 478.658 155.49C478.658 156.92 478.448 158.24 478.028 159.51Z" fill="#010101"/>
<path d="M519.378 159.939V164.439C519.378 164.619 519.338 164.829 519.248 165.039C519.158 165.249 519.048 165.439 518.908 165.609C518.778 165.789 518.608 165.929 518.418 166.049C518.238 166.159 518.058 166.209 517.858 166.209H510.538V144.799H514.078V138.699H499.718V144.799H503.188V166.209H499.718V172.279H526.558V159.939H519.378Z" fill="#010101"/>
<path d="M579.268 160.768C578.998 161.428 578.638 162.068 578.158 162.678C577.688 163.288 577.138 163.838 576.498 164.308C575.878 164.788 575.168 165.158 574.408 165.438C573.638 165.728 572.818 165.878 571.928 165.878C570.658 165.878 569.498 165.598 568.438 165.048C567.378 164.488 566.458 163.748 565.688 162.798C564.918 161.848 564.328 160.758 563.888 159.488C563.448 158.218 563.228 156.878 563.228 155.448C563.228 154.018 563.458 152.688 563.898 151.428C564.338 150.168 564.948 149.058 565.728 148.108C566.508 147.158 567.418 146.398 568.478 145.838C569.548 145.288 570.688 145.008 571.938 145.008C572.778 145.008 573.588 145.118 574.358 145.328C575.128 145.548 575.838 145.898 576.498 146.398C577.168 146.888 577.908 147.728 578.738 148.908H585.578V141.428H580.628C579.128 140.098 577.768 139.208 576.528 138.758C575.288 138.308 573.768 138.078 571.938 138.078C569.678 138.078 567.548 138.538 565.568 139.438C563.598 140.348 561.878 141.588 560.418 143.168C558.958 144.738 557.818 146.578 556.958 148.678C556.118 150.788 555.708 153.038 555.708 155.448C555.708 157.058 555.888 158.598 556.278 160.088C556.668 161.578 557.208 162.958 557.898 164.248C558.588 165.538 559.428 166.718 560.408 167.778C561.398 168.848 562.488 169.748 563.698 170.508C564.888 171.258 566.188 171.848 567.578 172.258C568.968 172.668 570.418 172.878 571.938 172.878C573.738 172.878 575.418 172.618 576.978 172.098C578.538 171.588 579.948 170.878 581.188 169.978C582.438 169.078 583.498 168.008 584.388 166.778C585.278 165.538 585.948 164.198 586.398 162.748L579.278 160.768H579.268Z" fill="#010101"/>
<path d="M619.898 159.939V164.439C619.898 164.619 619.848 164.829 619.768 165.039C619.688 165.249 619.558 165.439 619.428 165.609C619.278 165.789 619.128 165.929 618.938 166.049C618.748 166.159 618.558 166.209 618.368 166.209H611.068V144.799H614.608V138.699H600.238V144.799H603.718V166.209H600.238V172.279H627.078V159.939H619.908H619.898Z" fill="#010101"/>
<path d="M656.158 138.701V144.801H659.728V158.721C659.728 160.081 659.598 161.211 659.328 162.121C659.048 163.021 658.658 163.741 658.148 164.271C657.638 164.811 657.028 165.201 656.308 165.411C655.588 165.631 654.798 165.741 653.938 165.741C653.078 165.741 652.318 165.611 651.618 165.351C650.898 165.091 650.288 164.681 649.768 164.121C649.258 163.561 648.858 162.841 648.568 161.951C648.288 161.061 648.138 159.991 648.138 158.711V144.791H651.218V138.691H637.748V144.791H640.788V158.251C640.788 160.511 641.128 162.531 641.798 164.321C642.478 166.101 643.408 167.621 644.588 168.861C645.758 170.111 647.128 171.061 648.718 171.721C650.298 172.381 651.988 172.711 653.818 172.711C655.648 172.711 657.358 172.381 658.968 171.711C660.558 171.051 661.958 170.081 663.158 168.811C664.338 167.541 665.278 165.991 665.958 164.151C666.638 162.311 666.968 160.211 666.968 157.851V144.791H669.658V138.691H656.188L656.158 138.701Z" fill="#010101"/>
<path d="M708.808 158.088C708.158 157.058 707.288 156.178 706.178 155.468C707.228 154.808 708.038 153.958 708.598 152.898C709.168 151.828 709.448 150.488 709.448 148.858C709.448 147.478 709.188 146.168 708.688 144.938C708.178 143.698 707.458 142.628 706.548 141.698C705.638 140.778 704.538 140.048 703.288 139.508C702.018 138.958 700.618 138.688 699.118 138.688L682.748 138.648V144.788H686.178V166.198H682.748V172.268H699.608C701.028 172.268 702.368 172.008 703.618 171.498C704.858 170.988 705.928 170.268 706.838 169.358C707.738 168.438 708.458 167.338 708.978 166.058C709.498 164.788 709.768 163.388 709.768 161.868C709.768 160.348 709.438 159.118 708.808 158.068M693.528 144.778H698.798C699.208 144.778 699.598 144.888 699.978 145.118C700.338 145.348 700.658 145.638 700.938 146.018C701.208 146.378 701.428 146.798 701.588 147.258C701.758 147.708 701.828 148.168 701.828 148.618C701.828 149.088 701.758 149.558 701.588 149.978C701.428 150.418 701.208 150.808 700.938 151.158C700.658 151.498 700.338 151.778 699.978 151.988C699.598 152.198 699.208 152.288 698.798 152.288H693.528V144.768V144.778ZM701.938 163.718C701.778 164.208 701.558 164.618 701.288 164.988C701.008 165.348 700.688 165.648 700.318 165.868C699.938 166.088 699.538 166.198 699.118 166.198H693.528V158.388H699.118C699.518 158.388 699.918 158.488 700.298 158.678C700.678 158.888 701.008 159.148 701.288 159.508C701.568 159.848 701.788 160.268 701.948 160.728C702.118 161.188 702.188 161.698 702.188 162.238C702.188 162.778 702.118 163.258 701.948 163.738" fill="#010101"/>
<path d="M332.938 228.169V219.809H313.428V224.689H316.008V239.909H313.428V244.339H332.938V235.549H327.668V239.909H321.378V234.219H326.248V229.539H321.378V224.689H327.668V228.169H332.938Z" fill="#010101"/>
<path d="M356.718 228.148V223.258H355.098C354.858 222.728 354.488 222.198 354.028 221.698C353.558 221.198 352.978 220.748 352.308 220.358C351.628 219.968 350.868 219.658 350.018 219.428C349.168 219.198 348.228 219.078 347.228 219.078C345.948 219.078 344.778 219.248 343.718 219.568C342.648 219.898 341.718 220.368 340.948 220.988C340.168 221.608 339.568 222.388 339.138 223.288C338.708 224.198 338.488 225.248 338.488 226.408C338.488 227.418 338.638 228.308 338.938 229.088C339.228 229.868 339.628 230.558 340.128 231.128C340.628 231.708 341.208 232.198 341.858 232.588C342.518 232.978 343.198 233.278 343.888 233.488L347.598 234.698C347.928 234.808 348.268 234.918 348.608 235.048C348.958 235.178 349.268 235.338 349.548 235.528C349.828 235.718 350.058 235.958 350.238 236.218C350.408 236.498 350.508 236.838 350.508 237.248C350.508 238.038 350.248 238.668 349.738 239.108C349.238 239.558 348.498 239.788 347.518 239.788C346.888 239.788 346.328 239.698 345.848 239.528C345.378 239.358 344.988 239.128 344.668 238.818C344.368 238.518 344.118 238.158 343.958 237.748C343.808 237.348 343.728 236.898 343.728 236.408V235.408H337.878V240.278H339.548C339.838 240.968 340.238 241.608 340.768 242.168C341.278 242.718 341.888 243.188 342.568 243.588C343.258 243.988 344.028 244.298 344.868 244.498C345.698 244.718 346.588 244.818 347.518 244.818C348.858 244.818 350.078 244.618 351.178 244.228C352.278 243.838 353.228 243.308 353.998 242.598C354.788 241.888 355.398 241.048 355.838 240.078C356.278 239.088 356.498 238.008 356.498 236.828C356.498 235.948 356.388 235.158 356.158 234.468C355.928 233.758 355.618 233.138 355.238 232.608C354.838 232.058 354.378 231.608 353.838 231.228C353.288 230.848 352.718 230.548 352.098 230.338L347.658 228.838C347.278 228.718 346.888 228.598 346.488 228.488C346.088 228.378 345.718 228.228 345.388 228.048C345.058 227.868 344.788 227.638 344.588 227.338C344.378 227.058 344.268 226.668 344.268 226.178C344.268 225.788 344.358 225.458 344.498 225.178C344.658 224.898 344.868 224.668 345.128 224.488C345.398 224.318 345.698 224.188 346.068 224.098C346.418 224.008 346.798 223.958 347.208 223.958C347.658 223.958 348.098 224.028 348.508 224.178C348.918 224.308 349.298 224.508 349.628 224.748C349.958 224.988 350.228 225.268 350.428 225.608C350.638 225.938 350.768 226.298 350.828 226.678V228.098H356.678L356.718 228.148Z" fill="#010101"/>
<path d="M361.018 219.809V227.269H366.288V224.099H369.268V239.909H366.728V244.339H377.228V239.909H374.638V224.099H378.018V227.269H383.328V219.809H361.018Z" fill="#010101"/>
<path d="M389.778 240.5C389.618 240.11 389.388 239.77 389.108 239.49C388.818 239.2 388.488 238.98 388.098 238.81C387.718 238.64 387.318 238.57 386.888 238.57C386.458 238.57 386.038 238.64 385.648 238.81C385.258 238.98 384.928 239.21 384.638 239.5C384.358 239.79 384.128 240.12 383.978 240.5C383.818 240.88 383.738 241.28 383.738 241.72C383.738 242.16 383.818 242.57 383.978 242.95C384.128 243.34 384.358 243.67 384.638 243.95C384.928 244.23 385.258 244.45 385.638 244.62C386.028 244.79 386.438 244.88 386.888 244.88C387.338 244.88 387.728 244.79 388.108 244.62C388.488 244.45 388.818 244.23 389.098 243.95C389.378 243.67 389.608 243.34 389.768 242.95C389.938 242.56 390.028 242.15 390.028 241.72C390.028 241.29 389.938 240.89 389.788 240.5" fill="#010101"/>
<path d="M616.978 231.812C617.648 231.072 618.168 230.292 618.568 229.472C618.958 228.652 619.158 227.772 619.158 226.822C619.158 225.612 618.938 224.562 618.508 223.642C618.088 222.732 617.498 221.952 616.758 221.332C616.018 220.712 615.168 220.232 614.198 219.912C613.238 219.582 612.218 219.422 611.148 219.422C610.018 219.422 608.958 219.602 607.958 219.962C606.968 220.312 606.108 220.842 605.368 221.522C604.628 222.202 604.048 223.052 603.628 224.052C603.218 225.052 602.998 226.182 602.998 227.452H607.878C607.878 227.022 607.968 226.612 608.098 226.222C608.248 225.832 608.438 225.502 608.708 225.212C608.978 224.922 609.308 224.692 609.688 224.522C610.078 224.352 610.538 224.282 611.078 224.282C611.518 224.282 611.918 224.352 612.258 224.492C612.608 224.642 612.918 224.832 613.148 225.072C613.388 225.312 613.588 225.592 613.708 225.902C613.838 226.202 613.898 226.522 613.898 226.842C613.898 227.572 613.708 228.292 613.298 229.012C612.898 229.722 612.338 230.432 611.608 231.142L603.128 240.152V244.362H619.138V239.392H609.998L616.988 231.832L616.978 231.812Z" fill="#010101"/>
<path d="M643.378 227.162C643.038 225.652 642.498 224.322 641.738 223.192C640.978 222.062 640.008 221.162 638.788 220.502C637.568 219.842 636.098 219.512 634.348 219.512C632.598 219.512 631.088 219.852 629.868 220.512C628.648 221.182 627.668 222.092 626.908 223.242C626.158 224.402 625.608 225.732 625.268 227.262C624.938 228.782 624.768 230.412 624.768 232.142C624.768 233.872 624.948 235.512 625.288 237.032C625.638 238.542 626.198 239.852 626.958 240.972C627.728 242.092 628.708 242.972 629.918 243.602C631.128 244.232 632.598 244.562 634.318 244.562C636.038 244.562 637.518 244.232 638.738 243.562C639.958 242.902 640.958 242.012 641.708 240.882C642.478 239.752 643.028 238.422 643.378 236.892C643.728 235.372 643.898 233.742 643.898 232.002C643.898 230.262 643.728 228.682 643.388 227.162M638.498 235.042C638.418 235.962 638.218 236.772 637.918 237.442C637.628 238.112 637.188 238.652 636.618 239.022C636.058 239.412 635.288 239.602 634.328 239.602C633.368 239.602 632.608 239.402 632.038 239.022C631.478 238.642 631.038 238.112 630.748 237.442C630.458 236.772 630.258 235.972 630.168 235.042C630.078 234.122 630.038 233.102 630.038 232.012C630.038 230.922 630.088 229.952 630.168 229.032C630.268 228.112 630.458 227.302 630.768 226.622C631.058 225.942 631.498 225.402 632.068 225.012C632.638 224.622 633.408 224.432 634.368 224.432C635.328 224.432 636.068 224.622 636.648 225.012C637.208 225.402 637.648 225.932 637.938 226.622C638.238 227.302 638.428 228.102 638.508 229.032C638.598 229.952 638.638 230.942 638.638 232.012C638.638 233.082 638.588 234.122 638.508 235.042" fill="#010101"/>
<path d="M663.618 231.812C664.288 231.072 664.818 230.292 665.208 229.472C665.608 228.652 665.808 227.772 665.808 226.822C665.808 225.612 665.588 224.562 665.158 223.642C664.718 222.732 664.138 221.952 663.398 221.332C662.668 220.712 661.818 220.232 660.838 219.912C659.878 219.582 658.868 219.422 657.798 219.422C656.668 219.422 655.608 219.602 654.608 219.962C653.618 220.312 652.748 220.842 652.018 221.522C651.278 222.202 650.688 223.052 650.278 224.052C649.848 225.052 649.648 226.182 649.648 227.452H654.518C654.528 227.022 654.608 226.612 654.748 226.222C654.878 225.832 655.088 225.502 655.358 225.212C655.618 224.922 655.938 224.692 656.338 224.522C656.728 224.352 657.188 224.282 657.718 224.282C658.168 224.282 658.558 224.352 658.908 224.492C659.258 224.642 659.548 224.832 659.798 225.072C660.038 225.312 660.228 225.592 660.358 225.902C660.488 226.202 660.548 226.522 660.548 226.842C660.548 227.572 660.338 228.292 659.948 229.012C659.548 229.722 658.978 230.432 658.248 231.142L649.778 240.152V244.362H665.768V239.392H656.628L663.618 231.832V231.812Z" fill="#010101"/>
<path d="M685.988 231.812C686.658 231.072 687.198 230.292 687.578 229.472C687.978 228.652 688.178 227.772 688.178 226.822C688.178 225.612 687.958 224.562 687.528 223.642C687.088 222.732 686.508 221.952 685.758 221.332C685.028 220.712 684.178 220.232 683.198 219.912C682.238 219.582 681.228 219.422 680.158 219.422C679.028 219.422 677.968 219.602 676.968 219.962C675.968 220.312 675.108 220.842 674.378 221.522C673.638 222.202 673.048 223.052 672.638 224.052C672.208 225.052 672.008 226.182 672.008 227.452H676.878C676.888 227.022 676.968 226.612 677.108 226.222C677.238 225.832 677.448 225.502 677.708 225.212C677.978 224.922 678.308 224.692 678.708 224.522C679.098 224.352 679.558 224.282 680.088 224.282C680.538 224.282 680.928 224.352 681.278 224.492C681.628 224.642 681.918 224.832 682.168 225.072C682.408 225.312 682.598 225.592 682.728 225.902C682.848 226.202 682.918 226.522 682.918 226.842C682.918 227.572 682.708 228.292 682.318 229.012C681.918 229.722 681.348 230.432 680.618 231.142L672.148 240.152V244.362H688.138V239.392H678.998L685.988 231.832V231.812Z" fill="#010101"/>
<path d="M545.278 264.39C545.278 265.98 545.188 267.56 545.038 269.11C542.658 291.82 523.418 309.58 500.098 309.59H500.078C476.738 309.59 457.488 291.82 455.118 269.11C454.958 267.56 454.868 265.98 454.868 264.39V205.73H545.278V264.39Z" fill="#FFFCEF"/>
<path d="M445.618 196.48V264.39C445.618 265.98 445.698 267.55 445.828 269.11C448.208 296.97 471.598 318.84 500.078 318.84H500.098C528.568 318.83 551.938 296.97 554.318 269.11C554.458 267.55 554.528 265.98 554.528 264.39V196.48H445.618ZM500.098 309.59H500.078C476.738 309.59 457.488 291.82 455.118 269.11C454.958 267.56 454.868 265.98 454.868 264.39V205.73H545.278V264.39C545.278 265.98 545.188 267.56 545.038 269.11C542.658 291.82 523.418 309.58 500.098 309.59Z" fill="#010101"/>
<path d="M545.278 205.73V264.39C545.278 265.98 545.188 267.56 545.038 269.11C542.658 291.82 523.418 309.58 500.098 309.59H500.078C476.738 309.59 457.488 291.82 455.118 269.11C454.958 267.56 454.868 265.98 454.868 264.39V205.73H545.278Z" fill="#FFFCEF"/>
<path d="M508.878 244.33C511.068 244.33 512.838 242.56 512.838 240.37C512.838 238.18 511.068 236.41 508.878 236.41C506.688 236.41 504.918 238.18 504.918 240.37C504.918 242.56 506.688 244.33 508.878 244.33Z" fill="#010101"/>
<path d="M523.848 234.999C522.508 231.519 519.958 228.649 516.688 226.909C518.218 225.259 519.168 223.039 519.168 220.609V211.199H514.548C511.028 211.199 507.948 213.169 506.378 216.069C505.988 216.019 505.598 215.979 505.198 215.979H495.788V220.599C495.788 222.929 496.648 225.039 498.068 226.669C493.998 228.859 491.228 233.169 491.228 238.109V238.199C478.498 240.829 468.908 252.109 468.908 265.609C468.908 266.789 468.978 267.959 469.138 269.099C470.848 282.889 482.648 293.599 496.898 293.599C497.978 293.599 499.048 293.539 500.098 293.399C512.878 291.949 523.068 281.839 524.648 269.089C524.808 267.949 524.878 266.779 524.878 265.599V250.779C525.288 250.999 525.758 251.129 526.258 251.129C527.848 251.129 529.158 249.829 529.158 248.229C529.158 246.629 527.858 245.329 526.258 245.329H524.878V244.169H531.878C532.308 244.169 532.648 243.809 532.608 243.389C532.218 238.799 528.478 235.199 523.848 234.979M504.228 234.339H509.488C512.888 234.339 515.648 237.099 515.648 240.499V248.109H510.488C504.978 248.109 500.478 243.619 500.478 238.099C500.478 236.029 502.158 234.339 504.228 234.339ZM500.098 284.059C499.058 284.239 497.988 284.339 496.898 284.339C487.758 284.339 480.128 277.749 478.488 269.089C478.268 267.959 478.158 266.789 478.158 265.599C478.158 256.419 484.778 248.769 493.498 247.159C495.058 250.069 497.348 252.529 500.108 254.299C503.098 256.229 506.668 257.349 510.488 257.349H515.648V265.589C515.648 266.779 515.538 267.949 515.318 269.079C513.868 276.709 507.788 282.719 500.108 284.049" fill="#010101"/>
<path d="M491.048 270.759C489.488 269.199 488.628 267.119 488.628 264.919C488.628 262.719 489.488 260.639 491.048 259.079L486.688 254.719C483.958 257.449 482.458 261.069 482.458 264.919C482.458 268.769 483.958 272.399 486.688 275.119C489.498 277.929 493.198 279.339 496.888 279.339C500.578 279.339 504.278 277.929 507.088 275.119L502.728 270.759C499.508 273.979 494.258 273.979 491.038 270.759" fill="#010101"/>
</g>
<defs>
<clipPath id="clip0_42_11510">
<rect width="570" height="852.91" fill="white" transform="translate(215.098 74)"/>
</clipPath>
</defs>
</svg>
