<svg width="1001" height="1000" viewBox="0 0 1001 1000" fill="none" xmlns="http://www.w3.org/2000/svg">
<path d="M822.375 158.727C724.305 116.097 616.355 89.9766 499.755 89.9766C383.155 89.9766 275.215 116.097 177.145 158.727C154.535 247.737 142.375 332.067 142.095 385.737C141.805 443.177 150.105 499.217 166.855 552.397C183.015 603.697 207.115 652.377 238.385 696.967C269.145 740.827 307.055 781.067 351.125 816.577C392.535 850.057 448.615 886.697 499.765 908.137C550.915 886.697 606.995 850.057 648.405 816.577C692.475 781.077 730.385 740.827 761.145 696.967C792.405 652.387 816.515 603.697 832.675 552.397C849.425 499.217 857.725 443.177 857.435 385.737C857.155 332.067 844.995 247.737 822.385 158.727H822.375Z" fill="#73233E"/>
<path d="M769.935 143.127C687.805 100.537 597.405 74.4375 499.755 74.4375C402.105 74.4375 311.715 100.537 229.585 143.127C210.645 232.068 200.465 316.318 200.225 369.948C199.985 427.338 206.935 483.327 220.965 536.457C234.495 587.708 254.685 636.348 280.865 680.898C306.625 724.718 338.375 764.927 375.275 800.398C409.955 833.848 456.925 870.458 499.755 891.878C542.585 870.448 589.555 833.848 624.235 800.398C661.145 764.927 692.885 724.718 718.645 680.898C744.825 636.348 765.015 587.708 778.545 536.457C792.565 483.327 799.515 427.328 799.285 369.948C799.045 316.318 788.865 232.068 769.935 143.127Z" fill="#C4914F"/>
<path d="M761.625 142.107C682.025 100.147 594.405 74.4375 499.755 74.4375C405.105 74.4375 317.495 100.147 237.895 142.107C219.535 229.728 209.665 312.738 209.435 365.568C209.205 422.108 215.935 477.267 229.535 529.617C242.655 580.107 262.215 628.037 287.595 671.927C312.565 715.107 343.335 754.717 379.105 789.667C412.725 822.628 458.245 858.688 499.755 879.797C541.275 858.688 586.795 822.628 620.405 789.667C656.175 754.717 686.945 715.107 711.915 671.927C737.295 628.037 756.855 580.117 769.975 529.617C783.565 477.267 790.305 422.108 790.075 365.568C789.845 312.738 779.975 229.728 761.625 142.107Z" fill="black"/>
<path d="M499.755 925.46L493.575 922.87C446.225 903.02 389.215 867.93 341.065 829C295.895 792.61 256.935 751.27 225.295 706.14C193.045 660.15 168.255 610.04 151.615 557.2C134.395 502.53 125.815 444.82 126.105 385.66C126.415 327.51 139.705 241.21 161.655 154.79L163.585 147.19L170.775 144.07C277.745 97.58 388.425 74 499.755 74C611.085 74 721.765 97.58 828.745 144.07L835.935 147.19L837.865 154.79C859.815 241.21 873.105 327.52 873.405 385.65C873.695 444.81 865.125 502.53 847.905 557.19C831.255 610.03 806.465 660.14 774.215 706.13C742.575 751.26 703.615 792.6 658.425 829.01C610.295 867.92 553.285 903.01 505.935 922.86L499.755 925.45V925.46ZM190.725 170.29C170.805 250.67 158.355 332.64 158.075 385.83C157.795 441.67 165.885 496.1 182.095 547.6C197.755 597.31 221.095 644.48 251.465 687.79C281.385 730.46 318.285 769.6 361.145 804.13C405.005 839.59 456.295 871.6 499.765 890.74C543.235 871.59 594.525 839.59 638.365 804.14C681.245 769.6 718.145 730.45 748.065 687.78C778.435 644.47 801.775 597.3 817.435 547.59C833.655 496.09 841.735 441.66 841.455 385.81C841.175 332.64 828.725 250.66 808.805 170.28C708.115 127.6 604.185 105.96 499.755 105.96C395.325 105.96 291.395 127.6 190.725 170.29Z" fill="#C4914F"/>
<path d="M734.305 528.257C738.065 522.647 729.365 552.857 716.985 579.287C704.855 605.187 689.385 627.907 687.545 630.567C687.435 630.727 687.245 630.807 687.045 630.757C684.195 630.097 663.385 623.997 678.625 589.437C691.525 560.177 663.835 544.027 651.635 538.537C651.115 538.297 651.365 537.507 651.935 537.627C661.265 539.577 680.165 543.067 693.995 542.547C713.055 541.817 726.625 539.727 734.295 528.257H734.305Z" fill="#C4914F"/>
<path d="M510.945 344.726C469.505 380.576 495.495 453.386 578.215 467.336C579.335 467.526 579.855 468.846 579.155 469.746C572.875 477.916 569.235 497.836 580.085 516.866C595.875 544.576 632.995 550.606 639.435 571.806C677.545 697.266 484.415 626.996 492.255 826.096C492.315 827.586 490.745 827.926 489.525 827.076C336.605 721.426 443.775 604.706 499.285 584.736C500.685 584.236 500.605 582.226 499.165 581.846C484.825 577.996 452.445 574.526 424.975 595.686C389.705 622.856 379.115 657.786 380.185 709.476C380.215 710.766 378.545 711.386 377.505 710.616C369.455 704.596 316.555 669.446 325.435 596.796C330.355 556.566 357.045 506.426 439.745 491.076C441.125 490.816 441.435 488.996 440.235 488.276C426.785 480.156 380.965 475.046 336.455 504.946C294.345 533.236 287.105 588.466 285.575 603.746C285.435 605.166 283.585 605.626 282.795 604.436C258.035 567.196 273.625 491.876 300.625 442.046C334.545 379.436 420.145 333.586 510.055 342.086C511.385 342.216 511.935 343.866 510.935 344.736L510.945 344.726Z" fill="#C4914F"/>
<path d="M741.435 439.807C737.315 436.628 718.855 422.327 709.015 412.427C699.395 402.757 688.485 389.927 672.505 377.217C666.205 372.207 668.755 363.357 655.205 349.737C641.655 336.117 633.525 329.818 625.055 321.298C620.925 317.138 619.335 309.387 618.805 302.537C618.155 294.267 581.885 273.188 501.265 273.188C420.645 273.188 371.375 289.848 355.435 304.098C354.755 304.698 355.455 305.787 356.275 305.417C367.795 300.257 388.085 292.688 413.675 294.048C414.305 294.078 414.375 294.987 413.755 295.107C400.625 297.667 350.155 306.327 318.095 350.147C294.245 382.737 285.165 404.348 282.645 413.978C282.325 415.218 283.915 416.017 284.725 415.017C300.715 395.437 379.225 316.118 480.935 318.798C518.685 319.798 542.195 326.017 567.075 340.177C567.545 340.447 567.365 341.167 566.825 341.177C558.425 341.227 534.445 342.957 526.065 370.767C517.445 399.377 531.155 427.477 577.015 443.427C590.045 447.767 605.945 450.497 620.075 450.098C621.615 450.058 622.625 451.688 621.865 453.027C617.045 461.527 606.005 483.387 612.695 494.467C621.365 508.827 651.925 527.597 709.395 516.107C744.155 509.157 752.825 496.288 751.565 477.038C750.875 466.388 725.695 479.628 711.675 466.217C709.185 463.837 705.115 447.527 707.675 448.857C725.975 453.187 747.305 457.278 755.865 453.818C759.185 452.268 745.235 442.758 741.425 439.818L741.435 439.807ZM651.235 398.598C640.975 392.268 609.695 373.957 582.285 368.237C581.685 368.107 581.785 367.218 582.395 367.228C606.515 367.288 630.765 368.478 636.555 368.788C636.805 368.798 637.235 372.307 641.675 381.547C646.115 390.787 651.495 398.767 651.235 398.607V398.598Z" fill="#C4914F"/>
<path d="M612.295 189.188C612.165 189.188 612.025 189.208 611.885 189.208C603.455 189.208 596.615 182.858 596.615 175.018C596.615 169.448 600.075 164.638 605.105 162.318C605.825 161.988 606.135 161.188 605.785 160.528C604.175 157.578 601.465 155.228 598.165 153.948C598.235 153.598 598.285 153.248 598.285 152.878C598.285 149.868 595.655 147.418 592.405 147.418C589.155 147.418 586.535 149.858 586.535 152.878C586.535 152.948 586.535 153.008 586.535 153.078C586.555 153.598 586.275 154.098 585.755 154.328C582.855 155.668 580.485 157.848 579.025 160.528C578.665 161.188 578.975 161.978 579.705 162.318C584.735 164.638 588.195 169.448 588.195 175.018C588.195 182.848 581.355 189.208 572.925 189.208C572.785 189.208 572.655 189.198 572.525 189.188C572.455 189.838 572.405 190.498 572.405 191.168C572.405 193.718 573.645 199.038 575.495 205.588C575.745 206.478 574.975 207.328 573.965 207.278C570.825 207.098 567.675 206.928 564.535 206.768C563.595 206.718 562.935 205.888 563.195 205.068C566.205 195.248 568.485 186.688 568.485 183.228C568.485 182.558 568.445 181.898 568.365 181.248C568.225 181.248 568.095 181.268 567.955 181.268C559.525 181.268 552.685 174.918 552.685 167.078C552.685 161.508 556.145 156.698 561.175 154.378C561.895 154.048 562.215 153.248 561.855 152.588C560.245 149.638 557.535 147.288 554.235 146.008C554.305 145.658 554.355 145.308 554.355 144.938C554.355 141.928 551.725 139.478 548.485 139.478C545.245 139.478 542.605 141.918 542.605 144.938C542.605 145.008 542.605 145.068 542.605 145.138C542.625 145.658 542.345 146.158 541.825 146.388C538.925 147.728 536.555 149.908 535.095 152.588C534.735 153.248 535.045 154.048 535.775 154.378C540.805 156.698 544.265 161.508 544.265 167.078C544.265 174.908 537.425 181.268 528.995 181.268C528.855 181.268 528.725 181.258 528.585 181.248C528.505 181.898 528.465 182.558 528.465 183.228C528.465 186.538 530.555 194.528 533.375 203.828C533.645 204.698 532.905 205.558 531.905 205.538C527.325 205.418 522.745 205.328 518.165 205.258C517.195 205.248 516.505 204.398 516.765 203.548C520.235 192.218 522.855 182.358 522.855 178.368C522.855 177.598 522.805 176.838 522.715 176.088C522.555 176.088 522.405 176.108 522.245 176.108C512.515 176.108 504.635 168.778 504.635 159.748C504.635 153.258 508.715 147.658 514.605 145.018C515.335 144.688 515.655 143.898 515.305 143.228C513.485 139.778 510.365 137.028 506.545 135.508C505.995 135.288 505.645 134.778 505.645 134.228C505.645 131.208 503.015 128.758 499.775 128.758C496.535 128.758 493.905 131.198 493.905 134.218C493.905 134.778 493.565 135.288 493.005 135.508C489.185 137.018 486.065 139.778 484.245 143.228C483.895 143.898 484.215 144.688 484.945 145.018C490.845 147.658 494.915 153.258 494.915 159.748C494.915 168.788 487.025 176.108 477.305 176.108C477.145 176.108 476.995 176.088 476.835 176.088C476.745 176.838 476.695 177.598 476.695 178.368C476.695 182.358 479.315 192.218 482.785 203.548C483.045 204.398 482.355 205.248 481.385 205.258C476.805 205.328 472.225 205.418 467.645 205.538C466.655 205.558 465.915 204.708 466.175 203.828C468.995 194.528 471.085 186.538 471.085 183.228C471.085 182.558 471.045 181.898 470.965 181.248C470.825 181.248 470.695 181.268 470.555 181.268C462.125 181.268 455.285 174.918 455.285 167.078C455.285 161.508 458.745 156.698 463.775 154.378C464.495 154.048 464.815 153.248 464.455 152.588C462.995 149.908 460.625 147.728 457.725 146.388C457.215 146.148 456.925 145.658 456.945 145.138C456.945 145.068 456.945 145.008 456.945 144.938C456.945 141.928 454.315 139.478 451.065 139.478C447.815 139.478 445.195 141.918 445.195 144.938C445.195 145.308 445.235 145.658 445.315 146.008C442.015 147.288 439.305 149.638 437.695 152.588C437.335 153.248 437.645 154.048 438.375 154.378C443.405 156.698 446.865 161.508 446.865 167.078C446.865 174.908 440.025 181.268 431.595 181.268C431.455 181.268 431.325 181.258 431.185 181.248C431.105 181.898 431.065 182.558 431.065 183.228C431.065 186.688 433.335 195.248 436.355 205.068C436.605 205.898 435.955 206.728 435.015 206.768C431.875 206.928 428.725 207.098 425.585 207.278C424.575 207.338 423.805 206.478 424.055 205.588C425.905 199.038 427.145 193.718 427.145 191.168C427.145 190.498 427.095 189.838 427.025 189.188C426.895 189.188 426.755 189.208 426.625 189.208C418.195 189.208 411.355 182.858 411.355 175.018C411.355 169.448 414.815 164.638 419.845 162.318C420.565 161.988 420.875 161.188 420.525 160.528C419.065 157.848 416.695 155.658 413.795 154.328C413.285 154.088 412.995 153.598 413.015 153.078C413.015 153.008 413.015 152.948 413.015 152.878C413.015 149.868 410.385 147.418 407.145 147.418C403.905 147.418 401.265 149.858 401.265 152.878C401.265 153.248 401.305 153.598 401.385 153.948C398.085 155.228 395.375 157.578 393.765 160.528C393.405 161.188 393.715 161.978 394.445 162.318C399.475 164.638 402.935 169.448 402.935 175.018C402.935 182.848 396.095 189.208 387.665 189.208C387.525 189.208 387.395 189.198 387.255 189.188C387.195 189.848 387.145 190.508 387.145 191.168C387.145 191.478 387.165 191.928 387.165 192.488C387.165 225.608 399.905 250.548 399.905 250.548C449.575 240.708 515.095 240.078 599.695 250.548C599.695 250.548 612.435 225.608 612.435 192.488C612.435 191.928 612.455 191.478 612.455 191.168C612.455 190.498 612.405 189.838 612.345 189.188H612.295Z" fill="#C4914F"/>
<path d="M315.395 214.568C315.395 214.088 315.205 213.698 314.835 213.398C314.465 213.098 313.475 212.868 311.895 212.738V211.508H337.675V212.738C336.085 212.878 335.115 213.098 334.735 213.398C334.355 213.708 334.175 214.098 334.175 214.568V241.958C334.175 246.458 333.275 250.238 331.485 253.298C329.695 256.368 327.235 258.818 324.105 260.658C320.975 262.498 317.305 263.778 313.095 264.488C308.885 265.198 304.395 265.558 299.645 265.558C294.895 265.558 290.405 265.198 286.195 264.488C281.985 263.768 278.315 262.498 275.185 260.658C272.055 258.818 269.595 256.368 267.805 253.298C266.015 250.228 265.115 246.448 265.115 241.958V214.568C265.115 214.088 264.925 213.698 264.555 213.398C264.175 213.088 263.195 212.868 261.615 212.738V211.508H287.395V212.738C285.805 212.878 284.825 213.098 284.455 213.398C284.085 213.698 283.895 214.098 283.895 214.568V241.958C283.895 245.908 285.275 248.738 288.025 250.438C290.775 252.138 294.655 252.988 299.665 252.988C304.675 252.988 308.555 252.138 311.305 250.438C314.055 248.738 315.435 245.908 315.435 241.958V214.568H315.395Z" fill="#C4914F"/>
<path d="M715.495 264.028C716.915 263.888 717.795 263.668 718.135 263.368C718.475 263.068 718.635 262.668 718.635 262.188V224.578L718.415 224.378L698.435 264.028L678.685 223.968H678.465V262.188C678.465 262.668 678.635 263.058 678.965 263.368C679.295 263.678 680.175 263.898 681.605 264.028V265.258H661.855V264.028C663.275 263.888 664.155 263.668 664.495 263.368C664.835 263.068 664.995 262.668 664.995 262.188V214.568C664.995 214.088 664.825 213.698 664.495 213.398C664.165 213.098 663.275 212.868 661.855 212.738V211.508H691.145V212.738C689.345 212.808 688.455 213.418 688.455 214.578C688.455 214.648 688.675 215.188 689.125 216.218C689.575 217.238 690.155 218.498 690.865 219.998C691.575 221.498 692.365 223.118 693.225 224.848C694.085 226.588 694.905 228.258 695.695 229.858C696.485 231.458 697.175 232.868 697.775 234.098C698.375 235.328 698.785 236.138 699.005 236.548C700.275 233.958 701.585 231.438 702.935 228.988C704.285 226.538 705.495 224.288 706.585 222.238C707.665 220.198 708.545 218.488 709.225 217.128C709.895 215.768 710.235 214.918 710.235 214.578C710.235 213.418 709.335 212.808 707.545 212.738V211.508H737.955V212.738C736.535 212.878 735.655 213.098 735.315 213.398C734.975 213.698 734.815 214.098 734.815 214.568V262.188C734.815 262.668 734.985 263.058 735.315 263.368C735.645 263.678 736.525 263.898 737.955 264.028V265.258H715.505V264.028H715.495Z" fill="#C4914F"/>
<path d="M699.895 189.653C697.365 187.583 695.105 185.323 692.915 182.953C692.245 182.203 691.575 181.453 690.935 180.693C690.645 180.313 690.775 179.893 690.845 179.483C690.915 178.723 690.605 176.653 690.555 175.843L690.085 171.003C688.705 157.043 686.505 136.523 684.875 122.643C686.945 118.963 689.045 115.443 691.685 112.023C695.055 114.723 697.945 117.663 700.805 120.783C702.455 134.733 704.655 155.413 706.055 169.443L706.525 174.313C706.625 175.093 706.725 177.213 706.935 177.963C707.085 178.363 707.295 178.753 707.075 179.183C706.585 180.053 706.065 180.913 705.545 181.783C703.835 184.523 702.025 187.173 699.895 189.663V189.653Z" fill="#C4914F"/>
<path d="M307.835 112.023C309.875 114.573 311.615 117.263 313.265 120.033C313.755 120.913 314.265 121.783 314.735 122.653C314.935 123.083 314.735 123.463 314.565 123.853C314.345 124.583 314.215 126.673 314.085 127.473L313.535 132.303C311.965 146.243 309.805 166.763 308.505 180.683C305.715 183.843 302.925 186.853 299.625 189.653C296.885 186.313 294.685 182.833 292.535 179.183C293.835 165.203 296.025 144.513 297.595 130.503L298.155 125.643C298.215 124.863 298.565 122.763 298.515 121.993C298.455 121.573 298.325 121.153 298.625 120.773C299.285 120.033 299.975 119.293 300.665 118.553C302.915 116.233 305.235 114.023 307.835 112.033V112.023Z" fill="#C4914F"/>
</svg>
