<svg width="1001" height="1000" viewBox="0 0 1001 1000" fill="none" xmlns="http://www.w3.org/2000/svg">
<g clip-path="url(#clip0_42_11336)">
<path d="M500.058 933.921C739.728 933.921 934.019 739.63 934.019 499.961C934.019 260.291 739.728 66 500.058 66C260.388 66 66.0977 260.291 66.0977 499.961C66.0977 739.63 260.388 933.921 500.058 933.921Z" fill="black"/>
<path d="M500.058 916.167C729.924 916.167 916.267 729.824 916.267 499.959C916.267 270.093 729.924 83.75 500.058 83.75C270.193 83.75 83.8496 270.093 83.8496 499.959C83.8496 729.824 270.193 916.167 500.058 916.167Z" fill="#D50D4C"/>
<path d="M500.058 788.379C659.346 788.379 788.474 659.25 788.474 499.963C788.474 340.675 659.346 211.547 500.058 211.547C340.771 211.547 211.642 340.675 211.642 499.963C211.642 659.25 340.771 788.379 500.058 788.379Z" fill="black"/>
<path d="M500.058 757.87C642.499 757.87 757.97 642.399 757.97 499.958C757.97 357.518 642.499 242.047 500.058 242.047C357.618 242.047 242.147 357.518 242.147 499.958C242.147 642.399 357.618 757.87 500.058 757.87Z" fill="black"/>
<path d="M117.197 501.239L171.166 497.211L173.367 526.753C174.018 535.486 169.963 540.174 161.212 540.833L153.53 541.404C144.77 542.054 140.073 538.017 139.423 529.284L137.792 507.459L117.767 508.956L117.197 501.239ZM145.509 506.889L147.104 528.304C147.256 530.362 147.817 531.806 148.789 532.644C149.76 533.481 151.275 533.82 153.334 533.668L160.258 533.152C162.317 533 163.76 532.439 164.598 531.467C165.436 530.496 165.774 528.981 165.623 526.922L164.028 505.508L145.509 506.889Z" fill="white"/>
<path d="M151.774 545.865C147.167 545.865 143.406 544.635 140.563 542.193C137.302 539.395 135.439 535.162 135.029 529.601L133.728 512.161L113.704 513.658L112.474 497.163L175.221 492.484L177.751 526.42C178.58 537.533 172.672 544.386 161.532 545.214L153.85 545.785C153.138 545.838 152.442 545.865 151.765 545.865H151.774ZM151.712 529.236C151.934 529.272 152.344 529.316 153.004 529.263L159.928 528.746C160.597 528.692 160.989 528.594 161.203 528.523C161.238 528.3 161.283 527.899 161.229 527.231L159.955 510.201L150.214 510.931L151.489 527.953C151.542 528.621 151.64 529.013 151.712 529.227V529.236Z" fill="white"/>
<path d="M162.762 657.257C161.791 657.667 160.784 657.863 159.759 657.854C158.734 657.845 157.763 657.649 156.836 657.266C155.918 656.882 155.089 656.339 154.358 655.617C153.628 654.904 153.057 654.057 152.647 653.077L140.786 624.533C140.376 623.562 140.18 622.555 140.189 621.53C140.198 620.505 140.394 619.534 140.777 618.607C141.16 617.689 141.704 616.86 142.426 616.13C143.139 615.399 143.985 614.828 144.966 614.418L180.648 599.59C181.628 599.189 182.626 598.984 183.651 598.992C184.676 599.001 185.647 599.197 186.556 599.581C187.465 599.964 188.294 600.516 189.042 601.229C189.791 601.942 190.361 602.789 190.771 603.76L202.633 632.304C203.034 633.275 203.23 634.282 203.212 635.316C203.194 636.35 202.998 637.321 202.624 638.239C202.258 639.157 201.715 639.977 200.993 640.717C200.28 641.447 199.433 642.018 198.453 642.428L162.771 657.257H162.762ZM183.615 606.746L147.933 621.574L159.794 650.118L195.477 635.29L183.615 606.746Z" fill="white"/>
<path d="M159.839 662.259H159.723C158.137 662.241 156.604 661.938 155.16 661.341C153.717 660.744 152.416 659.879 151.284 658.774C150.125 657.652 149.216 656.306 148.584 654.773L136.722 626.229C136.09 624.714 135.778 623.119 135.787 621.497C135.804 619.911 136.107 618.378 136.704 616.943C137.302 615.5 138.166 614.19 139.271 613.058C140.403 611.899 141.748 610.99 143.263 610.358L178.946 595.529C180.469 594.896 182.056 594.593 183.678 594.602C185.273 594.62 186.815 594.932 188.249 595.538C189.648 596.126 190.932 596.981 192.063 598.059C193.249 599.191 194.176 600.546 194.817 602.088L206.679 630.632C207.32 632.173 207.623 633.777 207.588 635.417C207.552 636.977 207.249 638.483 206.687 639.891C206.099 641.343 205.244 642.653 204.121 643.803C202.989 644.961 201.643 645.87 200.12 646.503L164.437 661.332C162.949 661.947 161.399 662.259 159.821 662.259H159.839ZM153.69 623.957L162.174 644.373L189.729 632.922L181.245 612.505L153.69 623.957Z" fill="white"/>
<path d="M251.691 736.413C245.988 741.359 240.632 741.743 235.615 737.572L225.758 759.61L220.144 753.14L229.902 731.387L218.798 718.59L202.463 732.76L197.393 726.914L238.27 691.445L257.689 713.822C263.428 720.435 262.982 726.619 256.352 732.376L251.709 736.404L251.691 736.413ZM224.636 713.519L238.707 729.739C240.062 731.298 241.372 732.118 242.655 732.216C243.929 732.305 245.355 731.672 246.906 730.327L250.978 726.789C252.538 725.434 253.358 724.124 253.456 722.841C253.545 721.567 252.912 720.141 251.566 718.59L237.495 702.371L224.636 713.528V713.519Z" fill="white"/>
<path d="M226.953 767.718L214.975 753.914L224.725 732.161L218.344 724.809L202.009 738.978L191.163 726.484L238.689 685.25L260.986 710.951C268.285 719.364 267.643 728.391 259.204 735.717L254.561 739.745C247.779 745.626 241.897 745.537 237.611 743.862L226.944 767.718H226.953ZM230.838 713.972L242.022 726.867C242.459 727.375 242.771 727.634 242.958 727.758C243.154 727.66 243.51 727.447 244.009 727.01L248.091 723.472C248.599 723.035 248.857 722.723 248.982 722.536C248.884 722.34 248.67 721.984 248.234 721.485L237.041 708.59L230.838 713.972Z" fill="white"/>
<path d="M308.672 769.309C309.216 768.4 309.902 767.651 310.74 767.045C311.568 766.448 312.468 766.029 313.431 765.798C314.393 765.566 315.383 765.521 316.407 765.646C317.432 765.78 318.395 766.11 319.304 766.653L344.47 781.776C345.379 782.32 346.128 783.015 346.716 783.853C347.313 784.69 347.732 785.59 347.981 786.553C348.231 787.506 348.284 788.496 348.142 789.512C347.999 790.527 347.66 791.49 347.117 792.39L343.517 798.379L336.886 794.395L340.487 788.407L315.32 773.283L295.412 806.408L320.578 821.531L324.152 815.578L330.782 819.562L327.208 825.515C326.665 826.424 325.979 827.172 325.141 827.778C324.312 828.375 323.412 828.803 322.441 829.044C321.469 829.284 320.48 829.338 319.464 829.195C318.448 829.052 317.486 828.714 316.586 828.17L291.419 813.047C290.51 812.504 289.762 811.817 289.156 810.989C288.55 810.16 288.131 809.26 287.89 808.288C287.65 807.326 287.596 806.328 287.739 805.312C287.881 804.296 288.22 803.333 288.764 802.433L308.672 769.309Z" fill="white"/>
<path d="M320.578 833.679C320.008 833.679 319.438 833.643 318.858 833.563C317.254 833.34 315.73 832.796 314.313 831.95L289.147 816.827C287.73 815.971 286.536 814.875 285.582 813.574C284.655 812.291 283.996 810.874 283.613 809.359C283.238 807.853 283.158 806.293 283.372 804.716C283.595 803.112 284.139 801.588 284.994 800.171L304.903 767.046C305.758 765.629 306.845 764.435 308.155 763.491C309.456 762.555 310.882 761.895 312.397 761.53C313.868 761.174 315.401 761.093 316.951 761.298C318.582 761.503 320.133 762.047 321.558 762.903L346.725 778.026C348.151 778.881 349.354 779.995 350.298 781.341C351.199 782.615 351.849 784.005 352.232 785.467C352.624 786.982 352.714 788.55 352.491 790.136C352.268 791.741 351.724 793.273 350.869 794.681L345.005 804.44L330.827 795.92L334.427 789.94L316.809 779.353L301.436 804.93L319.054 815.517L322.628 809.564L336.806 818.083L330.96 827.806C330.114 829.214 329.018 830.408 327.707 831.362C326.415 832.297 324.998 832.957 323.492 833.331C322.539 833.572 321.558 833.688 320.569 833.688L320.578 833.679Z" fill="white"/>
<path d="M415.433 809.537L400.908 861.67L393.457 859.594L407.983 807.461L415.433 809.537Z" fill="white"/>
<path d="M404.906 801.962L388.016 862.578L403.949 867.018L420.839 806.402L404.906 801.962Z" fill="white"/>
<path d="M485.051 874.895L477.316 875.02L476.443 820.908L484.178 820.783L517.383 862.214L516.705 820.258L524.441 820.133L525.314 874.244L517.579 874.369L484.374 832.939L485.051 874.895Z" fill="white"/>
<path d="M472.985 879.49L471.96 816.583L486.254 816.342L512.766 849.422L512.223 815.924L528.763 815.656L529.788 878.572L515.493 878.804L488.981 845.724L489.525 879.223L472.985 879.49Z" fill="white"/>
<path d="M644.061 839.021C644.409 840.019 644.542 841.035 644.471 842.051C644.4 843.076 644.141 844.038 643.705 844.929C643.268 845.83 642.671 846.614 641.904 847.309C641.138 848.004 640.265 848.512 639.267 848.86L610.045 858.921C609.047 859.268 608.031 859.402 607.015 859.322C606 859.242 605.037 858.992 604.137 858.555C603.246 858.119 602.453 857.522 601.758 856.755C601.071 855.998 600.555 855.115 600.207 854.117L587.624 817.58C587.276 816.582 587.143 815.566 587.223 814.55C587.294 813.525 587.552 812.571 587.998 811.689C588.435 810.807 589.041 810.014 589.798 809.319C590.556 808.624 591.429 808.098 592.427 807.75L621.648 797.689C622.646 797.341 623.662 797.217 624.687 797.297C625.712 797.386 626.674 797.635 627.566 798.063C628.457 798.491 629.25 799.079 629.936 799.846C630.622 800.603 631.139 801.485 631.487 802.483L644.07 839.021H644.061ZM594.94 815.067L607.523 851.604L636.745 841.543L624.161 805.005L594.94 815.067Z" fill="white"/>
<path d="M607.55 863.739C607.265 863.739 606.98 863.73 606.695 863.712C605.108 863.596 603.602 863.195 602.203 862.509C600.804 861.831 599.557 860.887 598.496 859.702C597.409 858.507 596.589 857.108 596.054 855.54L583.471 819.002C582.936 817.443 582.722 815.839 582.838 814.217C582.954 812.63 583.364 811.106 584.059 809.707C584.736 808.353 585.663 807.123 586.804 806.063C588.007 804.949 589.415 804.111 590.992 803.567L620.214 793.506C621.782 792.962 623.413 792.757 625.053 792.891C626.603 793.016 628.083 793.417 629.455 794.067C630.863 794.745 632.129 795.68 633.198 796.866C634.285 798.069 635.105 799.468 635.64 801.027L648.223 837.565C648.758 839.125 648.972 840.729 648.856 842.342C648.74 843.928 648.339 845.434 647.653 846.833C646.966 848.241 646.022 849.489 644.845 850.549C643.642 851.637 642.243 852.456 640.684 852.991L611.462 863.052C610.179 863.498 608.86 863.721 607.532 863.721L607.55 863.739ZM600.537 817.781L610.25 845.996L631.148 838.804L621.435 810.59L600.537 817.781Z" fill="white"/>
<path d="M707.824 785.643C706.986 786.284 706.068 786.73 705.061 786.971C704.063 787.211 703.065 787.274 702.085 787.158C701.105 787.033 700.169 786.721 699.278 786.222C698.387 785.714 697.62 785.046 696.978 784.208L687.577 771.919C686.935 771.081 686.489 770.163 686.231 769.165C685.973 768.176 685.919 767.187 686.062 766.207C686.204 765.226 686.516 764.291 687.015 763.382C687.514 762.481 688.183 761.706 689.02 761.065L709.874 745.095C710.711 744.453 711.629 744.008 712.636 743.767C713.634 743.526 714.632 743.464 715.613 743.58C716.593 743.705 717.529 744.017 718.42 744.516C719.311 745.015 720.077 745.692 720.719 746.53L722.689 749.123L716.548 753.828L714.579 751.235L693.726 767.205L703.128 779.494L723.981 763.524C724.818 762.883 725.736 762.437 726.734 762.178C727.724 761.929 728.722 761.867 729.711 761.991C730.7 762.125 731.636 762.437 732.527 762.945C733.418 763.453 734.184 764.121 734.835 764.959L744.219 777.212C744.861 778.05 745.306 778.968 745.565 779.966C745.823 780.955 745.877 781.953 745.752 782.943C745.627 783.932 745.306 784.867 744.798 785.768C744.29 786.659 743.622 787.425 742.784 788.067L721.325 804.491C720.487 805.133 719.569 805.578 718.58 805.837C717.591 806.095 716.593 806.148 715.604 806.024C714.615 805.89 713.679 805.578 712.779 805.07C711.888 804.562 711.121 803.894 710.48 803.056L708.18 800.071L714.321 795.365L716.62 798.351L738.079 781.927L728.695 769.673L707.842 785.643H707.824Z" fill="white"/>
<path d="M716.602 810.495C716.067 810.495 715.541 810.459 715.016 810.388C713.474 810.183 711.986 809.684 710.613 808.9C709.205 808.107 707.984 807.037 706.977 805.727L701.987 799.258L715.123 789.205L717.422 792.191L731.903 781.105L727.875 775.838L710.515 789.125C709.196 790.132 707.717 790.845 706.122 791.237C704.607 791.602 703.074 791.701 701.568 791.513C700.017 791.317 698.52 790.827 697.13 790.034C695.722 789.241 694.501 788.172 693.494 786.862L684.092 774.572C683.094 773.262 682.381 771.801 681.98 770.241C681.579 768.691 681.499 767.122 681.713 765.572C681.927 764.074 682.417 762.613 683.165 761.249C683.959 759.806 685.028 758.567 686.356 757.56L707.209 741.59C708.537 740.575 710.016 739.87 711.611 739.478C713.126 739.113 714.659 739.015 716.165 739.202C717.716 739.398 719.213 739.888 720.603 740.681C722.011 741.475 723.232 742.544 724.239 743.854L728.873 749.958L715.737 760.011L713.768 757.417L699.91 768.022L703.965 773.316L721.325 760.029C722.635 759.03 724.088 758.318 725.665 757.917C727.198 757.524 728.757 757.426 730.299 757.631C731.85 757.836 733.329 758.335 734.71 759.111C736.118 759.913 737.348 760.973 738.346 762.283L747.73 774.546C748.728 775.856 749.441 777.308 749.842 778.877C750.234 780.41 750.332 781.978 750.127 783.52C749.922 785.061 749.423 786.55 748.639 787.922C747.846 789.33 746.777 790.551 745.467 791.558L724.007 807.982C722.697 808.98 721.236 809.693 719.676 810.094C718.669 810.353 717.644 810.486 716.62 810.486L716.602 810.495Z" fill="white"/>
<path d="M775.481 708.522L782.316 699.539L791.299 706.374L784.464 715.357L775.49 708.522H775.481Z" fill="white"/>
<path d="M785.293 721.527L769.314 709.362L781.479 693.375L797.466 705.539L785.302 721.527H785.293ZM781.648 707.687L783.617 709.193L785.123 707.224L783.154 705.718L781.648 707.687Z" fill="white"/>
<path d="M797.074 633.594L812.054 597.109L819.21 600.05L807.171 629.378L821.483 635.26L831.758 610.227L838.914 613.168L828.639 638.201L850.071 647.006L847.13 654.162L797.065 633.602L797.074 633.594Z" fill="white"/>
<path d="M849.537 659.889L791.335 635.988L809.657 591.367L824.958 597.641L812.919 626.969L819.086 629.5L829.361 604.476L844.662 610.75L834.387 635.783L855.819 644.587L849.537 659.889Z" fill="white"/>
<path d="M833.38 540.818C832.328 540.738 831.348 540.452 830.439 539.98C829.53 539.508 828.755 538.884 828.122 538.126C827.489 537.369 826.999 536.505 826.66 535.533C826.322 534.562 826.197 533.546 826.277 532.494L828.603 503.229C828.683 502.177 828.969 501.197 829.459 500.288C829.949 499.379 830.564 498.603 831.312 497.953C832.061 497.302 832.916 496.821 833.888 496.491C834.859 496.162 835.875 496.046 836.927 496.126L843.887 496.679L843.272 504.387L836.312 503.835L833.986 533.1L872.511 536.166L874.837 506.9L867.912 506.348L868.527 498.639L875.452 499.192C876.503 499.272 877.483 499.557 878.392 500.029C879.301 500.502 880.077 501.125 880.727 501.883C881.369 502.64 881.859 503.505 882.189 504.476C882.519 505.448 882.634 506.464 882.554 507.515L880.228 536.781C880.148 537.832 879.863 538.813 879.391 539.722C878.918 540.631 878.294 541.406 877.537 542.057C876.779 542.707 875.915 543.188 874.944 543.518C873.972 543.848 872.956 543.964 871.905 543.883L833.38 540.818Z" fill="white"/>
<path d="M872.546 548.314C872.217 548.314 871.887 548.296 871.557 548.278L833.032 545.212C831.384 545.079 829.824 544.633 828.398 543.885C826.981 543.145 825.76 542.165 824.753 540.962C823.773 539.794 823.025 538.458 822.508 536.987C821.964 535.436 821.759 533.815 821.893 532.157L824.219 502.882C824.352 501.225 824.816 499.647 825.591 498.204C826.331 496.831 827.284 495.628 828.434 494.639C829.619 493.614 830.983 492.839 832.498 492.331C834.03 491.814 835.643 491.618 837.283 491.752L848.628 492.652L847.318 509.138L840.358 508.586L838.727 529.082L868.474 531.453L870.105 510.956L863.18 510.404L864.49 493.917L875.799 494.817C877.448 494.951 879.007 495.397 880.433 496.145C881.841 496.885 883.062 497.856 884.069 499.041C885.085 500.227 885.851 501.59 886.351 503.096C886.867 504.629 887.063 506.242 886.93 507.882L884.604 537.156C884.47 538.796 884.025 540.365 883.276 541.79C882.545 543.198 881.565 544.419 880.38 545.426C879.194 546.433 877.831 547.2 876.325 547.708C875.104 548.118 873.83 548.323 872.529 548.323L872.546 548.314Z" fill="white"/>
<path d="M845.66 450.769C827.819 325.534 740.503 216.403 621.711 172.655C461.337 111.513 275.352 181.549 194.095 332.539C176.361 364.398 164.188 399.51 157.103 435.272L154.465 450.76L154.421 451.046C153.85 454.405 150.66 456.66 147.3 456.09C144.021 455.528 141.793 452.472 142.221 449.21L144.333 433.062C150.295 395.464 162.156 358.686 179.641 324.839C315.507 65.7248 684.672 65.7961 820.485 324.848C837.96 358.686 849.848 395.482 855.793 433.071L857.905 449.219C858.626 457.355 846.979 458.897 845.651 450.769H845.66Z" fill="white"/>
<path d="M664.897 474.25C664.897 474.25 642.323 378.611 683.647 359.477C724.961 340.353 769.341 346.85 798.419 333.464C827.498 320.07 845.072 303.539 845.072 303.539L843.182 353.738L864.989 359.477C864.989 359.477 837.06 378.985 816.786 422.215C796.512 465.445 760.928 490.318 716.548 494.141C672.168 497.964 664.897 474.25 664.897 474.25Z" fill="#F078A8"/>
<path d="M707.209 500.343C667.338 500.343 659.701 477.012 659.371 475.943C659.336 475.818 659.3 475.702 659.273 475.577C658.311 471.487 636.139 375.107 681.214 354.236C704.553 343.436 728.82 340.513 750.225 337.946C767.38 335.887 783.582 333.936 795.995 328.223C823.773 315.435 840.937 299.492 841.106 299.341C842.817 297.737 845.321 297.318 847.46 298.298C849.59 299.27 850.927 301.435 850.838 303.77L849.127 349.344L866.46 353.907C868.634 354.477 870.283 356.268 870.675 358.487C871.067 360.706 870.14 362.952 868.296 364.235C868.037 364.413 841.311 383.547 822.017 424.692C801.155 469.17 763.878 495.887 717.047 499.924C713.572 500.227 710.292 500.36 707.218 500.36L707.209 500.343ZM670.457 472.627C671.215 474.588 678.888 491.591 716.049 488.392C758.593 484.72 792.511 460.356 811.546 419.773C825.315 390.409 842.425 371.703 852.691 362.221L841.712 359.334C839.092 358.648 837.31 356.233 837.408 353.523L838.816 316.13C830.564 322.333 817.579 331.004 800.843 338.712C786.781 345.191 769.697 347.241 751.616 349.415C730.049 352.009 707.753 354.691 686.08 364.725C655.851 378.717 664.496 447.06 670.457 472.627Z" fill="black"/>
<path d="M339.301 474.514C339.301 474.514 361.875 378.874 320.551 359.741C279.228 340.608 234.857 347.113 205.778 333.728C176.7 320.334 154.929 305.211 154.929 305.211L161.024 354.002L139.218 359.741C139.218 359.741 167.147 379.249 187.421 422.479C207.694 465.709 243.279 490.582 287.658 494.405C332.038 498.228 339.31 474.514 339.31 474.514H339.301Z" fill="#F078A8"/>
<path d="M296.998 500.609C293.914 500.609 290.644 500.467 287.159 500.173C240.329 496.136 203.052 469.418 182.189 424.941C162.798 383.591 136.179 364.671 135.911 364.484C134.067 363.192 133.14 360.946 133.532 358.736C133.924 356.517 135.573 354.735 137.747 354.156L154.661 349.7L149.199 305.926C148.913 303.662 149.992 301.443 151.943 300.267C153.895 299.082 156.355 299.162 158.235 300.463C158.449 300.614 179.979 315.47 208.211 328.472C220.625 334.185 236.827 336.136 253.981 338.195C275.396 340.77 299.654 343.684 322.993 354.485C368.077 375.356 345.905 471.736 344.934 475.826C344.907 475.951 344.871 476.075 344.835 476.191C344.506 477.261 336.86 500.591 296.998 500.591V500.609ZM151.516 362.488C161.773 371.97 178.883 390.675 192.661 420.039C211.696 460.623 245.613 484.987 288.158 488.659C325.39 491.867 333.17 474.391 333.749 472.93C339.711 447.38 348.373 379.001 318.136 365.001C296.463 354.966 274.166 352.284 252.6 349.691C234.518 347.516 217.435 345.467 203.372 338.988C186.093 331.03 171.46 322.546 162.21 316.816L166.763 353.3C167.12 356.17 165.302 358.87 162.504 359.609L151.524 362.497L151.516 362.488Z" fill="black"/>
<path d="M696.381 439.571C644.819 335.475 514.397 323.685 502.411 322.82V322.758C502.411 322.758 502.259 322.758 501.965 322.785C501.68 322.767 501.52 322.758 501.52 322.758V322.82C489.533 323.694 359.112 335.475 307.549 439.571C246.799 562.222 292.881 645.778 318.903 670.267C344.916 694.756 375.91 711.964 427.936 723.701C475.836 734.502 498.65 719.806 501.965 717.4C505.289 719.806 528.094 734.502 575.994 723.701C628.02 711.964 659.015 694.756 685.028 670.267C711.041 645.778 757.132 562.231 696.381 439.571Z" fill="#F078A8"/>
<path d="M543.306 733.656C521.696 733.656 508.275 728.041 501.965 724.521C492.84 729.619 468.778 739.101 426.609 729.592C377.309 718.47 343.855 702.046 314.768 674.661C300.135 660.892 281.946 632.161 274.754 592.816C265.843 544.043 275.057 491.58 302.149 436.89C354.077 332.053 482.119 318.294 500.299 316.859C500.807 316.752 501.324 316.707 501.849 316.734H501.974H502.099C502.634 316.707 503.177 316.752 503.703 316.868C522.07 318.32 649.916 332.16 701.8 436.899C728.891 491.589 738.106 544.052 729.194 592.825C722.002 632.17 703.814 660.901 689.181 674.67C660.084 702.055 626.639 718.479 577.34 729.601C564.302 732.542 552.993 733.665 543.324 733.665L543.306 733.656ZM501.965 711.368C503.204 711.368 504.452 711.751 505.503 712.517C507.758 714.148 528.843 728.148 574.666 717.82C621.711 707.215 653.481 691.673 680.893 665.883C694.127 653.424 710.64 627.126 717.306 590.66C725.745 544.506 716.878 494.575 690.972 442.263C670.074 400.067 633.519 368.386 582.33 348.103C542.843 332.454 508.462 329.317 501.974 328.845C501.974 328.845 501.965 328.845 501.956 328.845C495.469 329.317 461.088 332.454 421.6 348.103C370.412 368.386 333.856 400.067 312.959 442.263C287.044 494.575 278.185 544.497 286.625 590.66C293.291 627.126 309.804 653.433 323.038 665.883C350.45 691.682 382.211 707.215 429.264 717.82C475.088 728.157 496.182 714.148 498.427 712.517C499.479 711.751 500.727 711.368 501.965 711.368Z" fill="black"/>
<path d="M497.554 791.551C539.103 791.551 572.786 760.49 572.786 722.174C572.786 683.858 539.103 652.797 497.554 652.797C456.004 652.797 422.322 683.858 422.322 722.174C422.322 760.49 456.004 791.551 497.554 791.551Z" fill="#F078A8"/>
<path d="M497.554 796.467C453.352 796.467 417.394 763.138 417.394 722.171C417.394 681.204 453.352 647.875 497.554 647.875C541.756 647.875 577.714 681.204 577.714 722.171C577.714 763.138 541.756 796.467 497.554 796.467ZM497.554 657.722C458.779 657.722 427.241 686.632 427.241 722.171C427.241 757.711 458.788 786.629 497.554 786.629C536.32 786.629 567.867 757.72 567.867 722.171C567.867 686.623 536.328 657.722 497.554 657.722Z" fill="black"/>
<path d="M495.718 764.28C522.178 764.28 543.627 744.502 543.627 720.105C543.627 695.707 522.178 675.93 495.718 675.93C469.259 675.93 447.809 695.707 447.809 720.105C447.809 744.502 469.259 764.28 495.718 764.28Z" fill="black"/>
<path d="M578.053 609.438C546.826 580.93 501.27 583.06 501.27 583.06C501.27 583.06 455.714 580.921 424.488 609.438C380.491 649.612 367.23 702.529 386.613 730.075C405.996 757.621 441.464 747.649 465.169 737.213C485.122 728.426 518.077 727.428 537.371 737.213C560.47 748.923 596.544 757.621 615.927 730.075C635.31 702.529 622.049 649.603 578.053 609.438Z" fill="#F078A8"/>
<path d="M578.873 754.156C578.57 754.156 578.275 754.156 577.972 754.156C560.105 753.916 543.235 746.671 534.769 742.384C517.908 733.829 487.11 733.891 467.513 742.518C417.528 764.512 393.368 749.709 381.908 733.41C359.593 701.694 376.596 645.372 420.611 605.181C452.31 576.236 496.993 577.136 501.288 577.287C505.592 577.136 550.266 576.236 581.965 605.181C625.988 645.372 642.983 701.703 620.668 733.41C611.106 747 596.669 754.165 578.881 754.165L578.873 754.156ZM502.286 724.481C516.331 724.481 530.019 727.012 539.991 732.064C551.656 737.982 591.269 755.083 611.204 726.753C627.521 703.556 618.003 653.74 574.158 613.709C545.142 587.215 501.965 588.819 501.537 588.837C501.359 588.837 501.181 588.837 501.003 588.837C500.584 588.819 457.407 587.215 428.391 613.709C384.546 653.74 375.019 703.556 391.345 726.753C404.41 745.325 428.471 747.063 462.843 731.931C474.134 726.958 488.375 724.481 502.277 724.481H502.286Z" fill="black"/>
<path d="M433.907 690.305C444.253 699.065 458.592 671.992 463.895 661.904C469.206 651.816 479.285 643.59 479.285 643.59C479.285 643.59 456.73 643.056 445.581 653.678C434.433 664.301 423.552 681.545 433.907 690.305Z" fill="black"/>
<path d="M438.318 695.645C435.886 695.645 433.586 694.772 431.572 693.07C428.15 690.173 426.27 686.243 426.136 681.698C425.833 671.308 434.691 659.063 443.086 651.06C455.179 639.546 478.394 639.956 479.374 639.974C480.889 640.01 482.226 640.981 482.716 642.416C483.206 643.851 482.752 645.437 481.584 646.391C481.495 646.471 471.995 654.295 467.103 663.581C459.377 678.259 450.162 693.524 440.359 695.431C439.673 695.565 438.987 695.627 438.318 695.627V695.645ZM469.661 647.861C462.745 648.779 453.664 650.998 448.086 656.3C440.6 663.421 433.15 673.972 433.372 681.476C433.444 683.98 434.388 685.958 436.251 687.536C437.142 688.293 437.962 688.525 438.978 688.329C444.102 687.331 451.401 677.875 460.696 660.213C463.182 655.489 466.595 651.194 469.661 647.852V647.861Z" fill="black"/>
<path d="M565.291 690.305C554.945 699.065 540.606 671.992 535.304 661.904C529.992 651.816 519.913 643.59 519.913 643.59C519.913 643.59 542.469 643.056 553.617 653.678C564.766 664.292 575.647 681.545 565.291 690.305Z" fill="black"/>
<path d="M560.889 695.64C560.221 695.64 559.534 695.569 558.848 695.444C549.045 693.537 539.831 678.272 532.104 663.594C527.221 654.308 517.721 646.475 517.623 646.404C516.447 645.441 516.001 643.855 516.491 642.42C516.981 640.985 518.318 640.014 519.833 639.978C520.813 639.943 544.028 639.542 556.121 651.064C564.516 659.058 573.383 671.312 573.071 681.703C572.937 686.247 571.057 690.177 567.635 693.074C565.621 694.776 563.322 695.649 560.889 695.649V695.64ZM529.547 647.856C532.612 651.198 536.025 655.493 538.512 660.217C547.807 677.879 555.114 687.335 560.229 688.333C561.245 688.529 562.065 688.297 562.956 687.54C564.819 685.962 565.755 683.984 565.835 681.48C566.058 673.976 558.608 663.425 551.122 656.304C545.552 650.993 536.471 648.783 529.547 647.865V647.856Z" fill="black"/>
<path d="M457.327 572.395C469.171 547.201 503.988 540.527 527.604 552.415C535.616 556.273 542.745 561.843 547.744 568.946C532.746 562.03 517.766 557.298 501.591 557.512C485.461 557.646 470.801 562.761 457.318 572.386L457.327 572.395Z" fill="black"/>
<path d="M476.95 538.495C485.8 518.497 516.866 519.086 528.112 536.543C511.046 529.156 492.911 527.694 476.95 538.495Z" fill="black"/>
<path d="M337.876 399.048L356.902 473.576L273.115 397.97L336.075 389.664L337.876 399.048Z" fill="#F078A8"/>
<path d="M291.687 438.505C293.638 415.691 278.979 400.648 260.05 389.874C253.42 386.033 246.371 382.656 239.224 379.492C263.365 383.458 289.637 389.5 305.009 410.87C310.437 418.4 313.948 427.401 315.739 436.402L291.696 438.514L291.687 438.505Z" fill="black"/>
<path d="M297.158 449.751C293.718 443.932 285.279 440.84 278.212 439.298C273.917 438.362 269.372 437.836 264.747 437.631C260.122 437.426 255.407 437.551 250.666 437.997C254.801 435.626 259.15 433.514 263.695 431.687C279.068 425.761 296.249 422.152 312.076 430.778L297.158 449.76V449.751Z" fill="black"/>
<path d="M663.23 394.54L644.204 469.077L727.991 393.462L665.03 385.156L663.23 394.54Z" fill="#F078A8"/>
<path d="M685.384 431.916C693.12 392.251 726.422 380.336 761.9 375.016C748.149 381.165 733.801 388.223 723.107 398.605C713.028 408.203 708.35 420.536 709.428 434.037L685.384 431.925V431.916Z" fill="black"/>
<path d="M689.047 426.295C708.786 415.539 732.571 423.622 750.457 433.514C741.26 432.658 731.787 432.917 722.911 434.815C715.853 436.357 707.396 439.458 703.965 445.268L689.047 426.286V426.295Z" fill="black"/>
<path d="M559.579 482.688C558.92 494.05 558.331 505.76 564.543 515.42C571.333 525.151 584.104 531.006 594.905 536.309C579.728 534.045 563.135 531.987 551.648 519.956C542.638 510.519 538.503 496.928 535.526 484.8L559.57 482.688H559.579Z" fill="black"/>
<path d="M560.238 486.945C550.917 507.861 559.837 526.878 574.185 543.258C579.193 549.068 584.745 554.558 590.458 559.896C568.954 548.239 546.113 533.91 538.592 508.69C535.927 499.796 535.571 490.145 536.827 481.055L560.238 486.945Z" fill="black"/>
<path d="M630.631 449.93C630.177 450.072 545.588 479.24 544.652 479.409C544.349 482.992 547.156 496.35 548.422 499.737C555.025 517.435 580.584 528.2 606.909 518.825C633.234 509.45 639.374 487.581 636.816 469.705C634.793 455.535 631.05 450.741 630.631 449.93Z" fill="black"/>
<path d="M620.49 451.352C620.124 451.476 550.4 480.403 549.651 480.555C549.411 483.612 550.56 489.36 551.567 492.247C556.834 507.361 576.466 517.681 597.765 513.412C619.795 509.01 626.657 494.502 627.985 478.666C628.992 466.644 620.811 452.047 620.481 451.352H620.49Z" fill="white" stroke="black" stroke-width="4.45581" stroke-miterlimit="10"/>
<path d="M516.794 475.491C516.794 475.491 527.96 503.651 579.523 477.87C629.143 453.06 629.063 450.387 642.412 450.547C655.762 450.707 665.342 452.757 665.342 452.757L628.938 425.906C628.938 425.906 597.845 439.791 575.887 456.054C553.938 472.318 548.404 476.685 538.12 477.398C527.836 478.111 516.794 475.491 516.794 475.491Z" fill="black"/>
<path d="M444.476 484.422C445.136 495.784 445.724 507.494 439.513 517.154C432.722 526.886 419.952 532.741 409.151 538.043C424.327 535.78 440.921 533.721 452.408 521.69C461.417 512.253 465.552 498.663 468.529 486.534L444.485 484.422H444.476Z" fill="black"/>
<path d="M443.817 488.68C453.138 509.595 444.218 528.613 429.87 544.992C424.862 550.803 419.31 556.292 413.598 561.63C435.101 549.974 457.942 535.644 465.463 510.424C468.128 501.53 468.484 491.879 467.228 482.789L443.817 488.68Z" fill="black"/>
<path d="M373.424 451.656C373.878 451.799 458.467 480.967 459.403 481.136C459.706 484.718 456.899 498.077 455.634 501.463C449.03 519.162 423.472 529.927 397.147 520.552C370.822 511.177 364.682 489.308 367.239 471.431C369.262 457.262 373.005 452.467 373.424 451.656Z" fill="black"/>
<path d="M383.565 453.086C383.931 453.211 453.655 482.138 454.404 482.289C454.645 485.346 453.495 491.094 452.488 493.981C447.221 509.096 427.589 519.415 406.29 515.147C384.26 510.744 377.399 496.236 376.071 480.4C375.064 468.378 383.245 453.781 383.574 453.086H383.565Z" fill="white" stroke="black" stroke-width="4.45581" stroke-miterlimit="10"/>
<path d="M487.261 477.225C487.261 477.225 476.095 505.386 424.532 479.604C374.912 454.794 374.992 452.121 361.643 452.281C348.284 452.442 338.713 454.491 338.713 454.491L375.117 427.641C375.117 427.641 406.21 441.525 428.168 457.789C450.117 474.052 455.652 478.419 465.936 479.132C476.22 479.854 487.261 477.225 487.261 477.225Z" fill="black"/>
<path d="M503.275 369.054C592.521 369.054 664.87 331.621 664.87 285.445C664.87 239.269 592.521 201.836 503.275 201.836C414.029 201.836 341.681 239.269 341.681 285.445C341.681 331.621 414.029 369.054 503.275 369.054Z" fill="#B92025"/>
<path d="M503.275 375.808C459.056 375.808 417.367 366.843 385.909 350.561C353.034 333.549 334.926 310.424 334.926 285.435C334.926 260.447 353.034 237.321 385.909 220.309C417.376 204.028 459.056 195.062 503.275 195.062C547.495 195.062 589.183 204.028 620.641 220.309C653.516 237.321 671.625 260.447 671.625 285.435C671.625 310.424 653.516 333.549 620.641 350.561C589.174 366.843 547.495 375.808 503.275 375.808ZM503.275 208.59C461.177 208.59 421.698 217.021 392.121 232.322C363.951 246.893 348.445 265.758 348.445 285.444C348.445 305.13 363.96 323.987 392.121 338.566C421.698 353.868 461.177 362.298 503.275 362.298C545.374 362.298 584.852 353.868 614.43 338.566C642.6 323.996 658.106 305.13 658.106 285.444C658.106 265.758 642.591 246.901 614.43 232.322C584.852 217.021 545.374 208.59 503.275 208.59Z" fill="black"/>
<path d="M598.915 265.72C609.894 271.869 617.406 284.354 617.406 298.764C617.406 319.269 602.203 335.89 583.453 335.89C564.703 335.89 549.5 319.269 549.5 298.764C549.5 284.122 557.253 271.468 568.508 265.425L504.256 184.829L440.003 265.425C451.258 271.468 459.011 284.122 459.011 298.764C459.011 319.269 443.808 335.89 425.058 335.89C406.308 335.89 391.105 319.269 391.105 298.764C391.105 284.354 398.626 271.869 409.596 265.72L306.899 163.414L344.016 370.752C344.016 370.752 372.533 384.333 418.258 391.124C463.289 397.808 493.998 397.068 504.273 397.068C514.548 397.068 545.196 397.817 590.226 391.124C635.952 384.333 664.469 370.752 664.469 370.752L701.586 163.414L598.888 265.72H598.915Z" fill="#FFCF00"/>
<path d="M496.618 403.116C482.084 403.116 454.618 402.608 417.403 397.083C371.312 390.239 342.652 376.765 341.449 376.194C339.694 375.357 338.446 373.726 338.107 371.81L300.99 164.472C300.527 161.879 301.801 159.285 304.136 158.064C306.471 156.843 309.323 157.28 311.194 159.134L413.892 261.439C415.228 262.776 415.87 264.656 415.612 266.537C415.353 268.408 414.23 270.057 412.582 270.984C403.073 276.313 397.174 286.953 397.174 298.77C397.174 315.907 409.694 329.854 425.094 329.854C440.493 329.854 453.014 315.907 453.014 298.77C453.014 286.909 446.802 275.912 437.187 270.752C435.609 269.905 434.487 268.399 434.13 266.653C433.774 264.897 434.21 263.079 435.324 261.68L499.577 181.083C500.718 179.648 502.455 178.811 504.291 178.811C506.127 178.811 507.865 179.648 509.006 181.083L573.258 261.68C574.372 263.079 574.809 264.906 574.453 266.653C574.096 268.408 572.973 269.905 571.396 270.752C561.78 275.912 555.569 286.909 555.569 298.77C555.569 315.907 568.09 329.854 583.489 329.854C598.888 329.854 611.409 315.907 611.409 298.77C611.409 286.953 605.501 276.313 596.001 270.984C594.352 270.057 593.229 268.417 592.971 266.537C592.712 264.665 593.345 262.776 594.691 261.439L697.388 159.134C699.26 157.271 702.112 156.843 704.446 158.064C706.781 159.285 708.056 161.879 707.592 164.472L670.466 371.81C670.128 373.726 668.88 375.357 667.124 376.194C665.93 376.765 637.262 390.239 591.171 397.083C549.242 403.312 519.726 403.161 507.116 403.098C506.065 403.098 505.129 403.09 504.327 403.09C503.525 403.09 502.589 403.09 501.538 403.098C500.121 403.098 498.481 403.116 496.645 403.116H496.618ZM349.416 366.516C357.535 369.947 382.951 379.768 419.176 385.15C460.197 391.237 489.106 391.094 501.457 391.032C502.536 391.032 503.48 391.023 504.309 391.023C505.138 391.023 506.083 391.023 507.161 391.032C519.495 391.103 548.368 391.237 589.379 385.15C625.596 379.768 651.012 369.947 659.14 366.516L692.318 181.208L608.29 264.915C617.799 273.007 623.466 285.376 623.466 298.77C623.466 322.564 605.527 341.929 583.48 341.929C561.433 341.929 543.494 322.573 543.494 298.77C543.494 284.832 549.571 272.089 559.713 264.041L504.282 194.522L448.852 264.041C458.993 272.089 465.071 284.823 465.071 298.77C465.071 322.564 447.132 341.929 425.085 341.929C403.037 341.929 385.098 322.573 385.098 298.77C385.098 285.376 390.766 273.007 400.275 264.915L316.247 181.208L349.425 366.516H349.416Z" fill="black"/>
<path d="M534.956 264.359L503.614 337.292L473.555 264.359L503.614 225.086L534.956 264.359Z" fill="#B92025"/>
<path d="M503.614 342.123H503.578C501.636 342.105 499.889 340.929 499.149 339.138L469.081 266.205C468.422 264.619 468.663 262.801 469.714 261.428L499.782 222.155C500.682 220.979 502.081 220.275 503.569 220.266H503.614C505.084 220.266 506.475 220.934 507.384 222.084L538.726 261.357C539.84 262.747 540.089 264.637 539.385 266.276L508.043 339.209C507.286 340.982 505.539 342.132 503.605 342.132L503.614 342.123ZM479.071 265.091L503.703 324.852L529.377 265.109L503.694 232.929L479.071 265.091Z" fill="black"/>
<path d="M665.797 399.713C665.797 399.713 608.566 426.314 499.55 426.314C390.534 426.314 341.485 399.713 341.485 399.713V361.312C341.485 361.312 422.946 387.299 500.762 387.299C578.579 387.299 665.797 361.312 665.797 361.312V399.713Z" fill="#FFCF00"/>
<path d="M499.55 432.345C390.258 432.345 340.665 406.127 338.606 405.013C336.664 403.961 335.452 401.92 335.452 399.71V361.31C335.452 359.385 336.369 357.576 337.929 356.435C339.489 355.295 341.485 354.974 343.32 355.562C344.131 355.82 424.826 381.263 500.771 381.263C576.716 381.263 663.221 355.785 664.086 355.526C665.912 354.983 667.891 355.33 669.415 356.471C670.939 357.612 671.839 359.403 671.839 361.31V399.71C671.839 402.054 670.475 404.193 668.345 405.182C665.957 406.287 608.646 432.345 499.559 432.345H499.55ZM347.518 395.896C359.878 401.412 408.776 420.269 499.55 420.269C590.324 420.269 645.87 401.163 659.763 395.682V369.259C636.522 375.551 565.131 393.321 500.762 393.321C436.394 393.321 369.984 375.827 347.518 369.393V395.896Z" fill="black"/>
</g>
<defs>
<clipPath id="clip0_42_11336">
<rect width="867.93" height="867.93" fill="white" transform="translate(66.0977 66)"/>
</clipPath>
</defs>
</svg>
