<svg width="1001" height="1000" viewBox="0 0 1001 1000" fill="none" xmlns="http://www.w3.org/2000/svg">
<path d="M332.339 857.966C263.516 820.141 215.475 757.47 196.923 681.425L194.77 672.608H166.057V657.574C166.057 650.439 160.255 644.637 153.121 644.637H138.098V555.668H166.352L156.093 538.241C154.782 536.001 153.569 533.652 152.52 531.237C149.067 523.36 147.308 514.947 147.308 506.228V314.325H188.914V190.96L299.102 167.12L301.659 162.607C303.396 159.526 305.21 156.5 307.078 153.528C348.99 86.825 421.221 47 500.281 47C543.056 47 584.859 59.0622 621.166 81.8756C653.059 101.925 679.685 129.829 698.15 162.574L700.696 167.098L810.96 190.96V317.755L817.341 320.957C823.733 324.158 829.458 328.354 834.374 333.423C839.805 339.05 844.186 345.606 847.376 352.871C850.84 360.738 852.588 369.151 852.588 377.87V506.25C852.588 514.969 850.829 523.392 847.365 531.281C846.306 533.685 845.104 536.045 843.793 538.274L833.61 555.668H861.777V644.637H846.753C839.619 644.637 833.817 650.439 833.817 657.574V672.608H805.628L803.52 681.491C785.699 756.432 737.341 821.102 670.813 858.906L499.822 953L332.339 857.966Z" fill="#E2E3E2"/>
<path d="M833.621 358.895C831.141 353.246 827.776 348.198 823.591 343.871C819.275 339.414 814.129 335.852 808.306 333.295C804.394 331.58 800.242 330.476 795.937 329.875V203.08L690.502 180.256C673.687 146.21 647.596 116.241 613.157 94.5853C513.83 32.1655 382.227 62.1899 319.796 161.528C315.939 167.669 312.443 173.929 309.285 180.288L203.949 203.091V329.362H162.332V506.253C162.332 512.885 163.665 519.276 166.276 525.22C168.789 530.967 172.296 536.091 176.645 540.44C181.004 544.799 186.128 548.296 191.875 550.819C195.732 552.513 199.786 553.606 203.949 554.206V615.282C203.949 710.873 255.989 798.86 339.769 844.902L499.954 935.795L663.406 845.852C745.165 799.384 795.959 712.097 795.959 618.068V554.239C800.264 553.649 804.416 552.546 808.327 550.819C814.162 548.252 819.308 544.701 823.613 540.243C827.797 535.916 831.174 530.869 833.632 525.253C836.254 519.287 837.587 512.895 837.587 506.263V377.884C837.587 371.252 836.254 364.871 833.632 358.916" fill="#22294D"/>
<path d="M507.022 162.889C526.438 152.148 561.969 140.796 573.594 137.213C572.589 129.422 569.77 111.307 564.318 101.518C556.604 98.6114 520.068 85.4347 493.573 85.5002C489.202 86.4727 454.217 94.6015 432.693 110.63L437.435 144.981L507.022 162.9V162.889Z" fill="white"/>
<path d="M382.445 209.587L428.433 147.451L423.691 113.133C414.426 113.209 389.646 114.597 367.597 126.178C354.562 137.913 342.872 151.581 333.093 167.151C329.75 172.472 326.712 177.913 323.948 183.419C324.724 189.483 331.039 209.521 336.251 224.818L382.445 209.587Z" fill="white"/>
<path d="M478.627 329.348H561.696L566.766 297.324L508.116 249.469L432.115 278.849C427.974 293.905 424.969 314.27 423.123 329.348H478.627Z" fill="white"/>
<path d="M513.534 241.971L572.6 290.155L633.075 267.112C634.659 257.705 639.74 223.332 635.14 193.274C630.431 188.085 606.033 161.906 578.019 145.539C569.191 148.227 531.988 159.885 512.311 170.538L513.534 241.971Z" fill="white"/>
<path d="M665.973 324.138C672.441 321.582 682.351 317.419 687.311 314.392C697.767 268.864 691.299 221.194 669.994 180.375L644.558 193.792C649.158 226.537 643.345 262.287 641.969 269.946L665.962 324.149L665.973 324.138Z" fill="white"/>
<path d="M684.121 326.453C681.969 327.458 679.762 328.442 677.62 329.359H683.149C683.455 328.387 683.826 327.426 684.121 326.453Z" fill="white"/>
<path d="M401.882 329.347H413.792C415.66 313.876 418.785 292.352 423.253 276.214L383.472 218.984L336.622 234.434C324.341 258.744 325.313 298.645 325.521 304.239C328.395 312.783 332.907 321.404 337.835 329.347H401.893H401.882Z" fill="white"/>
<path d="M327.051 329.35C323.5 323.177 320.266 316.676 317.807 310.109L307.657 311.136C308.968 317.288 310.607 323.352 312.497 329.35H327.051Z" fill="white"/>
<path d="M181.08 542.742H818.805C818.805 558.181 831.326 570.702 846.764 570.702V629.614C831.326 629.614 818.805 642.135 818.805 657.574H181.08C181.08 642.135 168.559 629.614 153.121 629.614V570.702C168.559 570.702 181.08 558.181 181.08 542.742Z" fill="#D2283D"/>
<path d="M243.26 595.151H257.518V605.192H243.26V634.212H232.214V563.914H261.441V573.955H243.26V595.151Z" fill="white"/>
<path d="M292.372 563.914V618.139C292.372 623.165 294.579 624.968 298.097 624.968C301.616 624.968 303.823 623.165 303.823 618.139V563.914H314.268V617.44C314.268 628.694 308.641 635.118 297.802 635.118C286.964 635.118 281.337 628.694 281.337 617.44V563.914H292.383H292.372Z" fill="white"/>
<path d="M333.639 563.914H367.783V573.955H356.234V634.212H345.188V573.955H333.639V563.914Z" fill="white"/>
<path d="M420.697 580.089V582.602C420.697 589.824 418.49 594.446 413.562 596.762C419.484 599.068 421.8 604.399 421.8 611.829V617.554C421.8 628.393 416.075 634.227 405.029 634.227H387.657V563.93H404.33C415.78 563.93 420.697 569.251 420.697 580.1M398.703 573.971V592.545H403.019C407.138 592.545 409.651 590.742 409.651 585.115V581.193C409.651 576.178 407.946 573.96 404.024 573.96H398.703V573.971ZM398.703 602.597V624.186H405.029C408.744 624.186 410.754 622.482 410.754 617.259V611.13C410.754 604.596 408.646 602.597 403.631 602.597H398.703Z" fill="white"/>
<path d="M442.582 580.788C442.582 569.534 448.504 563.109 459.353 563.109C470.203 563.109 476.125 569.534 476.125 580.788V617.346C476.125 628.599 470.203 635.024 459.353 635.024C448.504 635.024 442.582 628.599 442.582 617.346V580.788ZM453.628 618.045C453.628 623.071 455.835 624.972 459.353 624.972C462.871 624.972 465.078 623.06 465.078 618.045V580.088C465.078 575.062 462.871 573.161 459.353 573.161C455.835 573.161 453.628 575.073 453.628 580.088V618.045Z" fill="white"/>
<path d="M498.314 563.914H509.361V624.171H527.53V634.212H498.314V563.914Z" fill="white"/>
<path d="M610.076 608.004V617.346C610.076 628.599 604.449 635.024 593.611 635.024C582.772 635.024 577.145 628.599 577.145 617.346V580.788C577.145 569.534 582.772 563.109 593.611 563.109C604.449 563.109 610.076 569.534 610.076 580.788V587.616H599.631V580.088C599.631 575.062 597.424 573.161 593.906 573.161C590.387 573.161 588.18 575.073 588.18 580.088V618.045C588.18 623.071 590.387 624.874 593.906 624.874C597.424 624.874 599.631 623.071 599.631 618.045V608.004H610.076Z" fill="white"/>
<path d="M631.862 563.914H642.909V624.171H661.078V634.212H631.862V563.914Z" fill="white"/>
<path d="M691.507 563.914V618.139C691.507 623.165 693.714 624.968 697.232 624.968C700.75 624.968 702.957 623.165 702.957 618.139V563.914H713.403V617.44C713.403 628.694 707.776 635.118 696.937 635.118C686.099 635.118 680.472 628.694 680.472 617.44V563.914H691.518H691.507Z" fill="white"/>
<path d="M769.026 580.089V582.602C769.026 589.824 766.819 594.446 761.892 596.762C767.814 599.068 770.13 604.399 770.13 611.829V617.554C770.13 628.393 764.405 634.227 753.359 634.227H735.986V563.93H752.659C764.11 563.93 769.026 569.251 769.026 580.1M747.033 573.971V592.545H751.348C755.467 592.545 757.98 590.742 757.98 585.115V581.193C757.98 576.178 756.276 573.96 752.353 573.96H747.033V573.971ZM747.033 602.597V624.186H753.359C757.073 624.186 759.084 622.482 759.084 617.259V611.13C759.084 604.596 756.975 602.597 751.96 602.597H747.033Z" fill="white"/>
<path d="M755.664 333.307C760.668 331.11 766.054 329.876 771.692 329.515V222.649L752.55 218.508V334.88C753.577 334.334 754.582 333.776 755.664 333.307Z" fill="#D2283D"/>
<path d="M748.89 657.57C742.269 693.364 726.842 726.819 704.291 754.931L668.858 657.57H619.713L668.126 790.594C659.899 797.007 651.169 802.885 641.947 808.119L624.499 817.701L566.22 657.581H517.075L583.537 840.186L538.959 864.66L463.592 657.581H414.448L497.004 884.414L429.558 846.054L360.954 657.57H311.809L367.586 810.806L360.648 806.862C303.331 775.363 263.845 720.329 251.465 657.57H231.984C244.593 727.365 287.958 788.769 351.416 823.644L499.921 908.004L651.387 824.759C713.96 789.195 756.538 727.289 768.349 657.57H748.868H748.89Z" fill="#D2283D"/>
<path d="M247.335 329.351V218.508L228.193 222.649V329.351H247.335Z" fill="#D2283D"/>
<path d="M177.726 342.841H254.175V503.136C254.175 507.342 253.355 511.308 251.706 515.056C250.067 518.804 247.827 522.092 244.997 524.922C242.156 527.752 238.879 529.992 235.131 531.631C231.383 533.28 227.406 534.1 223.211 534.1H208.69C204.484 534.1 200.518 533.28 196.77 531.631C193.022 529.981 189.734 527.752 186.904 524.922C184.074 522.092 181.834 518.804 180.195 515.056C178.546 511.308 177.726 507.342 177.726 503.136V415.455H208.417V503.136C208.417 503.321 208.504 503.409 208.69 503.409H223.211L223.484 503.136V373.532H208.417V389.145H177.726V342.841ZM265.123 388.534H295.814V534.089H265.123V388.534ZM265.123 342.109H295.814V378.493H265.123V342.109ZM306.772 342.841H383.221V503.136C383.221 507.342 382.402 511.308 380.752 515.056C379.113 518.804 376.873 522.092 374.043 524.922C371.213 527.752 367.925 529.992 364.177 531.631C360.429 533.28 356.463 534.1 352.257 534.1H337.736C333.53 534.1 329.564 533.28 325.816 531.631C322.069 529.981 318.78 527.752 315.95 524.922C313.12 522.092 310.88 518.804 309.242 515.056C307.592 511.308 306.772 507.342 306.772 503.136V415.455H337.463V503.136C337.463 503.321 337.551 503.409 337.736 503.409H352.257L352.53 503.136V373.532H337.463V389.145H306.772V342.841ZM472.54 466.621V494.952H441.85V466.621H424.86V494.952H394.169V466.621L404.822 342.841H461.888L472.53 466.621H472.54ZM439.522 442.213L433.218 368.55L427.187 442.213H439.511H439.522ZM529.53 342.841H560.221V534.089H529.53V510.795L514.463 458.186V534.078H483.772V342.83H514.463V368.31L529.53 421.191V342.83V342.841ZM571.18 342.841H647.355V373.532H624.618V534.1H593.928V373.532H571.191V342.841H571.18ZM735.025 342.841V373.532H689.267V423.125H732.829V453.816H689.267V503.409H735.025V534.1H658.576V342.852H735.025V342.841ZM803.389 345.311C807.136 346.96 810.381 349.2 813.113 352.03C815.855 354.86 818.04 358.149 819.69 361.896C821.34 365.644 822.159 369.61 822.159 373.816V415.466H791.468V373.816L791.195 373.543H776.948C776.762 373.543 776.675 373.642 776.675 373.816V423.136H822.159V503.147C822.159 507.353 821.34 511.319 819.69 515.067C818.051 518.814 815.855 522.103 813.113 524.933C810.37 527.763 807.125 530.003 803.389 531.641C799.641 533.291 795.577 534.111 791.195 534.111H776.948C772.567 534.111 768.491 533.291 764.754 531.641C761.007 529.992 757.773 527.763 755.03 524.933C752.288 522.103 750.092 518.814 748.453 515.067C746.814 511.319 745.984 507.353 745.984 503.147V461.497H776.675V503.147C776.675 503.332 776.762 503.42 776.948 503.42H791.195C791.37 503.42 791.468 503.332 791.468 503.147V453.827H745.984V373.816C745.984 369.621 746.803 365.644 748.453 361.896C750.103 358.149 752.288 354.86 755.03 352.03C757.773 349.2 761.007 346.96 764.754 345.311C768.502 343.661 772.567 342.841 776.948 342.841H791.195C795.577 342.841 799.641 343.661 803.389 345.311ZM472.54 508.708H394.18V534.1H472.54V508.708Z" fill="white"/>
</svg>
