<svg width="1001" height="1000" viewBox="0 0 1001 1000" fill="none" xmlns="http://www.w3.org/2000/svg">
<g clip-path="url(#clip0_42_11501)">
<path d="M181.098 810.829V303.754L377.869 215.505C376.7 156.969 416.266 103.276 473.644 87.9012L603.942 53L613.75 89.6045C621.933 88.0014 630.249 87.1998 638.565 87.1998C661.142 87.1998 683.463 93.2004 703.124 104.545L819.929 171.998L752.364 289.026L785.228 303.765V810.84L483.163 946.304L181.098 810.829Z" fill="white"/>
<path d="M708.679 312.872L696.567 307.439L703.024 296.262L709.481 285.084L728.15 252.755L766.013 187.172L736.411 170.083L685.133 140.481C671.785 132.777 656.634 128.703 641.326 128.703C639.2 128.703 637.073 128.803 634.958 128.959C629.436 129.359 623.925 130.272 618.537 131.72C617.591 131.976 616.667 132.287 615.732 132.566C613.361 133.289 611.023 134.091 608.752 135.015C605.59 136.306 602.517 137.765 599.534 139.379C596.561 140.993 593.689 142.752 590.928 144.678C590.193 145.19 589.425 145.647 588.713 146.17L581.521 119.329L577.368 103.832L487.148 128.001C484.232 128.781 481.382 129.705 478.61 130.762C475.838 131.82 473.155 133 470.549 134.302C467.944 135.605 465.428 137.03 462.99 138.566C461.076 139.78 459.239 141.082 457.435 142.418C454.084 144.912 450.945 147.639 448.017 150.556C447.037 151.536 446.091 152.527 445.156 153.551C443.708 155.143 442.295 156.757 440.97 158.449C439.578 160.219 438.276 162.045 437.029 163.904C435.927 165.541 434.869 167.211 433.878 168.914C432.698 170.951 431.629 173.044 430.616 175.16C430.238 175.95 429.87 176.752 429.514 177.564C427.622 181.884 426.063 186.348 424.872 190.935C423.681 195.521 422.857 200.219 422.423 204.995C422.167 207.801 422.055 210.617 422.077 213.467C422.111 217.954 422.5 222.485 423.246 227.016C423.714 229.844 424.315 232.671 425.072 235.499L426.219 239.763L414.017 245.229L401.816 250.695L339.216 278.772L279.589 305.513L224.627 330.161V668.953L235.526 673.84L485.913 786.125L730.232 676.557L747.199 668.953V330.15L720.78 318.305L708.668 312.872H708.679ZM599.589 183.298C606.636 171.085 618.025 162.346 631.652 158.694C645.278 155.054 659.506 156.924 671.718 163.971L722.462 193.273L677.686 270.823L671.229 282.001L664.772 293.178L633.388 347.528L622.345 306.315L637.096 280.776L643.553 269.599L650.01 258.422L681.237 204.327L656.622 190.111C651.39 187.094 645.3 186.281 639.445 187.851C633.611 189.421 628.735 193.161 625.707 198.394L603.653 236.579L592.609 195.366L599.567 183.309L599.589 183.298ZM496.177 154.865L552.776 139.702L558.665 161.689L575.587 224.856L575.643 225.046L579.929 241.043L584.215 257.041L586.631 266.07L605.323 335.816L616.366 377.03L635.47 448.335L652.637 457.987L677.418 471.926C690.11 479.251 698.816 490.84 702.812 503.843C704.326 508.753 705.161 513.863 705.284 519.028C705.35 521.867 705.217 524.717 704.849 527.556L705.718 527.756L704.571 532.788L678.754 646.086L485.924 732.243L291.279 645.274L289.219 522.936L288.985 508.964L288.752 494.993L286.113 338.232H425.94C435.581 338.232 444.61 340.871 452.392 345.413L452.325 345.335L462.545 351.079L499.695 371.976L530.188 389.12L536.478 392.66L575.175 414.425L598.71 427.662L584.493 374.592L573.45 333.378L565.323 303.042L554.279 261.828L548.735 241.143L544.449 225.146L540.163 209.148L531.457 176.663L504.003 184.021C500.552 184.945 497.569 186.704 495.053 188.92C493.405 190.378 491.913 191.992 490.744 193.84C489.742 195.421 488.941 197.125 488.351 198.917C488.251 199.229 488.195 199.563 488.106 199.885C487.059 203.648 486.915 207.712 487.995 211.742L488.651 214.202L518.164 324.35L521.949 338.488L526.803 356.59L520.491 352.939L489.854 335.249L460.185 224.522L458.849 219.546C458.148 216.93 457.725 214.302 457.435 211.686C456.901 206.866 457.023 202.09 457.78 197.459C461.031 177.587 475.515 160.42 496.188 154.876" fill="#4BBAB4"/>
<path d="M476.695 374.727L475.648 373.469C475.871 374.103 476.138 374.716 476.339 375.361C476.461 375.15 476.561 374.938 476.684 374.727" fill="#4BBAB4"/>
<path d="M420.129 534.092H448.562V391.047C448.562 387.139 447.56 383.466 445.812 380.248C441.971 373.201 434.501 368.414 425.929 368.414H397.507V511.459C397.507 523.939 407.66 534.092 420.14 534.092" fill="#4BBAB4"/>
<path d="M337.68 487.134C338.092 487.156 338.481 487.234 338.904 487.234H367.326V368.414H316.271V427.618L317.318 471.392C318.331 474.621 320.09 477.515 322.339 479.942C326.213 484.128 331.624 486.811 337.691 487.134" fill="#4BBAB4"/>
<path d="M566.391 442.669L560.736 439.407L546.831 431.38L540.519 427.728L509.881 410.038L497.134 402.68C496.288 405.318 495.654 408.012 495.153 410.718C494.34 415.204 494.006 419.768 494.151 424.344C494.318 429.298 495.019 434.263 496.333 439.173C496.355 439.262 496.389 439.351 496.422 439.44C500.964 456.106 511.674 470.033 526.647 478.672L528.573 479.785L535.208 483.615L551.195 492.844L602.05 522.212L615.197 529.805L607.638 542.863L600.079 555.922L600.035 555.9L580.151 590.345C574.284 592.772 567.471 594.62 560.168 594.787C559.801 594.787 559.456 594.831 559.088 594.831C555.392 594.831 551.83 594.352 548.434 593.618L544.671 591.447L573.906 540.804L520.135 509.755L511.574 504.812C498.036 496.996 486.881 486.22 478.743 473.373V564.272H420.14C393.043 564.272 370.666 543.743 367.694 517.425H338.916C331.613 517.425 324.655 515.933 318.32 513.239L320.992 625.524L485.935 699.223L636.339 632.026L652.704 624.711L654.763 615.694L660.441 590.779L663.948 575.382L675.17 526.12L674.535 526.086C675.025 523.938 675.203 521.756 675.136 519.607C675.058 517.169 674.657 514.753 673.912 512.449C672.654 508.563 670.416 505.023 667.432 502.073C665.918 500.581 664.282 499.201 662.356 498.087L620.953 474.185L611.88 468.953L583.992 452.855L566.402 442.702L566.391 442.669Z" fill="#4BBAB4"/>
<path d="M802.072 177.497L779.205 164.294L698.326 117.592C680.97 107.572 661.254 102.273 641.315 102.273C631.34 102.273 621.376 103.587 611.691 106.181C609.709 106.715 607.738 107.294 605.801 107.929L602.862 96.9739L596.027 71.4688L570.522 78.3043L480.302 102.473C425.261 117.224 390.371 170.016 396.327 224.99L198.943 313.517V801.065L485.913 929.76L772.882 801.065V313.517L733.683 295.939L788.868 200.364L802.072 177.497ZM728.139 252.743L709.47 285.073L703.013 296.25L696.556 307.428L708.668 312.86L720.78 318.293L747.198 330.138V668.931L730.232 676.534L485.913 786.103L235.526 673.807L224.627 668.919V330.15L279.589 305.502L339.216 278.761L401.816 250.684L414.017 245.218L426.219 239.74L425.072 235.477C424.315 232.649 423.714 229.821 423.246 226.993C422.5 222.462 422.111 217.931 422.077 213.445C422.055 210.606 422.166 207.778 422.422 204.973C423.28 195.421 425.729 186.17 429.514 177.542C429.87 176.729 430.238 175.939 430.616 175.137C431.629 173.011 432.698 170.918 433.878 168.892C434.869 167.188 435.927 165.518 437.029 163.882C438.276 162.023 439.578 160.186 440.97 158.427C442.294 156.746 443.708 155.12 445.156 153.528C446.08 152.515 447.037 151.513 448.017 150.534C450.945 147.617 454.084 144.889 457.435 142.396C459.239 141.049 461.075 139.746 462.99 138.544C465.417 137.007 467.944 135.582 470.549 134.28C473.154 132.977 475.849 131.797 478.609 130.74C481.382 129.682 484.22 128.769 487.148 127.979L577.368 103.809L581.521 119.306L588.713 146.147C589.425 145.613 590.193 145.156 590.928 144.656C593.689 142.718 596.561 140.959 599.534 139.345C605.49 136.117 611.824 133.478 618.537 131.686C623.925 130.239 629.436 129.326 634.958 128.925C637.084 128.769 639.2 128.669 641.326 128.669C656.633 128.669 671.785 132.743 685.133 140.447L736.411 170.049L766.013 187.149L728.15 252.732L728.139 252.743Z" fill="#010101"/>
<path d="M631.64 158.694C618.014 162.345 606.636 171.085 599.578 183.297L592.62 195.354L603.664 236.567L625.718 198.382C628.735 193.139 633.611 189.398 639.456 187.839C645.311 186.27 651.401 187.082 656.633 190.099L681.248 204.316L650.021 258.41L643.564 269.587L637.106 280.765L622.356 306.303L633.399 347.517L664.783 293.166L671.24 281.989L677.697 270.812L722.473 193.261L671.729 163.96C659.517 156.901 645.289 155.031 631.663 158.683" fill="#010101"/>
<path d="M677.418 471.935L652.637 457.997L635.47 448.345L616.366 377.04L605.323 335.826L586.631 266.091L584.215 257.062L579.929 241.064L575.643 225.066L575.587 224.877L558.665 161.71L552.776 139.723L496.177 154.885C475.492 160.43 461.009 177.596 457.769 197.468C457.012 202.1 456.89 206.875 457.424 211.696C457.713 214.312 458.136 216.939 458.838 219.556L460.174 224.532L489.843 335.258L520.48 352.948L526.792 356.6L521.938 338.498L518.153 324.359L488.64 214.212L487.983 211.752C486.904 207.71 487.048 203.658 488.095 199.895C488.184 199.572 488.239 199.238 488.34 198.927C488.919 197.134 489.731 195.442 490.733 193.85C491.891 192.002 493.383 190.388 495.042 188.929C497.558 186.714 500.541 184.955 503.992 184.031L531.446 176.672L540.151 209.158L544.438 225.155L548.724 241.153L554.268 261.838L565.311 303.051L573.438 333.388L584.482 374.602L598.699 427.671L575.164 414.435L536.467 392.67L530.177 389.13L499.684 371.985L462.534 351.089L452.314 345.345L452.381 345.423C444.588 340.892 435.57 338.242 425.929 338.242H286.102L288.74 495.002L288.974 508.974L289.208 522.946L291.268 645.272L485.913 732.242L678.743 646.085L704.56 532.787L705.707 527.755L704.838 527.555C705.206 524.716 705.339 521.866 705.273 519.027C705.15 513.861 704.304 508.751 702.801 503.842C698.793 490.839 690.087 479.25 677.407 471.924M476.695 374.713C476.572 374.924 476.472 375.136 476.35 375.348C476.149 374.702 475.882 374.09 475.659 373.455L476.706 374.713H476.695ZM322.328 479.929C320.079 477.502 318.32 474.607 317.307 471.379L316.261 427.605V368.401H367.315V487.221H338.893C338.482 487.221 338.081 487.143 337.669 487.12C331.613 486.798 326.191 484.115 322.317 479.929M397.485 460.302V368.412H425.907C434.479 368.412 441.949 373.199 445.79 380.246C447.538 383.452 448.54 387.137 448.54 391.045V534.09H420.118C407.638 534.09 397.485 523.936 397.485 511.457V460.313V460.302ZM583.959 452.809L611.846 468.907L620.92 474.14L662.322 498.042C664.248 499.155 665.885 500.535 667.399 502.027C670.383 504.977 672.631 508.518 673.878 512.403C674.624 514.719 675.025 517.123 675.103 519.561C675.17 521.721 675.003 523.903 674.502 526.052L675.147 526.085L663.926 575.348L660.419 590.744L654.741 615.659L652.681 624.677L636.316 631.991L485.913 699.188L320.97 625.49L318.298 513.204C324.632 515.899 331.59 517.39 338.893 517.39H367.672C370.644 543.708 393.01 564.237 420.118 564.237H478.721V473.338C486.848 486.185 498.003 496.962 511.54 504.777L520.101 509.72L573.873 540.769L544.638 591.412L548.401 593.583C551.807 594.329 555.37 594.797 559.055 594.797C559.422 594.797 559.779 594.752 560.135 594.752C567.449 594.585 574.262 592.726 580.118 590.31L600.001 555.865L600.046 555.888L607.605 542.84L615.164 529.792L602.016 522.2L551.162 492.832L535.175 483.603L528.54 479.773L526.614 478.66C511.64 470.021 500.931 456.082 496.389 439.428C496.366 439.339 496.333 439.25 496.3 439.16C494.986 434.251 494.285 429.286 494.118 424.332C493.962 419.756 494.307 415.192 495.119 410.705C495.609 407.989 496.255 405.306 497.101 402.667L509.848 410.026L540.485 427.716L546.798 431.368L560.703 439.394L566.358 442.656L583.948 452.809H583.959Z" fill="#010101"/>
<path d="M263.369 728.313C264.182 728.67 264.671 729.571 264.671 730.852V734.67C264.671 735.939 264.182 736.418 263.369 736.062L230.527 721.6V743.966L258.459 756.257C259.272 756.613 259.773 757.515 259.773 758.795V762.625C259.773 763.894 259.272 764.361 258.459 764.005L230.527 751.715V774.759L263.369 789.221C264.182 789.577 264.671 790.479 264.671 791.759V795.578C264.671 796.847 264.182 797.325 263.369 796.969L226.107 780.571C225.239 780.192 224.805 779.313 224.805 778.032V713.306C224.805 712.037 225.239 711.536 226.107 711.926L263.369 728.325V728.313Z" fill="white"/>
<path d="M278.053 795.678L308.534 809.093C309.336 809.449 309.837 810.351 309.837 811.631V815.461C309.837 816.73 309.336 817.198 308.534 816.841L273.633 801.478C272.765 801.1 272.331 800.209 272.331 798.94V734.214C272.331 732.945 272.765 732.444 273.633 732.823L276.75 734.192C277.619 734.57 278.053 735.461 278.053 736.73V795.667V795.678Z" fill="white"/>
<path d="M384.17 815.504C392.509 820.347 396.038 826.615 396.038 836.022V839.651C396.038 850.639 391.24 853.233 379.661 848.134L325.723 824.388C324.254 823.743 323.463 822.607 323.463 821.238V756.901C323.463 755.532 324.254 755.087 325.723 755.732L378.682 779.044C390.16 784.099 395.058 790.957 395.058 801.945V804.984C395.058 814.001 391.729 817.341 384.17 815.493M343.268 789.843L370.043 801.622C373.861 803.303 375.242 802.635 375.242 799.106V798.126C375.242 794.597 373.872 792.716 370.043 791.034L343.268 779.245V789.843ZM343.268 805.14V816.317L370.922 828.485C374.841 830.211 376.221 829.543 376.221 826.014V824.444C376.221 820.915 374.852 819.033 370.922 817.308L343.268 805.14Z" fill="white"/>
<path d="M453.795 869.098L420.741 854.547L417.012 862.518C416.522 863.676 415.542 863.932 413.873 863.197L397.685 856.072C396.405 855.505 395.826 854.269 396.316 853.211L423.291 800.754C423.781 799.596 424.76 799.34 426.53 800.119L448.896 809.961C450.566 810.695 451.446 811.764 452.036 813.401L478.999 889.604C479.489 891.096 478.899 891.82 477.719 891.297L460.652 883.782C458.882 883.003 458.003 881.923 457.513 880.342L453.783 869.087L453.795 869.098ZM426.731 841.789L447.716 851.029L437.218 819.345L426.72 841.789H426.731Z" fill="white"/>
<path d="M557.574 807.032V820.658C557.574 831.646 552.765 839.45 541.198 844.538L540.908 844.672L559.745 856.873C560.524 857.419 560.034 858.899 558.966 859.378L539.639 867.884C537.78 868.707 536.99 868.652 535.91 867.85L519.044 855.27L505.317 861.315V880.831C505.317 882.2 504.437 883.38 502.968 884.026L487.761 890.717C486.291 891.363 485.501 890.928 485.501 889.548V825.212C485.501 823.842 486.291 822.707 487.761 822.072L541.22 798.549C552.798 793.45 557.596 796.044 557.596 807.032M505.317 845.529L531.212 834.129C536.901 831.624 537.78 830.355 537.78 825.646V821.427C537.78 816.717 536.901 816.228 531.212 818.721L505.317 830.121V845.518V845.529Z" fill="white"/>
<path d="M637.585 771.809V785.436C637.585 796.424 632.776 804.228 621.209 809.316L620.92 809.449L639.756 821.651C640.536 822.185 640.046 823.677 638.977 824.155L619.651 832.661C617.791 833.485 617.001 833.44 615.921 832.639L599.055 820.059L585.328 826.104V845.619C585.328 846.989 584.449 848.169 582.979 848.815L567.772 855.505C566.302 856.151 565.523 855.717 565.523 854.336V790C565.523 788.62 566.302 787.495 567.772 786.85L621.231 763.326C632.809 758.227 637.608 760.821 637.608 771.809M585.328 810.306L611.223 798.906C616.912 796.402 617.791 795.132 617.791 790.423V786.204C617.791 781.495 616.912 781.005 611.223 783.51L585.328 794.91V810.306Z" fill="white"/>
<path d="M665.328 810.393C665.328 811.774 664.449 812.943 662.979 813.588L647.772 820.279C646.302 820.925 645.512 820.491 645.512 819.11V754.774C645.512 753.405 646.291 752.269 647.772 751.623L662.979 744.933C664.449 744.287 665.328 744.677 665.328 746.046V810.382V810.393Z" fill="white"/>
<path d="M746.943 760.942C746.943 771.93 742.044 778.788 730.566 783.842L688.685 802.278C677.307 807.288 672.208 804.816 672.208 793.839V756.578C672.208 745.59 677.307 738.643 688.685 733.633L730.566 715.209C742.044 710.154 746.943 712.704 746.943 723.692V760.953V760.942ZM727.126 738.766C727.126 733.466 726.046 732.965 719.578 735.815L699.573 744.621C693.194 747.427 692.025 748.93 692.025 754.218V778.732C692.025 784.031 693.205 784.499 699.573 781.682L719.578 772.876C726.058 770.026 727.126 768.568 727.126 763.28V738.766Z" fill="white"/>
</g>
<defs>
<clipPath id="clip0_42_11501">
<rect width="638.82" height="893.293" fill="white" transform="translate(181.098 53)"/>
</clipPath>
</defs>
</svg>
