<svg width="161" height="161" viewBox="0 0 161 161" fill="none" xmlns="http://www.w3.org/2000/svg">
<g clip-path="url(#clip0_406_23131)">
<path d="M80.2224 154.632C91.1984 154.632 96.1456 148.237 96.1456 148.237V144.144C139.013 101.277 128.27 52.7331 128.27 52.7331H121.122V41.6148H105.742L92.592 28.4644H80.2224H67.8528L54.7024 41.6148H39.3232V52.7331H32.1744C32.1744 52.7331 21.4304 101.277 64.2976 144.146V148.239C64.2976 148.239 69.2448 154.634 80.2208 154.634L80.2224 154.632Z" fill="#E62D4F"/>
<path d="M116.971 81.2244L110.573 68.5124C110.45 68.2692 110.277 68.0532 110.067 67.8788C106.219 64.7044 98.5474 65.7476 97.6866 65.8772C97.0098 65.9796 96.4338 66.426 96.1666 67.0564L95.6402 68.298L94.0226 69.4868C93.373 69.9636 93.0914 70.7764 93.2754 71.5348L93.2098 71.586C92.5378 72.1076 92.277 73.002 92.5634 73.8036L92.8802 74.6868C92.8178 74.8148 92.7682 74.9524 92.7346 75.0948C92.085 77.8564 93.7906 82.2052 94.1394 83.05C94.3778 83.626 94.8754 84.0564 95.4802 84.2084L98.7682 85.0324L99.237 85.6708L88.8114 96.546L86.469 97.5268C86.485 97.426 86.4962 97.3236 86.4962 97.2212C86.4962 92.4708 84.1186 89.9796 83.8482 89.7124C83.6066 89.474 83.3106 89.3044 82.9922 89.2148L80.221 80.1108C79.9954 77.5828 79.2658 75.1668 78.0514 72.9236C78.0338 72.8852 78.013 72.8468 77.9922 72.8084C77.973 72.7732 77.9522 72.738 77.9266 72.6948C77.8146 72.4948 77.6978 72.2964 77.5778 72.1012L77.5378 72.034C77.5058 71.9812 77.4738 71.9284 77.4386 71.8708C77.253 71.5748 77.077 71.3092 76.8994 71.0564C76.893 71.0468 76.8834 71.034 76.8738 71.0212C76.7202 70.8036 76.5602 70.5908 76.4018 70.3844L76.245 70.1844C76.1026 70.0052 75.9586 69.8292 75.813 69.658L75.701 69.5252C75.5218 69.3188 75.3378 69.1172 75.1506 68.9204L74.9906 68.7556C74.8402 68.602 74.6882 68.45 74.5282 68.298L74.3778 68.154C74.181 67.9684 73.9794 67.7876 73.7762 67.6132C73.741 67.5828 73.7042 67.5524 73.6674 67.522L73.6434 67.5028C73.4722 67.3588 73.2978 67.218 73.1282 67.0852C73.0674 67.0372 73.005 66.9876 72.9458 66.9444C72.7298 66.7796 72.5122 66.618 72.2962 66.4692L72.2466 66.4356C72.0386 66.2916 71.8258 66.1524 71.6082 66.0148L71.4226 65.8996C71.2242 65.778 71.0242 65.658 70.8002 65.5316L70.7186 65.4836C70.4866 65.354 70.2514 65.2308 70.021 65.1156C69.973 65.0916 69.925 65.0676 69.8754 65.0436L69.8226 65.018C69.6306 64.9236 69.437 64.834 69.237 64.7444L68.9938 64.6356C68.9602 64.6212 68.9266 64.6068 68.893 64.5956C65.0018 62.954 60.6418 62.6772 56.5858 63.8132C56.5426 63.8228 56.4978 63.834 56.4546 63.8452C56.3762 63.8676 56.2994 63.8916 56.2226 63.9156L56.085 63.9588C55.9986 63.9844 55.9106 64.0116 55.8258 64.0388C55.6162 64.1076 55.4066 64.1812 55.2066 64.2548L55.1714 64.2676C55.1218 64.2836 55.0738 64.3012 55.0274 64.3188C54.7714 64.4164 54.5074 64.5236 54.2418 64.6372C54.189 64.6612 54.1346 64.6852 54.0818 64.7092L54.0146 64.7396C53.8274 64.8228 53.6402 64.9092 53.4562 65.0004C53.3618 65.0452 53.269 65.0932 53.1826 65.138C53.0098 65.226 52.837 65.3156 52.6642 65.4116C52.5762 65.4596 52.4866 65.5092 52.3986 65.5588C52.2178 65.6612 52.0386 65.7684 51.8642 65.8772L51.805 65.914C51.7506 65.946 51.6962 65.9796 51.6418 66.0148C51.3746 66.1844 51.1314 66.346 50.8978 66.5092C50.669 66.6692 50.4354 66.842 50.1858 67.0356C50.1282 67.0788 50.0738 67.1236 50.0178 67.17L49.9698 67.2084C49.8114 67.3348 49.653 67.4628 49.501 67.594C49.4178 67.6644 49.3362 67.7364 49.2546 67.8084C49.1154 67.9316 48.9794 68.0564 48.845 68.1812C48.7634 68.258 48.6818 68.3332 48.6034 68.41C48.4642 68.546 48.3282 68.6836 48.1954 68.8212L48.141 68.8772C48.0914 68.9268 48.0434 68.9764 47.9954 69.0292C47.7986 69.2388 47.6114 69.4484 47.4402 69.6484C47.4018 69.6932 47.365 69.738 47.3282 69.7844L47.2866 69.8356C47.157 69.9908 47.029 70.146 46.9026 70.3076C46.845 70.3828 46.789 70.4564 46.733 70.5316L46.6418 70.6516C46.5954 70.7108 46.5506 70.7716 46.5058 70.8324C46.4786 70.8692 46.4546 70.9076 46.429 70.946C43.8866 74.5076 42.6754 78.8692 43.013 83.2468C43.0274 83.426 43.0434 83.6036 43.061 83.7796C43.0706 83.8772 43.0818 83.9764 43.0946 84.0788C43.1218 84.2964 43.1522 84.514 43.1858 84.7364L43.213 84.9028C43.253 85.1428 43.2994 85.3812 43.349 85.6196C43.365 85.6996 43.3826 85.7796 43.4002 85.858C43.4482 86.0756 43.501 86.2932 43.5586 86.5124L43.5922 86.6484C43.6626 86.9092 43.7394 87.1684 43.821 87.4276L43.8802 87.6068C43.9522 87.8276 44.029 88.0484 44.1074 88.2596L44.1618 88.4052C44.261 88.6676 44.3682 88.93 44.4786 89.186L44.5298 89.2996C44.6306 89.53 44.7378 89.7588 44.8498 89.986L44.917 90.122C45.0578 90.402 45.1906 90.6564 45.3266 90.8964C45.3314 90.9044 45.3378 90.9156 45.3426 90.9252C45.4706 91.154 45.6114 91.3908 45.773 91.65L45.853 91.7764C46.0338 92.0612 46.1906 92.298 46.3522 92.5284C46.3778 92.5652 46.405 92.6004 46.4322 92.6356C46.5906 92.8564 46.7506 93.0724 46.9138 93.2804C46.9746 93.3572 47.0354 93.434 47.0962 93.5092L47.1266 93.546C47.2658 93.7188 47.4082 93.8884 47.5522 94.0548L47.5698 94.0772C47.605 94.1204 47.6402 94.162 47.677 94.2036C47.7058 94.2356 47.7362 94.2676 47.7666 94.298C48.829 95.4788 50.0338 96.5156 51.3506 97.3828L53.0946 99.1444C52.8194 99.7492 52.8594 100.477 53.2562 101.063L58.9794 109.508C58.701 109.738 58.4834 110.042 58.365 110.394C58.1634 110.989 58.2594 111.647 58.621 112.16L61.2578 115.895C61.4962 116.234 61.8338 116.484 62.2146 116.618L61.8946 117.2C61.5618 117.805 61.5698 118.538 61.9154 119.135C62.261 119.732 62.893 120.104 63.5826 120.117L67.6178 120.192C67.6306 120.192 67.6434 120.192 67.6546 120.192C68.6306 120.192 69.4626 119.476 69.6018 118.506L69.941 116.162L73.3538 119.608C73.7378 119.996 74.245 120.192 74.7538 120.192C75.2034 120.192 75.6546 120.039 76.0226 119.728C76.0514 119.704 76.0786 119.677 76.1058 119.652C76.9346 120.228 77.8306 120.78 78.8002 121.274L79.0418 122.028C79.2754 122.754 79.9074 123.28 80.6642 123.378L85.6002 124.015C85.6834 124.026 85.7682 124.031 85.8514 124.031C86.1538 124.031 86.453 123.962 86.725 123.826C87.093 123.644 88.7058 122.826 89.8866 121.944L94.0146 122.05C94.7538 122.063 95.4578 121.821 96.0194 121.351L99.677 118.29C99.8258 118.17 99.9698 118.048 100.111 117.927L100.173 117.876C100.211 117.844 100.248 117.81 100.283 117.776C102.535 115.775 103.627 113.754 103.674 113.668C103.69 113.639 103.704 113.608 103.719 113.58L117.053 85.2836C117.658 84.0004 117.626 82.4868 116.968 81.2292L116.971 81.2244Z" fill="white"/>
<path d="M142.599 32.0705C142.56 31.5329 142.437 30.9745 142.223 30.3617C142.117 30.0593 142 29.7825 141.872 29.5281C142.151 29.1665 142.309 28.7185 142.309 28.2417V23.6801C142.309 22.9201 141.901 22.2193 141.239 21.8449C139.239 20.7121 138.189 20.1489 136.133 19.1089C135.607 18.8433 135.071 18.6433 134.538 18.5185C134.178 18.4337 133.821 18.4193 133.474 18.4577C133.282 17.9569 132.907 17.5361 132.405 17.2993C129.642 16.0017 126.792 14.8033 123.933 13.7377C123.445 13.5569 122.917 13.5681 122.445 13.7473C122.119 13.4225 121.763 13.1521 121.381 12.9457C120.898 12.6833 120.4 12.4657 119.901 12.2961C117.365 11.4385 116.04 11.0305 113.459 10.3105C112.986 10.1777 112.491 10.2209 112.055 10.4113C111.893 10.2833 111.723 10.1665 111.543 10.0625C111.229 9.88012 110.877 9.71692 110.491 9.57932C110.149 9.45612 109.76 9.34252 109.336 9.23852C108.365 9.00332 107.858 8.88652 106.872 8.66892C106.328 8.54892 105.779 8.48012 105.239 8.46412C104.469 8.44492 103.741 8.68332 103.125 9.14892C103.112 9.13292 103.101 9.11532 103.088 9.09932C103.077 9.08492 103.064 9.07052 103.053 9.05612C102.453 8.33132 101.735 7.84332 100.912 7.60172C100.416 7.45612 99.9315 7.34732 99.4691 7.27372C96.9235 6.87372 95.6019 6.70092 93.0403 6.43372C92.4931 6.37932 91.9523 6.54092 91.5251 6.87372C91.1731 6.47692 90.6803 6.21132 90.1203 6.16652C87.9251 5.99052 86.7859 5.92492 84.5779 5.84652C83.4979 5.81132 82.5651 6.59212 82.4147 7.66092L81.3363 15.3393C80.3779 15.3313 79.7523 15.3297 78.8995 15.3393V14.2257L79.5667 11.5089C79.7027 10.9569 79.5731 10.3729 79.2179 9.92972C79.2131 9.92332 79.2067 9.91852 79.2019 9.91212L79.5699 8.41292C79.7267 7.77612 79.5779 7.10252 79.1667 6.59052C78.7555 6.07692 78.1251 5.78892 77.4739 5.80012C75.4435 5.84492 74.3923 5.88972 72.3619 6.01932C72.2723 6.02572 72.1827 6.03852 72.0947 6.05452C72.0035 6.04812 71.9123 6.04812 71.8195 6.05452C69.7763 6.19372 68.7203 6.28652 66.6819 6.51052C66.6003 6.52012 66.5203 6.53452 66.4403 6.55212C66.3587 6.55212 66.2771 6.55532 66.1955 6.56492C64.4963 6.75852 63.6179 6.87372 61.9219 7.12812C61.6067 7.17612 61.3171 7.29132 61.0659 7.45772C60.7715 7.37452 60.4595 7.35532 60.1491 7.40492C58.4531 7.68332 57.5763 7.84332 55.8819 8.18252C55.3843 8.28172 54.9427 8.55692 54.6339 8.95372C54.4579 8.90732 54.2787 8.87052 54.0915 8.85132C53.7331 8.81452 53.3395 8.82092 52.9235 8.87052C52.5747 8.91212 52.1779 8.98412 51.7459 9.08652C50.7651 9.31852 50.2595 9.44332 49.2899 9.69292C48.7587 9.83052 48.2307 10.0161 47.7187 10.2465C47.3955 10.3921 47.0931 10.5857 46.8131 10.8177C46.3827 10.6465 45.8995 10.6161 45.4403 10.7505C43.4563 11.3313 42.4355 11.6529 40.4723 12.3185C40.3907 12.3457 40.3123 12.3809 40.2355 12.4177C40.1523 12.4353 40.0691 12.4561 39.9875 12.4849C38.4979 12.9969 37.7315 13.2737 36.2627 13.8321C35.5843 14.0897 35.0979 14.6721 34.9491 15.3601C34.3795 14.9681 33.6307 14.8641 32.9459 15.1473C31.4179 15.7777 30.6307 16.1185 29.1203 16.8033C28.5859 17.0449 28.1955 17.4881 28.0083 18.0081C27.4771 17.8161 26.8883 17.8401 26.3731 18.0897C24.3315 19.0769 23.2867 19.6097 21.2947 20.6881C20.6915 21.0145 20.2851 21.6129 20.2035 22.2945C19.6867 26.6513 19.1715 31.0065 18.6579 35.3633C18.3411 36.7761 18.1747 37.5185 17.8499 38.9681C17.6675 39.7825 17.9827 40.6289 18.6547 41.1249C19.0259 41.3985 19.4659 41.5377 19.9075 41.5377C20.2659 41.5377 20.6275 41.4465 20.9523 41.2609C22.2403 40.5265 22.9139 40.1537 24.1411 39.5057C24.1635 40.0497 24.4275 40.5649 24.8787 40.8993C25.2003 41.1361 25.5811 41.2561 25.9651 41.2561C26.2771 41.2561 26.5891 41.1761 26.8707 41.0161C28.1059 40.3105 28.7155 39.9777 29.9699 39.3153C30.4339 39.0705 30.7683 38.6385 30.8915 38.1361C31.3715 38.3297 31.9171 38.3121 32.3859 38.0785C33.6483 37.4529 34.2675 37.1569 35.5411 36.5777C35.5731 36.5633 35.6003 36.5425 35.6307 36.5265C35.6835 36.5089 35.7379 36.4881 35.7891 36.4641C37.0659 35.8849 37.6963 35.6129 38.9971 35.0721C39.5891 34.8273 40.0019 34.2929 40.1011 33.6753C40.5891 34.0481 41.2515 34.1649 41.8643 33.9313C43.2163 33.4161 43.8787 33.1761 45.2371 32.7089C45.3139 32.6833 45.3859 32.6513 45.4563 32.6161C45.5251 32.6017 45.5923 32.5873 45.6595 32.5649C47.2003 32.0417 48.0435 31.7729 49.4499 31.3569C49.6739 31.4353 49.9075 31.4769 50.1443 31.4769C50.3187 31.4769 50.4931 31.4561 50.6643 31.4113C51.0035 31.3249 51.2723 31.2577 51.5299 31.1937C51.6515 31.4385 51.8275 31.6561 52.0483 31.8257C52.3715 32.0737 52.7651 32.2049 53.1635 32.2049C53.3139 32.2049 53.4659 32.1857 53.6147 32.1473C54.3443 31.9617 54.7107 31.8721 55.4435 31.6977C56.2675 31.5025 56.8499 30.7665 56.8499 29.9185V29.3329C56.9219 29.3025 56.9939 29.2689 57.0643 29.2353C57.4067 29.0689 57.7347 28.8545 58.0387 28.5953C58.3427 28.3377 58.6131 28.0209 58.8467 27.6609C58.9699 27.7697 59.0963 27.8721 59.2339 27.9569C59.5635 28.1633 59.9091 28.3105 60.2627 28.3937C60.5459 28.4609 60.8227 28.4945 61.0835 28.4945C61.1107 28.4945 61.1379 28.4945 61.1635 28.4945C61.3891 28.4881 61.5667 28.4737 61.7203 28.4465C61.7475 28.4417 61.7715 28.4385 61.7955 28.4369C61.9219 28.4257 62.0499 28.4097 62.1731 28.3889C63.1971 28.2145 63.7043 28.1345 64.7603 27.9825C65.0115 27.9457 65.2611 27.8977 65.5011 27.8385C65.8051 27.7649 66.1043 27.6593 66.3923 27.5265C66.6371 27.4129 66.8707 27.2737 67.0915 27.1121C67.4163 27.3777 67.8227 27.5249 68.2451 27.5249C68.3107 27.5249 68.3779 27.5217 68.4451 27.5137C70.2371 27.3169 71.1139 27.2385 72.9123 27.1169C72.9923 27.1121 73.0723 27.0993 73.1507 27.0833C73.1891 27.0865 73.2291 27.0897 73.2675 27.0897C73.3059 27.0897 73.3491 27.0897 73.3907 27.0849C76.0099 26.9073 78.6691 26.8385 81.2963 26.8737C81.3043 26.8737 81.3139 26.8737 81.3219 26.8737C81.3795 26.8737 81.4371 26.8705 81.4931 26.8657C81.5491 26.8721 81.6067 26.8769 81.6643 26.8785C83.0451 26.8977 83.7187 26.9169 85.0915 26.9793C85.6115 27.0033 86.0947 26.8065 86.4435 26.4673C86.7539 26.8449 87.2115 27.0945 87.7283 27.1313C89.0963 27.2273 89.7651 27.2833 91.1299 27.4225C91.1715 27.4273 91.2115 27.4273 91.2531 27.4289C91.2899 27.4353 91.3267 27.4433 91.3651 27.4465C93.6483 27.6833 94.7571 27.8289 97.0163 28.1857C97.2483 28.2225 97.4883 28.2529 97.7331 28.2785C97.8803 28.2929 98.0275 28.3009 98.1731 28.3009C98.3747 28.3009 98.5731 28.2865 98.7667 28.2593C99.1555 28.2033 99.5331 28.0833 99.8819 27.9057C100.048 27.8209 100.202 27.7153 100.351 27.5985C100.546 27.8545 100.763 28.0849 101.003 28.2801C101.306 28.5265 101.632 28.7361 101.973 28.9025C102.288 29.0561 102.613 29.1793 102.939 29.2689C103.189 29.3377 103.429 29.3985 103.658 29.4497C104.437 29.6225 104.827 29.7137 105.645 29.9121C106.047 30.0097 106.469 30.0817 106.901 30.1265C107.019 30.1393 107.138 30.1457 107.255 30.1457C107.535 30.1457 107.808 30.1089 108.072 30.0385C108.306 30.4065 108.671 30.6929 109.122 30.8193C110.589 31.2273 111.303 31.4401 112.757 31.9025C113.175 32.0353 113.621 32.0113 114.016 31.8449C114.25 32.1105 114.523 32.3313 114.829 32.4961C115.112 32.6481 115.471 32.8017 115.927 32.9617C116.727 33.2417 117.117 33.3841 117.919 33.6849C117.96 33.7009 118.003 33.7073 118.045 33.7201C118.098 33.7473 118.152 33.7729 118.21 33.7953C120.776 34.8033 123.248 35.8449 125.768 36.9793C125.919 37.0465 126.074 37.0913 126.232 37.1153C126.36 37.2289 126.504 37.3265 126.663 37.4017C128.512 38.2865 129.405 38.7393 131.215 39.7121C131.299 39.7569 131.443 39.8353 131.65 39.9473C132.048 40.1633 132.482 40.3057 132.941 40.3713C133.075 40.3905 133.21 40.4001 133.343 40.4001C133.848 40.4001 134.344 40.2673 134.797 40.0065C135.147 39.8049 135.437 39.5249 135.669 39.1713C136.035 39.3649 136.429 39.5745 136.872 39.8129C136.967 39.8641 137.127 39.9505 137.352 40.0721C137.803 40.3169 138.295 40.4801 138.816 40.5537C138.97 40.5745 139.122 40.5857 139.274 40.5857C139.85 40.5857 140.413 40.4337 140.927 40.1393C141.69 39.7009 142.208 38.9425 142.467 37.8865C142.471 37.8753 142.474 37.8641 142.475 37.8513C142.557 37.4913 142.607 37.1105 142.623 36.7185C142.634 36.4257 142.64 36.1313 142.64 35.8385V33.3265C142.64 32.9121 142.624 32.4897 142.595 32.0721L142.599 32.0705Z" fill="#E62D4F"/>
<path d="M27.2895 19.9888C27.8319 23.8384 28.3743 27.6864 28.9183 31.536C29.2351 32.6848 29.3935 33.2592 29.7103 34.4112C28.2751 35.0656 27.5615 35.4048 26.1439 36.1088C25.9807 34.6736 25.8991 33.9568 25.7359 32.5216C24.9599 32.9104 24.5727 33.1088 23.8015 33.512C23.6463 35.1088 23.5679 35.9088 23.4127 37.5056C22.0015 38.2496 21.3007 38.6352 19.9087 39.4288C20.2415 37.944 20.4063 37.2016 20.7407 35.72C21.2575 31.328 21.7775 26.936 22.2991 22.544C24.2783 21.4736 25.2767 20.9632 27.2911 19.9904L27.2895 19.9888ZM24.0431 30.696C24.6207 30.3952 24.9103 30.248 25.4895 29.9552C25.2031 27.4912 25.0591 26.2592 24.7727 23.7952C24.4799 26.5536 24.3343 27.9344 24.0415 30.696H24.0431Z" fill="white"/>
<path d="M39.8913 17.9904V27.0688C40.2033 28.2544 40.3601 28.848 40.6737 30.0368C39.1409 30.5632 38.3793 30.84 36.8609 31.4192C35.7441 28.8528 34.6241 26.288 33.5025 23.7232C33.5409 26.7184 33.5809 29.7136 33.6193 32.7088C32.1617 33.3136 31.4353 33.6272 29.9937 34.2816C30.2977 32.848 30.4497 32.1312 30.7553 30.6992V21.6208C30.4497 20.4608 30.2977 19.8816 29.9937 18.7232C31.4897 18.0448 32.2417 17.72 33.7537 17.0944C34.8769 19.6832 35.9969 22.2736 37.1153 24.8656C37.0817 21.8448 37.0481 18.824 37.0145 15.8032C38.472 15.2496 39.2049 14.984 40.6753 14.48C40.3617 15.8832 40.2049 16.5856 39.8929 17.9904H39.8913Z" fill="white"/>
<path d="M46.0321 12.7764C45.7153 14.1652 45.5569 14.8596 45.2401 16.25V25.3284C45.5569 26.53 45.7153 27.13 46.0321 28.3332C44.0689 28.9076 43.0929 29.2164 41.1489 29.874C41.4625 28.4724 41.6193 27.7716 41.9345 26.3716V17.2932C41.6209 16.1012 41.4641 15.506 41.1489 14.3172C43.0913 13.658 44.0689 13.3508 46.0321 12.7764Z" fill="white"/>
<path d="M55.4401 21.3346C55.4401 21.629 55.4369 21.941 55.4321 22.2738C55.4257 22.605 55.4065 22.941 55.3713 23.2786C55.3361 23.6162 55.2753 23.949 55.1873 24.2754C55.0993 24.6018 54.9745 24.901 54.8113 25.1698C54.6481 25.4402 54.4625 25.6626 54.2529 25.8418C54.0433 26.0194 53.8257 26.1634 53.5985 26.2738C53.3713 26.3826 53.1393 26.469 52.9009 26.5314C52.6625 26.5938 52.4337 26.6498 52.2129 26.7026V28.8626C51.3841 29.0578 50.9713 29.1602 50.1457 29.3698C50.1393 28.5074 50.1345 28.077 50.1281 27.2146C49.9201 27.2674 49.6961 27.3186 49.4609 27.365C49.2241 27.4114 48.9905 27.4418 48.7601 27.4514C48.5297 27.461 48.3105 27.4322 48.1025 27.365C47.8961 27.2978 47.7057 27.1762 47.5329 27.005C47.2337 26.6914 47.0577 26.301 47.0065 25.8306C46.9553 25.3602 46.9233 24.8626 46.9121 24.3362V16.7122C46.9121 16.4338 46.9153 16.1426 46.9201 15.8386C46.9265 15.5362 46.9489 15.2354 46.9889 14.9378C47.0289 14.6402 47.0897 14.3442 47.1697 14.0498C47.2497 13.7554 47.3713 13.4754 47.5329 13.2098C47.8321 12.701 48.1841 12.3538 48.5873 12.1714C48.9905 11.989 49.4001 11.845 49.8177 11.7378C50.7809 11.4898 51.2641 11.3698 52.2321 11.141C52.5921 11.0562 52.9057 10.9986 53.1729 10.9666C53.4401 10.9346 53.6753 10.9298 53.8785 10.9506C54.0817 10.9714 54.2593 11.029 54.4113 11.1202C54.5617 11.2114 54.7025 11.341 54.8305 11.5042C54.9585 11.6674 55.0641 11.8482 55.1457 12.0434C55.2273 12.2386 55.2881 12.4722 55.3297 12.7426C55.3697 13.013 55.4001 13.3234 55.4177 13.6722C55.4353 14.021 55.4433 14.4242 55.4433 14.8786V21.3346H55.4401ZM50.2145 14.8722V23.9506C50.9713 23.7586 51.3489 23.6658 52.1089 23.485V14.4066C51.3505 14.5874 50.9713 14.6802 50.2145 14.8722Z" fill="white"/>
<path d="M60.4911 9.4866V21.805C61.1871 21.6914 61.5359 21.6354 62.2335 21.5314V9.2146C63.9103 8.9634 64.7519 8.853 66.4351 8.6626C66.1167 9.9938 65.9583 10.661 65.6399 11.9954V20.1266C65.6399 20.3906 65.6367 20.6642 65.6303 20.9426C65.6239 21.221 65.6031 21.5074 65.5679 21.7986C65.5327 22.0898 65.4735 22.3682 65.3919 22.6354C65.3087 22.9026 65.1983 23.157 65.0559 23.3938C64.9039 23.6482 64.7375 23.8498 64.5615 23.997C64.3855 24.1442 64.1967 24.2658 63.9967 24.3586C63.7967 24.4514 63.5903 24.5234 63.3791 24.5746C63.1679 24.6258 62.9551 24.6674 62.7439 24.6978C61.5727 24.8674 60.9887 24.9602 59.8223 25.157C59.7407 25.1714 59.6575 25.181 59.5759 25.189C59.4943 25.1954 59.4063 25.2066 59.3119 25.2226C59.2415 25.2354 59.1327 25.2434 58.9871 25.2466C58.8399 25.2498 58.6799 25.2306 58.5039 25.189C58.3295 25.1474 58.1503 25.0706 57.9679 24.957C57.7871 24.8434 57.6255 24.6674 57.4863 24.4306C57.2879 24.0866 57.1759 23.685 57.1535 23.2274C57.1295 22.7698 57.1183 22.3266 57.1183 21.901V13.3282C56.7887 12.0962 56.6239 11.4802 56.2959 10.2514C57.9695 9.917 58.8079 9.7634 60.4895 9.4882L60.4911 9.4866Z" fill="white"/>
<path d="M71.9632 8.15869C71.6368 9.47709 71.4736 10.1363 71.1472 11.4563V20.5347C71.4736 21.8067 71.6368 22.4419 71.9632 23.7155C69.9408 23.8531 68.9312 23.9427 66.9136 24.1635C67.2384 22.8323 67.4016 22.1667 67.728 20.8371V11.7603C67.4016 10.4979 67.24 9.86749 66.9136 8.60829C68.9296 8.38589 69.9408 8.29629 71.9632 8.16029V8.15869Z" fill="white"/>
<path d="M77.5199 7.90918C77.1999 9.21158 77.0399 9.86438 76.7199 11.1684V20.2468C77.3311 20.2292 77.6367 20.2228 78.2479 20.2132V17.4596C79.5279 17.4388 80.1679 17.4372 81.4463 17.45V23.4436C78.4703 23.402 75.4623 23.482 72.4927 23.682C72.8191 22.3652 72.9823 21.7076 73.3087 20.394C73.3087 17.3684 73.3087 14.3412 73.3087 11.3156C72.9823 10.0388 72.8191 9.40038 72.4927 8.12518C74.5007 7.99718 75.5071 7.95398 77.5183 7.90918H77.5199Z" fill="white"/>
<path d="M89.952 8.26881C90.5376 12.4256 91.1216 16.5824 91.7056 20.7408C92.0464 22.0688 92.216 22.7328 92.5552 24.064C91.0192 23.9072 90.2496 23.8416 88.7104 23.7344C88.5328 22.2064 88.4448 21.4416 88.2672 19.9136C87.4224 19.8576 87 19.8336 86.1552 19.792C85.9856 21.2992 85.8992 22.0544 85.7296 23.5616C84.1808 23.4912 83.4064 23.4688 81.856 23.448C82.2256 22.1568 82.4112 21.512 82.7808 20.224C83.3552 16.1344 83.9296 12.0448 84.504 7.95361C86.6848 8.03041 87.776 8.09281 89.952 8.26721V8.26881ZM86.4208 17.1168C87.0528 17.1488 87.368 17.1664 88 17.208C87.688 14.5792 87.5312 13.264 87.2192 10.6368C86.8992 13.2272 86.7392 14.5232 86.4208 17.1168Z" fill="white"/>
<path d="M99.1426 9.35693C99.5186 9.41613 99.9106 9.50573 100.322 9.62573C100.731 9.74573 101.101 10.0049 101.429 10.4001C101.616 10.6385 101.765 10.9041 101.877 11.1969C101.987 11.4881 102.067 11.7905 102.114 12.0993C102.16 12.4097 102.191 12.7201 102.202 13.0305C102.213 13.3409 102.219 13.6433 102.219 13.9377C102.219 16.8465 102.219 18.3009 102.219 21.2097C102.219 21.7377 102.194 22.2913 102.141 22.8705C102.088 23.4481 101.933 23.9345 101.675 24.3281C101.523 24.5505 101.351 24.7105 101.157 24.8097C100.963 24.9089 100.762 24.9729 100.551 25.0033C100.339 25.0337 100.12 25.0369 99.8914 25.0145C99.6626 24.9921 99.437 24.9633 99.2146 24.9281C96.6658 24.5265 95.3874 24.3585 92.8242 24.0929C93.1426 22.8305 93.3026 22.2001 93.621 20.9393C93.621 17.9137 93.621 14.8865 93.621 11.8609C93.3026 10.5297 93.1426 9.86573 92.8242 8.53613C95.3586 8.80013 96.6242 8.96493 99.1442 9.36173L99.1426 9.35693ZM97.0098 12.2801C97.0098 15.3057 97.0098 18.3329 97.0098 21.3585C97.7442 21.4609 98.1106 21.5137 98.8434 21.6273C98.8434 18.6017 98.8434 15.5745 98.8434 12.5489C98.1106 12.4353 97.7442 12.3825 97.0098 12.2801Z" fill="white"/>
<path d="M112.031 23.0129C112.031 23.3505 112.028 23.7057 112.023 24.0785C112.016 24.4513 111.988 24.8113 111.936 25.1569C111.885 25.5025 111.797 25.8209 111.677 26.1121C111.556 26.4033 111.373 26.6337 111.132 26.8049C110.831 27.0177 110.485 27.1073 110.092 27.0657C109.698 27.0241 109.322 26.9617 108.962 26.8737C108.064 26.6561 107.616 26.5521 106.716 26.3505C106.495 26.3009 106.261 26.2433 106.018 26.1745C105.773 26.1073 105.532 26.0145 105.293 25.8993C105.055 25.7825 104.828 25.6369 104.612 25.4609C104.396 25.2849 104.207 25.0625 104.044 24.7953C103.775 24.3297 103.618 23.8657 103.57 23.4017C103.524 22.9377 103.495 22.4465 103.482 21.9297C103.482 18.8801 103.482 17.3553 103.482 14.3057C103.482 14.0273 103.485 13.7377 103.49 13.4369C103.496 13.1377 103.519 12.8481 103.56 12.5697C103.6 12.2913 103.663 12.0241 103.744 11.7681C103.826 11.5121 103.949 11.2897 104.112 11.1025C104.416 10.7377 104.772 10.5601 105.18 10.5713C105.588 10.5825 106 10.6353 106.42 10.7281C107.389 10.9425 107.874 11.0529 108.84 11.2881C109.199 11.3745 109.512 11.4673 109.778 11.5633C110.044 11.6593 110.279 11.7665 110.48 11.8849C110.682 12.0033 110.86 12.1441 111.008 12.3073C111.159 12.4705 111.298 12.6657 111.424 12.8913C111.551 13.1153 111.655 13.3457 111.736 13.5809C111.816 13.8145 111.877 14.0785 111.919 14.3681C111.959 14.6577 111.988 14.9825 112.005 15.3393C112.023 15.6961 112.031 16.1025 112.031 16.5585C112.031 19.1409 112.031 20.4321 112.031 23.0145V23.0129ZM106.855 14.0641C106.855 17.0897 106.855 20.1169 106.855 23.1425C107.588 23.3073 107.952 23.3921 108.684 23.5665C108.684 20.5409 108.684 17.5137 108.684 14.4881C107.952 14.3121 107.588 14.2273 106.855 14.0641Z" fill="white"/>
<path d="M119.226 14.2948C119.611 14.426 119.995 14.594 120.375 14.8004C120.754 15.0068 121.096 15.3348 121.402 15.7812C121.571 16.0324 121.704 16.2868 121.8 16.5428C121.896 16.7972 121.967 17.0548 122.011 17.314C122.056 17.5732 122.085 17.8372 122.096 18.106C122.107 18.3748 122.114 18.6404 122.114 18.906C122.114 19.4212 122.106 19.8868 122.088 20.3076C122.071 20.7284 122.007 21.09 121.893 21.394C121.779 21.698 121.608 21.9396 121.376 22.122C121.144 22.3028 120.819 22.4068 120.4 22.4372C120.445 22.4836 120.488 22.5156 120.528 22.5364C120.568 22.5572 120.605 22.5812 120.639 22.6084C120.728 22.6692 120.863 22.7748 121.037 22.9268C121.211 23.0772 121.383 23.314 121.554 23.6196C121.771 24.0068 121.915 24.394 121.96 24.77C122.005 25.146 122.034 25.5348 122.045 25.9364V27.6116C122.363 29.0244 122.522 29.73 122.84 31.1444C121.941 30.8084 121.49 30.6452 120.586 30.3268C120.189 30.1876 119.88 30.0596 119.659 29.9396C119.439 29.8196 119.259 29.634 119.123 29.3828C119.021 29.2164 118.952 29.05 118.919 28.8852C118.885 28.7188 118.867 28.4676 118.867 28.13C118.867 26.2436 118.867 25.3012 118.867 23.4148C118.123 23.1652 117.751 23.0436 117.003 22.8084C117.003 25.338 117.003 26.6036 117.003 29.1332C115.367 28.6148 114.544 28.37 112.893 27.9092C113.203 26.6996 113.359 26.0964 113.669 24.8884V15.802C113.359 14.418 113.203 13.7252 112.893 12.3428C115.442 13.0532 116.709 13.4436 119.224 14.2948H119.226ZM117.005 19.8916C117.752 20.1284 118.125 20.25 118.869 20.498C118.869 19.2644 118.869 18.6468 118.869 17.4132C118.125 17.1636 117.752 17.042 117.005 16.8068C117.005 18.0404 117.005 18.658 117.005 19.8916Z" fill="white"/>
<path d="M131.509 19.2099V24.3011C130.447 23.0675 129.914 22.4563 128.843 21.2499C128.165 20.9539 127.826 20.8099 127.144 20.5251V23.4771C128.106 23.8787 128.586 24.0851 129.541 24.5091V27.3731C128.586 26.9491 128.106 26.7427 127.144 26.3411V29.6019C127.826 29.8867 128.165 30.0323 128.843 30.3267C129.987 30.0227 130.557 29.8787 131.69 29.6067V34.8515C128.875 33.5827 126.069 32.4003 123.195 31.2723C123.506 30.0931 123.661 29.5059 123.971 28.3283V19.2499C123.661 17.8339 123.506 17.1283 123.195 15.7139C126.003 16.7603 128.797 17.9363 131.509 19.2083V19.2099Z" fill="white"/>
<path d="M140.198 28.2416C139.106 27.0944 138.555 26.528 137.451 25.4096C136.76 25.0416 136.413 24.8592 135.717 24.504V27.3472C136.555 27.7776 136.973 27.9968 137.806 28.4432C137.893 28.4896 137.984 28.5392 138.08 28.5904C138.176 28.6432 138.275 28.712 138.37 28.7696C138.429 28.8064 138.541 28.8736 138.691 28.9776C138.842 29.0816 139.008 29.2256 139.189 29.4064C139.371 29.5872 139.558 29.8128 139.75 30.0832C139.942 30.352 140.099 30.6848 140.23 31.0592C140.373 31.464 140.467 31.8544 140.494 32.2224C140.522 32.5904 140.534 32.9584 140.534 33.3248C140.534 34.3296 140.534 34.832 140.534 35.8368C140.534 36.1008 140.53 36.3664 140.518 36.632C140.507 36.8976 140.475 37.1472 140.422 37.3808C140.306 37.8576 140.125 38.1664 139.878 38.3072C139.632 38.448 139.376 38.4992 139.109 38.4624C138.842 38.424 138.592 38.3424 138.362 38.2176C138.131 38.0928 137.966 38.0032 137.87 37.952C135.832 36.856 134.802 36.3328 132.726 35.3408C132.726 33.4368 132.726 32.4848 132.726 30.5808C133.928 31.7632 134.526 32.3648 135.717 33.5824C136.413 33.9392 136.76 34.12 137.451 34.488V31.3584C136.541 30.8736 136.083 30.6352 135.163 30.1712C135.077 30.1264 134.995 30.0816 134.918 30.0368C134.843 29.992 134.76 29.9472 134.674 29.904C134.608 29.872 134.51 29.8112 134.379 29.7248C134.248 29.6384 134.104 29.5152 133.946 29.3568C133.787 29.1984 133.627 29.0096 133.462 28.7904C133.299 28.5712 133.146 28.3024 133.003 27.984C132.806 27.536 132.688 27.12 132.65 26.7344C132.611 26.3488 132.581 25.9376 132.56 25.5008C132.56 24.4704 132.56 23.9536 132.56 22.9232C132.582 22.4928 132.618 22.1056 132.667 21.7616C132.717 21.4176 132.851 21.1296 133.069 20.8976C133.354 20.5952 133.68 20.4848 134.051 20.5728C134.422 20.6592 134.797 20.8 135.178 20.992C137.203 22.0176 138.208 22.5552 140.197 23.6816V28.2432L140.198 28.2416Z" fill="white"/>
<path d="M102.371 44.7297L100.898 46.2001L89.8305 35.1313H70.6129L59.5457 46.2001L58.0737 44.7297L69.7505 33.0513H90.6929L102.371 44.7297Z" fill="white"/>
<path d="M124.466 58.253L124.37 57.3186H116.538V46.2002H106.26V48.2818H114.458V59.4002H122.487C122.882 63.8498 123.18 71.9794 121.621 81.8466C120.128 91.2978 117.258 100.506 113.09 109.216C107.876 120.114 100.589 130.28 91.4339 139.434L89.4819 141.386V145.325C87.9075 146.429 84.8771 147.968 80.2227 147.968C75.5683 147.968 72.5379 146.427 70.9635 145.325V141.386L69.0115 139.434C59.8563 130.279 52.5715 120.112 47.3555 109.216C43.1875 100.507 40.3171 91.2994 38.8243 81.8466C37.2659 71.9794 37.5651 63.8498 37.9587 59.4002H45.9875V48.2818H54.1859V46.2002H43.9075V57.3186H36.0755L35.9795 58.253C35.5395 62.5346 35.0579 71.3346 36.7699 82.1714C38.2947 91.8226 41.2243 101.223 45.4787 110.114C50.7955 121.224 58.2179 131.583 67.5395 140.904L68.8819 142.247V146.362L69.2867 146.674C70.9203 147.935 74.5123 150.048 80.2227 150.048C85.9331 150.048 89.5251 147.933 91.1587 146.674L91.5635 146.362V142.247L92.9059 140.904C102.228 131.583 109.65 121.223 114.967 110.114C119.221 101.223 122.152 91.821 123.676 82.1714C125.388 71.3362 124.906 62.5346 124.466 58.253Z" fill="white"/>
<path d="M79.501 134.251V135.25H75.269V136.219H78.7346V137.141H75.269V138.779H74.0034V134.251H79.501Z" fill="#FCDDAC"/>
<path d="M86.5665 137.042C86.5297 137.44 86.3873 137.776 86.1409 138.05C85.8945 138.325 85.5441 138.533 85.0865 138.675C84.6289 138.818 84.0705 138.89 83.4097 138.89C82.8801 138.89 82.4017 138.845 81.9729 138.757C81.5441 138.669 81.1777 138.53 80.8721 138.342C80.5681 138.155 80.3329 137.912 80.1697 137.615C80.0065 137.317 79.9233 136.957 79.9233 136.535C79.9233 136.112 80.0049 135.75 80.1697 135.448C80.3345 135.146 80.5681 134.899 80.8721 134.707C81.1761 134.515 81.5441 134.373 81.9729 134.278C82.4017 134.186 82.8817 134.138 83.4097 134.138C84.0705 134.138 84.6305 134.213 85.0897 134.363C85.5489 134.514 85.9025 134.728 86.1473 135.01C86.3921 135.291 86.5329 135.634 86.5649 136.037H85.2785C85.2225 135.854 85.1217 135.699 84.9761 135.57C84.8305 135.44 84.6289 135.341 84.3713 135.267C84.1137 135.194 83.7921 135.158 83.4081 135.158C82.9345 135.158 82.5361 135.21 82.2129 135.309C81.8897 135.41 81.6449 135.562 81.4785 135.763C81.3121 135.965 81.2289 136.222 81.2289 136.536C81.2289 136.85 81.3121 137.085 81.4785 137.282C81.6449 137.478 81.8897 137.626 82.2129 137.725C82.5361 137.823 82.9345 137.872 83.4081 137.872C83.7921 137.872 84.1121 137.838 84.3681 137.77C84.6241 137.702 84.8241 137.605 84.9697 137.478C85.1153 137.352 85.2177 137.207 85.2785 137.043H86.5649L86.5665 137.042Z" fill="#FCDDAC"/>
<path d="M56.4849 52.5635C56.9895 52.5635 57.3985 52.1545 57.3985 51.6499C57.3985 51.1454 56.9895 50.7363 56.4849 50.7363C55.9803 50.7363 55.5713 51.1454 55.5713 51.6499C55.5713 52.1545 55.9803 52.5635 56.4849 52.5635Z" fill="#FCDDAC"/>
<path d="M56.4849 56.688C56.9895 56.688 57.3985 56.279 57.3985 55.7744C57.3985 55.2699 56.9895 54.8608 56.4849 54.8608C55.9803 54.8608 55.5713 55.2699 55.5713 55.7744C55.5713 56.279 55.9803 56.688 56.4849 56.688Z" fill="#FCDDAC"/>
<path d="M68.9731 53.2689C69.4388 53.2689 69.8163 52.8914 69.8163 52.4257C69.8163 51.96 69.4388 51.5825 68.9731 51.5825C68.5074 51.5825 68.1299 51.96 68.1299 52.4257C68.1299 52.8914 68.5074 53.2689 68.9731 53.2689Z" fill="#FCDDAC"/>
<path d="M91.4706 53.2689C91.9363 53.2689 92.3138 52.8914 92.3138 52.4257C92.3138 51.96 91.9363 51.5825 91.4706 51.5825C91.005 51.5825 90.6274 51.96 90.6274 52.4257C90.6274 52.8914 91.005 53.2689 91.4706 53.2689Z" fill="#FCDDAC"/>
<path d="M80.2226 144C80.6883 144 81.0658 143.623 81.0658 143.157C81.0658 142.691 80.6883 142.314 80.2226 142.314C79.7569 142.314 79.3794 142.691 79.3794 143.157C79.3794 143.623 79.7569 144 80.2226 144Z" fill="#FCDDAC"/>
<path d="M52.4287 56.688C52.9333 56.688 53.3423 56.279 53.3423 55.7744C53.3423 55.2699 52.9333 54.8608 52.4287 54.8608C51.9242 54.8608 51.5151 55.2699 51.5151 55.7744C51.5151 56.279 51.9242 56.688 52.4287 56.688Z" fill="#FCDDAC"/>
<path d="M98.1473 68.8096L105.794 68.6128L108.909 70.3872L114.618 83.6768L100.536 113.304L93.4689 118.747H88.3393L85.6737 121.23L81.4193 120.334L78.6337 118.118C78.6337 118.118 75.1649 119.218 67.8753 109.994C62.493 103.182 56.4146 97.32 56.4146 97.32L60.2289 95.176C60.2289 95.176 64.4369 97.7904 67.8737 96.152C71.4561 94.4432 75.3793 91.6128 77.4465 83.4336L79.7105 85.8944C79.7105 85.8944 83.7377 92.3056 85.3105 100.589L91.8721 98.4832L102.551 86.2208L100.098 82.2736L96.3681 81.3216L95.4241 76.7824L95.9633 75.0752L95.3793 73.3072L96.5025 72.1344V70.8048L97.8065 70.1488L98.1473 68.808V68.8096Z" fill="#F8C6B5"/>
<g style="mix-blend-mode:multiply">
<path d="M98.1473 68.8096L105.794 68.6128L108.909 70.3872L114.618 83.6768L100.536 113.304L93.4689 118.747H88.3393L85.6737 121.23L81.4193 120.334L78.6337 118.118C78.6337 118.118 75.1649 119.218 67.8753 109.994C62.493 103.182 56.4146 97.32 56.4146 97.32L60.2289 95.176C60.2289 95.176 64.4369 97.7904 67.8737 96.152C71.4561 94.4432 75.3793 91.6128 77.4465 83.4336L79.7105 85.8944C79.7105 85.8944 83.7377 92.3056 85.3105 100.589L91.8721 98.4832L102.551 86.2208L100.098 82.2736L96.3681 81.3216L95.4241 76.7824L95.9633 75.0752L95.3793 73.3072L96.5025 72.1344V70.8048L97.8065 70.1488L98.1473 68.808V68.8096Z" fill="#FCE0D9"/>
</g>
<path opacity="0.94" d="M50.6882 78.3907C50.6882 76.1075 51.1922 73.8771 52.1458 71.8467C49.4626 74.3923 47.8994 77.9427 47.8994 81.7875C47.8994 89.3571 54.0562 95.5155 61.6242 95.5155C64.1026 95.5155 66.5122 94.8419 68.6066 93.6051C59.3554 95.2003 50.6002 87.7939 50.6882 78.3907Z" fill="#CEDDE2"/>
<path style="mix-blend-mode:hard-light" opacity="0.83" d="M97.8802 75.8481C97.8802 75.8481 96.5459 77.8769 98.1475 81.4785L96.6914 81.5777L95.8354 75.9985L97.8786 75.8481H97.8802Z" fill="url(#paint0_linear_406_23131)"/>
<path d="M103.959 52.5635C104.463 52.5635 104.872 52.1545 104.872 51.6499C104.872 51.1454 104.463 50.7363 103.959 50.7363C103.454 50.7363 103.045 51.1454 103.045 51.6499C103.045 52.1545 103.454 52.5635 103.959 52.5635Z" fill="#FCDDAC"/>
<path d="M103.959 56.688C104.463 56.688 104.872 56.279 104.872 55.7744C104.872 55.2699 104.463 54.8608 103.959 54.8608C103.454 54.8608 103.045 55.2699 103.045 55.7744C103.045 56.279 103.454 56.688 103.959 56.688Z" fill="#FCDDAC"/>
<path d="M108.015 56.688C108.519 56.688 108.928 56.279 108.928 55.7744C108.928 55.2699 108.519 54.8608 108.015 54.8608C107.51 54.8608 107.101 55.2699 107.101 55.7744C107.101 56.279 107.51 56.688 108.015 56.688Z" fill="#FCDDAC"/>
<path d="M77.5648 101.992L69.2544 94.6196L71.784 92.2324L77.5648 101.992Z" fill="white"/>
<path d="M82.2098 46.5264L85.8466 48.5152L82.2098 50.5024L80.2226 57.8496L78.2338 50.5024L74.5986 48.5152L78.2338 46.5264L80.2226 41.6528L82.2098 46.5264Z" fill="white"/>
<path style="mix-blend-mode:hard-light" opacity="0.83" d="M96.5024 75.1664C96.5024 75.1664 96.6688 73.032 97.8368 72.7616C99.0048 72.4912 96.328 72.1968 96.328 72.1968L95.144 74.1888L96.5008 75.1648L96.5024 75.1664Z" fill="url(#paint1_linear_406_23131)"/>
<path d="M97.5711 70.4194C97.5711 70.4194 96.5583 71.2066 96.9327 72.1362L97.3391 72.0946C97.3391 72.0946 98.1551 70.4434 98.0607 70.4194C97.9663 70.3954 97.5711 70.4194 97.5711 70.4194Z" fill="url(#paint2_linear_406_23131)"/>
<path style="mix-blend-mode:hard-light" opacity="0.83" d="M98.2769 73.8576L104.76 72.9984L103.771 71.8784L98.5041 72.7312L98.2769 73.8576Z" fill="url(#paint3_linear_406_23131)"/>
<path style="mix-blend-mode:hard-light" opacity="0.83" d="M98.437 71.4865H103.597V70.1633L98.6818 70.0513L98.437 71.4865Z" fill="url(#paint4_linear_406_23131)"/>
<path d="M67.8863 84.277L65.7151 77.285L58.3951 77.189L56.0415 84.1218L61.9071 88.5026L67.8863 84.277Z" fill="#E62D4F"/>
<path d="M60.229 97.9633L59.0066 96.2577L61.629 98.1217L62.1394 98.4833C62.5442 98.4721 62.949 98.4449 63.3522 98.4033C63.445 98.3937 63.5378 98.3841 63.629 98.3729C63.7074 98.3633 63.7858 98.3537 63.8642 98.3425C63.8834 98.3409 63.9026 98.3377 63.9202 98.3345C64.0082 98.3217 64.0962 98.3089 64.1842 98.2961C64.245 98.2865 64.3058 98.2769 64.3682 98.2657C64.4162 98.2593 64.4626 98.2513 64.5106 98.2417C64.5474 98.2353 64.5826 98.2289 64.6194 98.2225C64.6722 98.2129 64.7234 98.2033 64.7762 98.1937C64.8466 98.1809 64.9154 98.1665 64.9842 98.1521C64.9986 98.1489 65.0146 98.1473 65.029 98.1425C65.0786 98.1329 65.1282 98.1217 65.1762 98.1105L70.9762 105.272L73.045 107.826L75.8354 111.272L74.2706 108.549C78.4722 105.861 81.4722 102.538 83.0306 100.427L80.797 96.4321C79.6194 98.1521 78.3074 99.6369 76.9922 100.891L77.5682 101.994L76.6674 101.195C76.1346 101.688 75.6034 102.142 75.0802 102.56L73.3074 101.206L74.1906 103.242C73.4322 103.802 72.709 104.278 72.0434 104.675L67.8098 97.3073C68.7826 96.9185 69.7298 96.4353 70.6402 95.8513L68.973 94.3729C68.061 94.9073 67.1106 95.3313 66.1378 95.6481L62.3618 93.1409L62.205 89.4241L61.693 89.4449L61.8498 93.1617L58.2994 95.9761C55.477 95.3153 52.8434 93.8129 50.805 91.5441L50.3346 90.2177L51.309 86.1041L47.1682 83.5841C46.829 80.8273 47.2882 78.0225 48.4802 75.5185L51.4178 72.5809L54.885 72.6369L57.6738 76.6081L58.093 76.3137L55.3042 72.3425L56.7746 68.0577C60.5378 66.7265 64.6594 67.0177 68.1602 68.7697L69.1474 73.5169L73.965 74.0449C75.237 76.0673 75.9538 78.2945 76.1442 80.5393L74.9954 84.0417L72.021 85.9233L73.221 90.6209C72.9666 90.9537 72.6978 91.2785 72.413 91.5921L71.789 92.2385L76.837 100.595L73.7714 93.2657C73.9522 93.0753 74.1298 92.8801 74.2994 92.6817H74.301C74.6226 92.3073 74.925 91.9201 75.2098 91.5233C75.2338 91.4913 75.2546 91.4577 75.277 91.4257C75.3922 91.2625 75.5042 91.0993 75.613 90.9329C75.6498 90.8769 75.685 90.8193 75.7202 90.7617C75.8114 90.6177 75.9026 90.4737 75.989 90.3281C76.0322 90.2561 76.0722 90.1825 76.1138 90.1105C76.1906 89.9777 76.2658 89.8449 76.3378 89.7105C76.3826 89.6273 76.4242 89.5425 76.469 89.4593C76.533 89.3329 76.5986 89.2081 76.6594 89.0801C76.7042 88.9873 76.7458 88.8945 76.789 88.8017C76.845 88.6817 76.8994 88.5601 76.9522 88.4385C76.9954 88.3377 77.037 88.2369 77.0786 88.1361C77.1266 88.0209 77.173 87.9041 77.2178 87.7873C77.2594 87.6801 77.2978 87.5729 77.3378 87.4641C77.3778 87.3521 77.4178 87.2401 77.4546 87.1281C77.493 87.0145 77.5298 86.8993 77.565 86.7857C77.5922 86.6977 77.6194 86.6113 77.645 86.5233L84.1682 99.8241L83.9218 99.0161C84.2882 98.6225 84.533 97.2273 84.533 97.2273C84.533 93.1617 82.4674 91.1169 82.4674 91.1169C82.3666 91.3313 82.3186 92.8897 82.229 93.4593L78.2802 80.4913C78.101 78.1857 77.4386 75.8945 76.2706 73.7681V73.7649C76.2546 73.7329 76.2354 73.7025 76.2162 73.6705C76.1138 73.4881 76.0082 73.3073 75.8994 73.1281C75.8578 73.0593 75.8178 72.9905 75.7746 72.9233C75.621 72.6801 75.4626 72.4369 75.2962 72.1985C75.2914 72.1921 75.2866 72.1857 75.2818 72.1793C75.1394 71.9777 74.9938 71.7825 74.845 71.5889C74.7986 71.5297 74.7538 71.4721 74.7074 71.4129C74.5794 71.2529 74.4498 71.0945 74.3186 70.9393C74.285 70.9009 74.253 70.8609 74.2194 70.8225C74.0594 70.6369 73.8946 70.4577 73.7266 70.2817C73.6802 70.2321 73.6322 70.1841 73.5858 70.1361C73.4514 69.9969 73.3138 69.8609 73.1746 69.7281C73.1282 69.6833 73.0834 69.6385 73.037 69.5953C72.861 69.4305 72.6818 69.2689 72.4978 69.1121C72.4594 69.0785 72.4194 69.0465 72.3794 69.0129C72.2274 68.8849 72.0722 68.7585 71.9154 68.6369C71.8626 68.5953 71.8098 68.5537 71.757 68.5137C71.565 68.3665 71.3698 68.2225 71.173 68.0849C71.1602 68.0753 71.1458 68.0673 71.1314 68.0577C70.9442 67.9281 70.7554 67.8049 70.5634 67.6833C70.5074 67.6481 70.4514 67.6129 70.3954 67.5777C70.2178 67.4673 70.037 67.3617 69.8562 67.2593C69.8258 67.2417 69.7954 67.2241 69.765 67.2065C69.557 67.0897 69.3458 66.9793 69.133 66.8737C69.077 66.8449 69.021 66.8193 68.9634 66.7905C68.7906 66.7057 68.6178 66.6257 68.4434 66.5473C68.3922 66.5249 68.341 66.5009 68.2882 66.4785C68.2642 66.4689 68.2418 66.4577 68.2178 66.4465H68.2146C64.7042 64.9441 60.7346 64.6705 57.0034 65.7441L56.9986 65.7409C56.9058 65.7681 56.813 65.7985 56.7202 65.8273C56.6274 65.8561 56.533 65.8833 56.4402 65.9137C56.253 65.9745 56.0658 66.0401 55.8802 66.1089C55.829 66.1281 55.7778 66.1441 55.7266 66.1633C55.4898 66.2529 55.2562 66.3489 55.0226 66.4497C54.9554 66.4785 54.8882 66.5105 54.821 66.5409C54.653 66.6161 54.485 66.6945 54.317 66.7745C54.2354 66.8145 54.1538 66.8561 54.0722 66.8977C53.9186 66.9761 53.765 67.0561 53.613 67.1409C53.533 67.1857 53.4514 67.2289 53.3714 67.2753C53.2098 67.3665 53.0498 67.4625 52.8898 67.5617C52.8242 67.6017 52.757 67.6417 52.6914 67.6833C52.4674 67.8257 52.245 67.9713 52.0258 68.1249C51.8066 68.2785 51.5938 68.4369 51.3858 68.6001C51.3218 68.6497 51.2594 68.7025 51.1954 68.7521C51.053 68.8657 50.9122 68.9809 50.7746 69.0977C50.701 69.1601 50.6274 69.2241 50.5554 69.2881C50.4306 69.3985 50.3074 69.5105 50.1858 69.6241C50.1138 69.6913 50.0418 69.7585 49.973 69.8257C49.8482 69.9473 49.7266 70.0705 49.6066 70.1937C49.5474 70.2545 49.4866 70.3153 49.4274 70.3777C49.2562 70.5601 49.0898 70.7441 48.9298 70.9329C48.8834 70.9873 48.8402 71.0433 48.7938 71.0977C48.677 71.2369 48.5634 71.3761 48.4514 71.5185C48.3874 71.6017 48.325 71.6849 48.2626 71.7681C48.2066 71.8417 48.149 71.9153 48.0946 71.9905V71.9953C45.7554 75.2257 44.669 79.1793 44.9714 83.0961C44.9842 83.2561 44.9986 83.4145 45.0146 83.5745C45.0242 83.6625 45.0338 83.7521 45.045 83.8401C45.069 84.0353 45.0962 84.2289 45.1266 84.4241C45.1346 84.4753 45.1426 84.5265 45.1506 84.5761C45.1858 84.7905 45.2274 85.0033 45.2722 85.2177C45.2866 85.2897 45.3026 85.3601 45.3186 85.4305C45.3618 85.6257 45.4082 85.8209 45.4594 86.0145C45.4706 86.0545 45.4786 86.0961 45.4898 86.1361C45.5522 86.3681 45.621 86.6001 45.6946 86.8305C45.7122 86.8849 45.7298 86.9393 45.7474 86.9937C45.813 87.1921 45.8802 87.3889 45.9538 87.5841C45.9698 87.6257 45.9842 87.6689 46.0002 87.7105C46.0898 87.9441 46.1842 88.1777 46.2834 88.4097C46.2978 88.4433 46.3138 88.4769 46.3282 88.5105C46.4194 88.7169 46.5138 88.9201 46.613 89.1233C46.6322 89.1633 46.6514 89.2049 46.6722 89.2449C46.789 89.4785 46.9106 89.7105 47.0386 89.9393C47.0418 89.9457 47.0466 89.9521 47.0498 89.9585C47.173 90.1793 47.3042 90.3969 47.4386 90.6129C47.4626 90.6513 47.485 90.6881 47.509 90.7265C47.6514 90.9505 47.797 91.1729 47.9506 91.3921C47.9762 91.4273 48.0018 91.4609 48.0274 91.4961C48.1682 91.6945 48.3138 91.8881 48.461 92.0785C48.5234 92.1585 48.5874 92.2353 48.6498 92.3137C48.7746 92.4689 48.9026 92.6193 49.0322 92.7681C49.0706 92.8113 49.1058 92.8593 49.1442 92.9025H49.149C50.181 94.0625 51.3458 95.0513 52.6066 95.8593H52.6002L65.8706 109.259L60.2242 111.027L62.861 114.762L66.629 110.026L67.5666 110.973L63.6146 118.152L67.6498 118.227L68.5538 111.97L74.749 118.227L60.2242 97.9713L60.229 97.9633Z" fill="#E62D4F"/>
<path d="M115.221 82.1249L108.815 69.3985C105.532 66.6913 97.978 67.8257 97.978 67.8257L97.1476 69.7873L96.9556 69.7745L95.1876 71.0737L95.698 72.1457L94.4164 73.1409L95.2388 75.4401L94.65 75.5473C94.1124 77.8321 95.9588 82.2993 95.9588 82.2993L99.9364 83.2961L101.805 85.8401L89.9524 98.2049L83.8148 100.774L78.6324 107.901L79.4628 108.107L84.378 102.797L88.482 101.163L86.1812 105.789C86.0772 105.986 86.3396 106.168 86.4868 106L102.892 87.3201L103.16 87.6865L100.831 91.9409L107.208 85.1953L106.306 83.8817C106.306 83.8817 106.375 84.4609 104.986 85.7153C103.597 86.9697 102.576 84.9089 101.413 81.9969C101.114 81.2481 101.13 80.6113 101.317 80.0801L103.119 80.9457C103.229 80.9985 103.335 80.8673 103.261 80.7697L101.951 79.0737C102.733 78.2481 103.832 77.8753 103.832 77.8753L104.252 77.3825L98.3236 78.5025L98.8612 79.1297C100.474 79.3089 100.026 79.9809 100.16 80.6081C100.295 81.2353 100.295 81.4593 98.7716 81.2353C97.2484 81.0113 97.338 81.1457 96.8004 79.5329C96.1284 76.3073 96.8452 75.8609 96.8452 75.8609L98.0708 76.7793L100.781 75.0993L103.589 74.7505L103.495 73.9345L96.6356 75.1857C95.3156 73.5441 96.978 72.7953 96.978 72.7953L98.2788 73.8577L99.8724 73.0705L103.524 72.9297L103.773 71.8801H97.162C97.1924 71.2657 97.5076 70.9809 97.5076 70.9809L98.4372 71.4881L100.424 70.9601L103.036 70.8561L102.9 70.1809L98.4468 69.8769C98.5412 69.4305 98.9588 69.0561 100.14 69.1281C103.607 69.1441 106.184 69.6417 107.618 70.0065L105.898 70.3025L106.156 70.9601C106.156 70.9601 106.215 71.0785 107.172 70.8433C108.13 70.6081 108.316 71.3217 108.316 71.3217L113.69 83.7649C113.69 83.7649 103.071 108.046 98.4932 113.699C96.4484 114.733 100.33 105.938 101.128 103.851C101.191 103.69 101.01 103.541 100.863 103.634C100.018 104.165 99.3444 104.918 98.9028 105.803L98.9092 105.782L98.8516 105.906C98.834 105.941 98.818 105.976 98.802 106.013L93.6868 116.95C91.6452 118.622 88.8596 118.234 86.7684 117.16C85.8404 116.683 85.9508 115.501 86.4644 114.187C88.1524 111.315 91.9908 106.763 91.9908 106.763L92.0036 106.739L94.5508 104.206L98.6628 95.6353C98.8196 95.3073 98.3924 95.0161 98.1444 95.2817L84.5972 114.109C84.5972 114.109 81.9476 117.634 86.4084 119.378C85.6452 119.79 84.2292 120.208 82.2452 119.366C78.8276 116.72 78.6596 110.403 78.6596 110.403L78.0628 109.174C77.3668 111.696 77.3508 113.642 77.6596 115.125C76.5732 114.947 74.5252 114.347 71.7428 112.357C71.602 112.256 71.4276 112.434 71.5316 112.573C72.7252 114.155 75.7924 117.742 80.4148 119.87L80.914 121.426L85.85 122.062C85.85 122.062 88.25 120.874 89.2036 119.957L94.0676 120.082C94.3188 120.088 94.5636 120.002 94.7572 119.842L98.4276 116.77C98.5684 116.656 98.7044 116.542 98.8356 116.427L98.9108 116.365H98.906C100.968 114.555 101.94 112.739 101.94 112.739L115.274 84.4433C115.621 83.7057 115.6 82.8481 115.22 82.1281L115.221 82.1249Z" fill="#E62D4F"/>
<path d="M67.8735 106.559L71.0735 110.359C71.6015 110.093 72.3727 109.68 72.8655 109.399L69.4319 105.991C68.3167 106.485 67.8735 106.559 67.8735 106.559Z" fill="#E62D4F"/>
<path d="M108.115 77.0591H108.715C108.808 75.9343 108.135 74.7839 108.135 74.7839C107.487 74.4527 105.629 74.7839 105.629 74.7839V75.3679C105.629 75.3679 107.179 75.4047 107.402 75.5183C107.773 75.7071 108.117 77.0591 108.117 77.0591H108.115Z" fill="#E62D4F"/>
<path d="M107.271 73.0818C107.711 73.2034 108.228 74.4801 108.228 74.4801H108.808C108.901 73.3553 108.132 72.2385 108.132 72.2385C107.484 71.9073 105.533 72.4785 105.533 72.4785V73.0418C105.533 73.0418 107.029 73.0162 107.271 73.0818Z" fill="#E62D4F"/>
<path d="M109.556 80.0161L108.816 80.5569L110.093 83.1393L110.808 82.6401L109.556 80.0161Z" fill="#E62D4F"/>
<path d="M105.794 89.4434L104.451 89.7058L100.882 99.421L102.504 98.7666L105.794 89.4434Z" fill="#E62D4F"/>
<path d="M65.7217 76.8975L66.1009 77.2399L68.6673 74.4175L68.2897 74.0703L65.7217 76.8975Z" fill="#E62D4F"/>
<path d="M68.2779 84.1536L68.0889 84.6294L71.2679 85.8926L71.457 85.4167L68.2779 84.1536Z" fill="#E62D4F"/>
<path d="M55.2926 84.155L51.9043 85.5703L52.1016 86.0428L55.4899 84.6275L55.2926 84.155Z" fill="#E62D4F"/>
<path d="M81.416 117.461L83.3568 117.765C82.6288 116.51 83.1552 115.277 83.1552 115.277L81.416 117.461Z" fill="#E62D4F"/>
<path d="M61.8993 108.014L54.8833 99.9551L61.2385 109.331L61.8993 108.014Z" fill="#E62D4F"/>
<path d="M48.6484 79.5171C48.4596 80.5955 48.4052 81.6787 48.4804 82.7443L50.3188 83.8643C49.858 82.9427 48.706 80.1859 49.426 76.8003C49.074 77.6659 48.8116 78.5747 48.6468 79.5171H48.6484Z" fill="#E62D4F"/>
<path d="M59.6788 93.0963C58.6868 93.3539 56.4036 93.6899 53.7764 92.3667C55.0404 93.3027 56.4628 94.0083 57.978 94.4467L59.6788 93.0963Z" fill="#E62D4F"/>
<path d="M69.1938 92.5699C69.909 92.0675 70.565 91.5043 71.157 90.8867C68.6802 92.7843 65.8978 92.9283 64.437 92.8419L66.3298 94.0979C67.3346 93.7123 68.2962 93.2019 69.1954 92.5699H69.1938Z" fill="#E62D4F"/>
<path d="M57.8672 69.1571L57 71.6867C57.7232 70.8947 59.5792 69.1299 62.1312 68.6259C61.9584 68.6179 61.7856 68.6147 61.6128 68.6147C60.3312 68.6147 59.0736 68.8003 57.8688 69.1571H57.8672Z" fill="#E62D4F"/>
<path d="M69.2161 82.2259C69.1617 82.1331 69.1089 82.0403 69.0593 81.9491L68.0977 80.2451L69.0225 83.2259L70.4145 83.7779C69.9329 83.2883 69.5489 82.7811 69.2449 82.2739L69.2177 82.2259H69.2161Z" fill="#E62D4F"/>
</g>
<defs>
<linearGradient id="paint0_linear_406_23131" x1="95.1778" y1="76.7169" x2="98.021" y2="79.4081" gradientUnits="userSpaceOnUse">
<stop stop-color="white" stop-opacity="0"/>
<stop offset="0.21" stop-color="white" stop-opacity="0.25"/>
<stop offset="0.5" stop-color="white" stop-opacity="0.57"/>
<stop offset="0.73" stop-color="white" stop-opacity="0.8"/>
<stop offset="0.91" stop-color="white" stop-opacity="0.95"/>
<stop offset="1" stop-color="white"/>
</linearGradient>
<linearGradient id="paint1_linear_406_23131" x1="95.1456" y1="73.6816" x2="98.1328" y2="73.6816" gradientUnits="userSpaceOnUse">
<stop stop-color="white" stop-opacity="0"/>
<stop offset="0.21" stop-color="white" stop-opacity="0.25"/>
<stop offset="0.5" stop-color="white" stop-opacity="0.57"/>
<stop offset="0.73" stop-color="white" stop-opacity="0.8"/>
<stop offset="0.91" stop-color="white" stop-opacity="0.95"/>
<stop offset="1" stop-color="white"/>
</linearGradient>
<linearGradient id="paint2_linear_406_23131" x1="96.8495" y1="71.2722" x2="98.0687" y2="71.2722" gradientUnits="userSpaceOnUse">
<stop stop-color="white" stop-opacity="0"/>
<stop offset="0.21" stop-color="white" stop-opacity="0.25"/>
<stop offset="0.5" stop-color="white" stop-opacity="0.57"/>
<stop offset="0.73" stop-color="white" stop-opacity="0.8"/>
<stop offset="0.91" stop-color="white" stop-opacity="0.95"/>
<stop offset="1" stop-color="white"/>
</linearGradient>
<linearGradient id="paint3_linear_406_23131" x1="99.7713" y1="72.5232" x2="103.259" y2="73.4816" gradientUnits="userSpaceOnUse">
<stop stop-color="white"/>
<stop offset="0.09" stop-color="white" stop-opacity="0.95"/>
<stop offset="0.27" stop-color="white" stop-opacity="0.8"/>
<stop offset="0.5" stop-color="white" stop-opacity="0.57"/>
<stop offset="0.79" stop-color="white" stop-opacity="0.25"/>
<stop offset="1" stop-color="white" stop-opacity="0"/>
</linearGradient>
<linearGradient id="paint4_linear_406_23131" x1="102.517" y1="72.6337" x2="100.216" y2="69.8593" gradientUnits="userSpaceOnUse">
<stop stop-color="white" stop-opacity="0"/>
<stop offset="0.21" stop-color="white" stop-opacity="0.25"/>
<stop offset="0.5" stop-color="white" stop-opacity="0.57"/>
<stop offset="0.73" stop-color="white" stop-opacity="0.8"/>
<stop offset="0.91" stop-color="white" stop-opacity="0.95"/>
<stop offset="1" stop-color="white"/>
</linearGradient>
<clipPath id="clip0_406_23131">
<rect width="124.843" height="148.832" fill="white" transform="translate(17.8003 5.80029)"/>
</clipPath>
</defs>
</svg>
